<?xml version="1.0" encoding="UTF-8" standalone="no"?>
<svg width="21px" height="20px" viewBox="0 0 21 20" version="1.1" xmlns="http://www.w3.org/2000/svg" xmlns:xlink="http://www.w3.org/1999/xlink" xmlns:sketch="http://www.bohemiancoding.com/sketch/ns">
    <!-- Generator: Sketch 3.4 (15575) - http://www.bohemiancoding.com/sketch -->
    <title>dianti</title>
    <desc>Created with Sketch.</desc>
    <defs></defs>
    <g id="Page-1-Copy" stroke="none" stroke-width="1" fill="none" fill-rule="evenodd" sketch:type="MSPage">
        <g id="icon" sketch:type="MSArtboardGroup" transform="translate(-237.000000, -115.000000)">
            <g id="dianti" sketch:type="MSLayerGroup" transform="translate(238.000000, 115.000000)">
                <path d="M0.309192288,0.789613785 L0.309192288,18.4555034 C0.309192288,18.5892076 0.419883128,18.6975019 0.556546119,18.6975019 L3.15376134,18.6975019 C3.29042433,18.6975019 3.40111517,18.5892076 3.40111517,18.4555034 L3.40111517,3.19689374 C3.40111517,3.06318958 3.51180601,2.95489526 3.648469,2.95489526 L15.5214529,2.95489526 C15.6581159,2.95489526 15.7688067,3.06318958 15.7688067,3.19689374 L15.7688067,18.4555034 C15.7688067,18.5892076 15.8794975,18.6975019 16.0161605,18.6975019 L18.6133758,18.6975019 C18.7500387,18.6975019 18.8607296,18.5892076 18.8607296,18.4555034 L18.8607296,0.789613785 C18.8607296,0.655909621 18.7500387,0.547615297 18.6133758,0.547615297 L0.556546119,0.547615297 C0.419883128,0.547615297 0.309192288,0.655909621 0.309192288,0.789613785 L0.309192288,0.789613785 Z" id="Stroke-1" stroke="#555555" sketch:type="MSShapeGroup"></path>
                <path d="M15.7688067,17.1995312 L3.40111517,17.1995312 L3.40111517,15.9895388 L15.7688067,15.9895388 L15.7688067,17.1995312 Z" id="Fill-3" fill="#555555" sketch:type="MSShapeGroup"></path>
                <path d="M9.790883,17.1686764 L9.17249842,17.1686764 L9.17249842,2.75343151 L9.790883,2.75343151 L9.790883,17.1686764 Z" id="Fill-5" fill="#555555" sketch:type="MSShapeGroup"></path>
                <path d="M5.50436479,9.56326896 L6.27920067,8.42648107 C6.37690543,8.28309696 6.59272165,8.28309696 6.69042641,8.42648107 L7.46526229,9.56326896 C7.57471636,9.72419796 7.4566049,9.93957661 7.25934022,9.93957661 L5.71028686,9.93957661 C5.51240379,9.93957661 5.39491072,9.72419796 5.50436479,9.56326896" id="Fill-6" fill="#555555" sketch:type="MSShapeGroup"></path>
                <path d="M14.0778341,8.5007141 L13.3029982,9.637502 C13.2052934,9.7808861 12.9894772,9.7808861 12.8917725,9.637502 L12.1169366,8.5007141 C12.0074825,8.33978511 12.125594,8.12440645 12.3228587,8.12440645 L13.871912,8.12440645 C14.0697951,8.12440645 14.1872881,8.33978511 14.0778341,8.5007141" id="Fill-7" fill="#555555" sketch:type="MSShapeGroup"></path>
            </g>
        </g>
    </g>
</svg>