<?xml version="1.0" encoding="UTF-8" standalone="no"?>
<svg width="20px" height="20px" viewBox="0 0 20 20" version="1.1" xmlns="http://www.w3.org/2000/svg" xmlns:xlink="http://www.w3.org/1999/xlink" xmlns:sketch="http://www.bohemiancoding.com/sketch/ns">
    <!-- Generator: Sketch 3.4 (15575) - http://www.bohemiancoding.com/sketch -->
    <title>iconfont-dianhua</title>
    <desc>Created with Sketch.</desc>
    <defs></defs>
    <g id="Page-1-Copy" stroke="none" stroke-width="1" fill="none" fill-rule="evenodd" sketch:type="MSPage">
        <g id="酒店餐饮" sketch:type="MSArtboardGroup" transform="translate(-16.000000, -78.000000)" fill="#2296F0">
            <path d="M23.4107476,90.588636 C24.3053642,91.4849723 25.5619657,92.2767741 25.5619657,92.2767741 C25.5619657,92.2767741 27.1479506,93.4468942 28.3152288,92.7380053 C30.8159506,91.2082456 30.7559205,90.6762636 31.9816048,91.3650924 C36.2638905,93.7590264 36.0853341,95.3472246 35.9790183,95.7378552 C35.550898,97.2753627 32.7499356,98.5223297 29.6934243,97.7580654 C26.6213942,96.9954828 23.5463266,95.3764438 21.07171,92.9240714 C18.6171837,90.4547921 16.9958002,87.3858732 16.2304168,84.3154227 C15.4681912,81.2633807 16.7139657,78.4681255 18.255319,78.0392666 C18.6480709,77.9300474 20.2386574,77.7547921 22.6361912,82.0244618 C23.3214845,83.2545218 22.7948078,83.1960834 21.2627175,85.6915188 C20.5451536,86.8569543 21.7184469,88.440678 21.7184469,88.440678 C21.7184469,88.440678 22.5191987,89.693711 23.4107476,90.588636 L23.4107476,90.588636 Z" id="iconfont-dianhua" sketch:type="MSShapeGroup"></path>
        </g>
    </g>
</svg>