<?xml version="1.0" encoding="UTF-8" standalone="no"?>
<svg width="22px" height="20px" viewBox="0 0 22 20" version="1.1" xmlns="http://www.w3.org/2000/svg" xmlns:xlink="http://www.w3.org/1999/xlink" xmlns:sketch="http://www.bohemiancoding.com/sketch/ns">
    <!-- Generator: Sketch 3.4 (15575) - http://www.bohemiancoding.com/sketch -->
    <title>jieji</title>
    <desc>Created with Sketch.</desc>
    <defs></defs>
    <g id="Page-1-Copy" stroke="none" stroke-width="1" fill="none" fill-rule="evenodd" sketch:type="MSPage">
        <g id="icon" sketch:type="MSArtboardGroup" transform="translate(-172.000000, -415.000000)" fill="#555555">
            <g id="jieji" sketch:type="MSLayerGroup" transform="translate(172.000000, 415.000000)">
                <path d="M21.9923297,11.1578053 C21.9923297,9.81978362 21.1364405,8.68593509 19.9639892,8.31681607 L18.1864784,3.88287481 C17.8179784,2.8514374 16.8611568,2.15931994 15.8023919,2.15931994 L13.6863486,2.15931994 C13.6732378,2.10003091 13.6488595,2.04241113 13.6119054,1.99026275 L12.697627,0.696321484 C12.4335378,0.268253478 11.9853919,0.0133539413 11.4951784,0.0133539413 L10.4971514,0.0133539413 C10.0070865,0.0133539413 9.55891081,0.268253478 9.29473243,0.696321484 L8.38042432,1.99026275 C8.34358919,2.04241113 8.31909189,2.10003091 8.3061,2.15931994 L6.18993784,2.15931994 C5.13117297,2.15931994 4.17435135,2.85156105 3.80588108,3.88299845 L2.02837027,8.31681607 C0.856008108,8.68605873 0,9.81990726 0,11.1578053 L0,17.128408 L1.969,17.128408 L1.969,18.328779 C1.969,19.2517774 2.6886973,19.9999382 3.57627838,19.9999382 L3.5763973,19.9999382 C4.46397838,19.9999382 5.18364595,19.2517774 5.18364595,18.328779 L5.18364595,17.128408 L17.0235108,17.128408 L17.0235108,18.328779 C17.0235108,19.2517774 17.7430595,19.9999382 18.6307892,19.9999382 C19.5184892,19.9999382 20.2380378,19.2517774 20.2380378,18.328779 L20.2380378,17.128408 L21.9924486,17.128408 L21.9924486,11.1578053 L21.9923297,11.1578053 Z M4.30269459,18.328779 C4.30269459,18.7452241 3.97682703,19.0840495 3.57627838,19.0840495 C3.17572973,19.0840495 2.84986216,18.7452241 2.84986216,18.328779 L2.84986216,17.1588253 L4.30269459,17.1588253 L4.30269459,18.328779 L4.30269459,18.328779 Z M19.3571757,18.328779 C19.3571757,18.7452241 19.0313378,19.0840495 18.6306703,19.0840495 C18.2301216,19.0840495 17.9042541,18.7452241 17.9042541,18.328779 L17.9042541,17.1588253 L19.3571757,17.1588253 L19.3571757,18.328779 L19.3571757,18.328779 Z M10.0134486,1.22590417 L10.0320297,1.19731066 C10.1329622,1.02945904 10.3068216,0.929242658 10.4971514,0.929242658 L11.4951784,0.929242658 C11.6855378,0.929242658 11.8593676,1.02945904 11.9601811,1.19731066 L11.9690108,1.21190108 L12.6383757,2.15931994 L9.35395405,2.15931994 L10.0134486,1.22590417 L10.0134486,1.22590417 Z M4.62237838,4.22667697 L4.62936486,4.20819165 C4.86848108,3.53054096 5.4956,3.07520866 6.18993784,3.07520866 L15.802273,3.07520866 C16.4966405,3.07520866 17.1237297,3.53054096 17.3629649,4.20819165 L17.3662351,4.21749614 L18.9587378,8.18989181 L3.03347297,8.18989181 L4.62237838,4.22667697 L4.62237838,4.22667697 Z M21.1114676,16.2125193 L0.880743243,16.2125193 L0.880743243,11.1578053 C0.880743243,10.0262751 1.76612432,9.10565688 2.85441081,9.10565688 L19.1379189,9.10565688 C20.2262054,9.10565688 21.1114676,10.0262751 21.1114676,11.1578053 L21.1114676,16.2125193 L21.1114676,16.2125193 Z" id="Fill-1" sketch:type="MSShapeGroup"></path>
                <path d="M4.36723784,10.0929212 C3.48836757,10.0929212 2.77601351,10.8337249 2.77601351,11.7474189 C2.77601351,12.6611437 3.48836757,13.4019474 4.36723784,13.4019474 C5.24601892,13.4019474 5.95837297,12.6611437 5.95837297,11.7474189 C5.95837297,10.8337249 5.24601892,10.0929212 4.36723784,10.0929212 L4.36723784,10.0929212 Z M4.36723784,12.4860587 C3.97554865,12.4860587 3.65687568,12.1547141 3.65687568,11.7474189 C3.65687568,11.3401546 3.97554865,11.0088099 4.36723784,11.0088099 C4.75883784,11.0088099 5.07751081,11.3401546 5.07751081,11.7474189 C5.07751081,12.1547141 4.75883784,12.4860587 4.36723784,12.4860587 L4.36723784,12.4860587 Z" id="Fill-2" sketch:type="MSShapeGroup"></path>
                <path d="M17.5995243,10.0929212 C16.720773,10.0929212 16.0083,10.8337249 16.0083,11.7474189 C16.0083,12.6611437 16.720773,13.4019474 17.5995243,13.4019474 C18.4783054,13.4019474 19.1906595,12.6611437 19.1906595,11.7474189 C19.1907784,10.8337249 18.4783054,10.0929212 17.5995243,10.0929212 L17.5995243,10.0929212 Z M17.5995243,12.4860587 C17.2078351,12.4860587 16.8891622,12.1547141 16.8891622,11.7474189 C16.8891622,11.3401546 17.2078351,11.0088099 17.5995243,11.0088099 C17.9912432,11.0088099 18.3099162,11.3401546 18.3099162,11.7474189 C18.3099162,12.1547141 17.9912432,12.4860587 17.5995243,12.4860587 L17.5995243,12.4860587 Z" id="Fill-3" sketch:type="MSShapeGroup"></path>
            </g>
        </g>
    </g>
</svg>