<?xml version="1.0" encoding="UTF-8" standalone="no"?>
<svg width="22px" height="19px" viewBox="0 0 22 19" version="1.1" xmlns="http://www.w3.org/2000/svg" xmlns:xlink="http://www.w3.org/1999/xlink" xmlns:sketch="http://www.bohemiancoding.com/sketch/ns">
    <!-- Generator: Sketch 3.4 (15575) - http://www.bohemiancoding.com/sketch -->
    <title>nuanqi</title>
    <desc>Created with Sketch.</desc>
    <defs></defs>
    <g id="Page-1-Copy" stroke="none" stroke-width="1" fill="none" fill-rule="evenodd" sketch:type="MSPage">
        <g id="icon" sketch:type="MSArtboardGroup" transform="translate(-176.000000, -149.000000)">
            <g id="nuanqi" sketch:type="MSLayerGroup" transform="translate(176.000000, 150.000000)">
                <path d="M21.3125,2.294932 L20.002125,2.294932 C19.9189375,2.294932 19.8515625,2.361572 19.8515625,2.443852 L19.8515625,3.506012 C19.8515625,3.588292 19.9189375,3.654932 20.002125,3.654932 L21.3125,3.654932 C21.692,3.654932 22,3.350292 22,2.974932 C22,2.599572 21.692,2.294932 21.3125,2.294932" id="Fill-1" fill="#555555" sketch:type="MSShapeGroup"></path>
                <path d="M1.375,1.082424 C1.375,0.707064 1.067,0.402424 0.6875,0.402424 C0.308,0.402424 0,0.707064 0,1.082424 L0,2.825944 C0,3.283584 0.375375,3.654864 0.8380625,3.654864 L3.13775,3.654864 C3.2209375,3.654864 3.2883125,3.588224 3.2883125,3.505944 L3.2883125,2.443784 C3.2883125,2.361504 3.2209375,2.294864 3.13775,2.294864 L1.5255625,2.294864 C1.442375,2.294864 1.375,2.228224 1.375,2.145944 L1.375,1.082424 Z" id="Fill-3" fill="#555555" sketch:type="MSShapeGroup"></path>
                <path d="M3.2225875,13.429932 L0.344025,13.429932 C0.1535875,13.429932 0.000275,13.582252 0.000275,13.769932 C0.000275,13.957612 0.1535875,14.109932 0.344025,14.109932 L3.2225875,14.109932 L3.2225875,13.429932 Z" id="Fill-5" fill="#555555" sketch:type="MSShapeGroup"></path>
                <path d="M21.65625,13.429932 L19.564875,13.429932 L19.564875,14.109932 L21.65625,14.109932 C21.846,14.109932 22,13.957612 22,13.769932 C22,13.582252 21.846,13.429932 21.65625,13.429932" id="Fill-7" fill="#555555" sketch:type="MSShapeGroup"></path>
                <path d="M5.2850875,16.66 L5.2850875,16.66 C4.1459,16.66 3.2225875,15.74676 3.2225875,14.62 L3.2225875,2.38 C3.2225875,1.25324 4.1459,0.34 5.2850875,0.34 L5.2850875,0.34 C6.424275,0.34 7.3475875,1.25324 7.3475875,2.38 L7.3475875,14.62 C7.3475875,15.74676 6.424275,16.66 5.2850875,16.66 L5.2850875,16.66 Z" id="Stroke-9" stroke="#555555" sketch:type="MSShapeGroup"></path>
                <path d="M9.4100875,16.66 L9.4100875,16.66 C8.2709,16.66 7.3475875,15.74676 7.3475875,14.62 L7.3475875,2.38 C7.3475875,1.25324 8.2709,0.34 9.4100875,0.34 L9.4100875,0.34 C10.549275,0.34 11.4725875,1.25324 11.4725875,2.38 L11.4725875,14.62 C11.4725875,15.74676 10.549275,16.66 9.4100875,16.66 L9.4100875,16.66 Z" id="Stroke-11" stroke="#555555" sketch:type="MSShapeGroup"></path>
                <path d="M13.5350875,16.66 L13.5350875,16.66 C12.3959,16.66 11.4725875,15.74676 11.4725875,14.62 L11.4725875,2.38 C11.4725875,1.25324 12.3959,0.34 13.5350875,0.34 L13.5350875,0.34 C14.674275,0.34 15.5975875,1.25324 15.5975875,2.38 L15.5975875,14.62 C15.5975875,15.74676 14.674275,16.66 13.5350875,16.66 L13.5350875,16.66 Z" id="Stroke-13" stroke="#555555" sketch:type="MSShapeGroup"></path>
                <path d="M17.6600188,16.66 L17.6600188,16.66 C16.5208313,16.66 15.5975188,15.74676 15.5975188,14.62 L15.5975188,2.38 C15.5975188,1.25324 16.5208313,0.34 17.6600188,0.34 L17.6600188,0.34 C18.7992063,0.34 19.7225188,1.25324 19.7225188,2.38 L19.7225188,14.62 C19.7225188,15.74676 18.7992063,16.66 17.6600188,16.66 L17.6600188,16.66 Z" id="Stroke-15" stroke="#555555" sketch:type="MSShapeGroup"></path>
            </g>
        </g>
    </g>
</svg>