<?xml version="1.0" encoding="UTF-8" standalone="no"?>
<svg width="20px" height="20px" viewBox="0 0 20 20" version="1.1" xmlns="http://www.w3.org/2000/svg" xmlns:xlink="http://www.w3.org/1999/xlink" xmlns:sketch="http://www.bohemiancoding.com/sketch/ns">
    <!-- Generator: Sketch 3.4 (15575) - http://www.bohemiancoding.com/sketch -->
    <title>paiqiu</title>
    <desc>Created with Sketch.</desc>
    <defs></defs>
    <g id="Page-1-Copy" stroke="none" stroke-width="1" fill="none" fill-rule="evenodd" sketch:type="MSPage">
        <g id="icon" sketch:type="MSArtboardGroup" transform="translate(-238.000000, -248.000000)" fill="#555555">
            <path d="M255.078214,250.926658 C253.188679,249.039472 250.676981,248 248.00561,248 C245.33283,248 242.821157,249.039472 240.930314,250.926658 C239.04078,252.813819 238,255.322362 238,257.991759 C238,260.661055 239.04078,263.169598 240.929057,265.05804 C242.819874,266.945327 245.331572,267.984799 248.004226,267.984799 C250.675698,267.984799 253.186113,266.944045 255.076956,265.059422 C256.966591,263.170879 258.005987,260.662337 258.005987,257.99304 C258.005987,255.323643 256.967774,252.813819 255.078214,250.926658 L255.078214,250.926658 Z M254.409786,264.389171 C252.699195,266.096256 250.423245,267.039246 248.00561,267.039246 C245.585308,267.039246 243.310642,266.098794 241.600126,264.389171 C239.889535,262.680729 238.948025,260.407638 238.948025,257.991759 C238.948025,255.575779 239.889535,253.30397 241.601409,251.595628 C243.311899,249.885905 245.586566,248.945553 248.006868,248.945553 C250.424528,248.945553 252.701761,249.885905 254.412352,251.595628 C256.120277,253.302688 257.060528,255.575779 257.060528,257.991759 C257.060528,260.407638 256.120277,262.680729 254.409786,264.389171 L254.409786,264.389171 Z M247.185031,254.290628 C245.931799,253.709221 244.602591,253.679573 243.442013,254.205729 C242.281459,254.73191 241.428755,255.749497 241.039799,257.075754 C240.650843,258.398191 240.774465,259.868618 241.386289,261.214221 C241.998138,262.559824 243.023396,263.621181 244.276629,264.20005 C245.529962,264.780201 246.85917,264.811106 248.021031,264.282387 C249.18161,263.757513 250.034289,262.740025 250.423245,261.414925 C250.812201,260.08995 250.688579,258.622161 250.074189,257.275201 C249.463648,255.929598 248.437107,254.869497 247.185031,254.290628 L247.185031,254.290628 Z M249.582164,261.026457 C249.265333,262.114724 248.563296,262.95093 247.610164,263.383166 C246.657031,263.815402 245.566038,263.787136 244.536855,263.311131 C243.507774,262.835126 242.665283,261.965528 242.163019,260.860503 C241.660679,259.756734 241.560252,258.548744 241.87834,257.460503 C242.197711,256.373417 242.897208,255.537211 243.85034,255.104975 C244.803472,254.673995 245.894465,254.698442 246.923648,255.174447 C247.95273,255.650452 248.795094,256.522588 249.296176,257.627638 C249.801107,258.735327 249.901635,259.941935 249.582164,261.026457 L249.582164,261.026457 Z M246.207447,258.780276 L246.201057,258.768693 C246.667245,258.014925 246.709811,257.338191 246.327245,256.737437 C246.087648,256.364397 245.754038,256.149548 245.325182,256.092915 C244.894943,256.036382 244.46473,256.144447 244.033208,256.419749 C243.561811,256.718116 243.253937,257.088618 243.108403,257.532437 C242.966692,257.976256 243.022113,258.39691 243.275849,258.795779 C243.639044,259.365628 244.241836,259.597161 245.077836,259.485251 L245.088151,259.499397 C244.51366,260.30598 244.446742,261.054724 244.887195,261.745477 C245.15517,262.164874 245.523497,262.409347 245.991069,262.481407 C246.461182,262.554724 246.933962,262.436357 247.413031,262.132688 C247.99527,261.761005 248.363698,261.33907 248.519547,260.864322 C248.675421,260.390854 248.607119,259.929095 248.321157,259.48005 C247.885811,258.795779 247.179925,258.561608 246.207447,258.780276 L246.207447,258.780276 Z M243.961082,258.344196 C243.818113,258.119045 243.783321,257.878492 243.860654,257.623819 C243.93917,257.370402 244.100226,257.165854 244.341107,257.011457 C244.59995,256.846784 244.851119,256.786307 245.090692,256.830101 C245.331572,256.872487 245.529962,257.015302 245.684553,257.257136 C245.966591,257.699673 245.894465,258.224573 245.470717,258.833065 C244.754516,258.959095 244.250893,258.795779 243.961082,258.344196 L243.961082,258.344196 Z M247.769862,260.765302 C247.684855,261.054724 247.490365,261.295302 247.183774,261.489523 C246.869484,261.688945 246.560327,261.769925 246.25766,261.726256 C245.954994,261.682487 245.719245,261.53191 245.553057,261.270854 C245.233686,260.767839 245.319975,260.167085 245.818491,259.471131 C246.711094,259.272965 247.325484,259.436382 247.660377,259.959899 C247.817509,260.210854 247.856126,260.478417 247.769862,260.765302 L247.769862,260.765302 Z" id="paiqiu" sketch:type="MSShapeGroup"></path>
        </g>
    </g>
</svg>