<?xml version="1.0" encoding="UTF-8" standalone="no"?>
<svg width="17px" height="23px" viewBox="0 0 17 23" version="1.1" xmlns="http://www.w3.org/2000/svg" xmlns:xlink="http://www.w3.org/1999/xlink" xmlns:sketch="http://www.bohemiancoding.com/sketch/ns">
    <!-- Generator: Sketch 3.4 (15575) - http://www.bohemiancoding.com/sketch -->
    <title>sangna</title>
    <desc>Created with Sketch.</desc>
    <defs></defs>
    <g id="Page-1-Copy" stroke="none" stroke-width="1" fill="none" fill-rule="evenodd" sketch:type="MSPage">
        <g id="icon" sketch:type="MSArtboardGroup" transform="translate(-178.000000, -213.000000)">
            <g id="sangna" sketch:type="MSLayerGroup" transform="translate(179.000000, 213.000000)">
                <path d="M8.44444444,13.7033742 L8.44444444,2.6182129 C8.44444444,1.46356774 7.26133333,0.518277419 5.81511111,0.518277419 L5.74044444,0.518277419 C4.29422222,0.518277419 3.11111111,1.46356774 3.11111111,2.6182129 L3.11111111,13.7033742 C1.51822222,14.4400194 0.444444444,15.8118258 0.444444444,17.3873097 C0.444444444,19.738471 2.832,21.6453742 5.77777778,21.6453742 C8.72355556,21.6453742 11.1111111,19.738471 11.1111111,17.3873097 C11.1111111,15.8118258 10.0373333,14.4400194 8.44444444,13.7033742 L8.44444444,13.7033742 Z" id="Stroke-1" stroke="#555555" stroke-linecap="round" sketch:type="MSShapeGroup"></path>
                <path d="M2.82631111,19.3888839 C3.58008889,19.9225613 4.57208889,20.2468839 5.65831111,20.2468839 C6.83786667,20.2468839 7.90453333,19.8657871 8.67697778,19.2483677" id="Stroke-3" stroke="#555555" stroke-linecap="round" sketch:type="MSShapeGroup"></path>
                <path d="M5.04791111,5.5156129 L3.27013333,5.5156129 C3.02568889,5.5156129 2.82568889,5.35593548 2.82568889,5.16077419 C2.82568889,4.9656129 3.02568889,4.80593548 3.27013333,4.80593548 L5.04791111,4.80593548 C5.29235556,4.80593548 5.49235556,4.9656129 5.49235556,5.16077419 C5.49235556,5.35593548 5.29235556,5.5156129 5.04791111,5.5156129" id="Fill-5" fill="#555555" sketch:type="MSShapeGroup"></path>
                <path d="M5.04791111,6.93510968 L3.27013333,6.93510968 C3.02568889,6.93510968 2.82568889,6.77543226 2.82568889,6.58027097 C2.82568889,6.38510968 3.02568889,6.22543226 3.27013333,6.22543226 L5.04791111,6.22543226 C5.29235556,6.22543226 5.49235556,6.38510968 5.49235556,6.58027097 C5.49235556,6.77543226 5.29235556,6.93510968 5.04791111,6.93510968" id="Fill-7" fill="#555555" sketch:type="MSShapeGroup"></path>
                <path d="M5.04791111,8.35460645 L3.27013333,8.35460645 C3.02568889,8.35460645 2.82568889,8.19492903 2.82568889,7.99976774 C2.82568889,7.80460645 3.02568889,7.64492903 3.27013333,7.64492903 L5.04791111,7.64492903 C5.29235556,7.64492903 5.49235556,7.80460645 5.49235556,7.99976774 C5.49235556,8.19492903 5.29235556,8.35460645 5.04791111,8.35460645" id="Fill-9" fill="#555555" sketch:type="MSShapeGroup"></path>
                <path d="M5.04791111,9.77410323 L3.27013333,9.77410323 C3.02568889,9.77410323 2.82568889,9.61442581 2.82568889,9.41926452 L2.82568889,9.41926452 C2.82568889,9.22410323 3.02568889,9.06442581 3.27013333,9.06442581 L5.04791111,9.06442581 C5.29235556,9.06442581 5.49235556,9.22410323 5.49235556,9.41926452 L5.49235556,9.41926452 C5.49235556,9.61442581 5.29235556,9.77410323 5.04791111,9.77410323" id="Fill-11" fill="#555555" sketch:type="MSShapeGroup"></path>
                <path d="M12.0617778,1.61664516 C12.0617778,1.61664516 10.7168889,2.32632258 12.0493333,3.49090323 C13.3817778,4.65548387 12.0377778,5.34032258 12.0377778,5.34032258" id="Stroke-13" stroke="#555555" stroke-linecap="round" sketch:type="MSShapeGroup"></path>
                <path d="M12.0374222,5.34018065 C12.0374222,5.34018065 10.6925333,6.04985806 12.0249778,7.21443871 C13.3574222,8.37901935 12.0134222,9.06385806 12.0134222,9.06385806" id="Stroke-15" stroke="#555555" stroke-linecap="round" sketch:type="MSShapeGroup"></path>
                <path d="M14.7286222,1.61799355 C14.7286222,1.61799355 13.3837333,2.32767097 14.7161778,3.49225161 C16.0486222,4.65683226 14.7046222,5.34167097 14.7046222,5.34167097" id="Stroke-17" stroke="#555555" stroke-linecap="round" sketch:type="MSShapeGroup"></path>
                <path d="M14.7042667,5.34152903 C14.7042667,5.34152903 13.3593778,6.05120645 14.6918222,7.2157871 C16.0242667,8.38036774 14.6802667,9.06520645 14.6802667,9.06520645" id="Stroke-19" stroke="#555555" stroke-linecap="round" sketch:type="MSShapeGroup"></path>
            </g>
        </g>
    </g>
</svg>