<?xml version="1.0" encoding="UTF-8" standalone="no"?>
<svg width="20px" height="18px" viewBox="0 0 20 18" version="1.1" xmlns="http://www.w3.org/2000/svg" xmlns:xlink="http://www.w3.org/1999/xlink" xmlns:sketch="http://www.bohemiancoding.com/sketch/ns">
    <!-- Generator: Sketch 3.4 (15575) - http://www.bohemiancoding.com/sketch -->
    <title>shineiyongchi</title>
    <desc>Created with Sketch.</desc>
    <defs></defs>
    <g id="Page-1-Copy" stroke="none" stroke-width="1" fill="none" fill-rule="evenodd" sketch:type="MSPage">
        <g id="icon" sketch:type="MSArtboardGroup" transform="translate(-177.000000, -181.000000)">
            <g id="shineiyongchi" sketch:type="MSLayerGroup" transform="translate(177.000000, 181.000000)">
                <g id="Group-3" fill="#555555" sketch:type="MSShapeGroup">
                    <path d="M10.0034839,1.66818462 L0.808645161,5.3118 C0.491225806,5.43710769 0.144774194,5.24672308 0.0338064516,4.88533846 L0.0338064516,4.88533846 C-0.076516129,4.52464615 0.0912258065,4.13003077 0.408645161,4.00403077 L9.60348387,0.360415385 C9.92025806,0.235107692 10.2673548,0.425492308 10.3776774,0.786876923 L10.3776774,0.786876923 C10.4886452,1.14756923 10.3209032,1.54218462 10.0034839,1.66818462" id="Fill-1"></path>
                </g>
                <g id="Group-6" transform="translate(9.000000, 0.000000)" fill="#555555" sketch:type="MSShapeGroup">
                    <path d="M0.616967742,1.66818462 L9.81180645,5.3118 C10.1292258,5.43710769 10.4756774,5.24672308 10.5866452,4.88533846 L10.5866452,4.88533846 C10.6969677,4.52464615 10.5292258,4.13003077 10.2118065,4.00403077 L1.01696774,0.360415385 C0.700193548,0.235107692 0.353096774,0.425492308 0.242129032,0.786876923 L0.242129032,0.786876923 C0.131806452,1.14756923 0.299548387,1.54218462 0.616967742,1.66818462" id="Fill-4"></path>
                </g>
                <path d="M13.8412903,6.99680769 L13.8412903,8.38142308 L15.7767742,8.38142308 L15.7767742,7.27373077 C15.7767742,7.12073077 15.6612903,6.99680769 15.5187097,6.99680769 L13.8412903,6.99680769 L13.8412903,6.99680769 Z" id="Stroke-7" stroke="#555555" sketch:type="MSShapeGroup"></path>
                <path d="M11.9056129,8.38142308 L13.8410968,8.38142308 L13.8410968,6.99680769 L12.1636774,6.99680769 C12.0210968,6.99680769 11.9056129,7.12073077 11.9056129,7.27373077 L11.9056129,8.38142308 L11.9056129,8.38142308 Z" id="Stroke-9" stroke="#555555" sketch:type="MSShapeGroup"></path>
                <path d="M12.1636774,9.76617692 L13.8410968,9.76617692 L13.8410968,8.38156154 L11.9056129,8.38156154 L11.9056129,9.48925385 C11.9056129,9.64225385 12.0210968,9.76617692 12.1636774,9.76617692 L12.1636774,9.76617692 Z" id="Stroke-11" stroke="#555555" sketch:type="MSShapeGroup"></path>
                <path d="M13.8412903,9.76617692 L15.5187097,9.76617692 C15.6612903,9.76617692 15.7767742,9.64225385 15.7767742,9.48925385 L15.7767742,8.38156154 L13.8412903,8.38156154 L13.8412903,9.76617692 L13.8412903,9.76617692 Z" id="Stroke-13" stroke="#555555" sketch:type="MSShapeGroup"></path>
                <path d="M14.7573548,14.9933769 C14.2709032,14.9933769 13.7831613,14.8327615 13.4121935,14.5115308 L13.3676774,14.4727615 C12.7528387,13.9396846 11.7134839,13.9396846 11.0973548,14.4734538 L11.0534839,14.5115308 C10.3115484,15.1546846 9.10896774,15.1449923 8.37283871,14.4893769 C7.76445161,13.9479923 6.73154839,13.9403769 6.11735484,14.4734538 L6.07348387,14.5115308 C5.33154839,15.1539923 4.12509677,15.1539923 3.38316129,14.5115308 L3.33929032,14.4734538 C2.72316129,13.9396846 1.68380645,13.9403769 1.06832258,14.4734538 C0.884451613,14.6333769 0.611548387,14.6056846 0.459290323,14.4104538 C0.308322581,14.2159154 0.334129032,13.9279154 0.519290323,13.7679923 C1.46316129,12.9489923 2.94380645,12.9489923 3.88832258,13.7679923 L3.93219355,13.8060692 C4.35670968,14.1729923 5.09993548,14.1729923 5.52380645,13.8060692 L5.56832258,13.7679923 C6.50058065,12.9600692 8.00896774,12.9704538 8.93090323,13.7922231 C9.34832258,14.1633 10.0831613,14.1709154 10.5044516,13.8060692 L10.5483226,13.7679923 C11.4928387,12.9489923 12.9728387,12.9489923 13.9173548,13.7679923 L13.9625161,13.8067615 C14.3857419,14.1736846 15.1296129,14.1736846 15.5534839,13.8060692 L15.5973548,13.7679923 C16.5263871,12.9621462 18.038,12.9621462 18.9670323,13.7679923 C19.1515484,13.9279154 19.178,14.2159154 19.0263871,14.4104538 C18.874129,14.6056846 18.6025161,14.6333769 18.4173548,14.4734538 C17.801871,13.9396846 16.761871,13.9396846 16.1463871,14.4734538 L16.1031613,14.5115308 C15.7315484,14.8327615 15.2450968,14.9933769 14.7573548,14.9933769" id="Fill-15" fill="#555555" sketch:type="MSShapeGroup"></path>
                <path d="M14.7573548,18 C14.2709032,18 13.7831613,17.8393846 13.4121935,17.5181538 L13.3676774,17.4793846 C12.7528387,16.9463077 11.7134839,16.9463077 11.0973548,17.4800769 L11.0534839,17.5181538 C10.3109032,18.1613077 9.10896774,18.1516154 8.37283871,17.4966923 C7.76445161,16.9546154 6.73154839,16.947 6.11735484,17.4800769 L6.07348387,17.5181538 C5.33154839,18.1606154 4.12509677,18.1606154 3.38316129,17.5181538 L3.33929032,17.4800769 C2.72316129,16.9463077 1.68380645,16.9463077 1.06832258,17.4800769 C0.884451613,17.6393077 0.611548387,17.6123077 0.459290323,17.4170769 C0.308322581,17.2225385 0.334129032,16.9345385 0.519290323,16.7746154 C1.46316129,15.9556154 2.94380645,15.9556154 3.88832258,16.7746154 L3.93219355,16.8126923 C4.35670968,17.1796154 5.09993548,17.1796154 5.52380645,16.8126923 L5.56832258,16.7746154 C6.50058065,15.9666923 8.00896774,15.9777692 8.93090323,16.7988462 C9.34896774,17.1713077 10.0838065,17.1775385 10.5044516,16.8126923 L10.5483226,16.7746154 C11.4928387,15.9563077 12.9728387,15.9556154 13.9173548,16.7746154 L13.9625161,16.8133846 C14.3857419,17.1803077 15.1296129,17.1796154 15.5534839,16.8126923 L15.5973548,16.7746154 C16.5263871,15.9694615 18.038,15.9687692 18.9670323,16.7746154 C19.1515484,16.9345385 19.178,17.2225385 19.0263871,17.4170769 C18.874129,17.6123077 18.6025161,17.6393077 18.4173548,17.4800769 C17.801871,16.9456154 16.761871,16.9463077 16.1463871,17.4800769 L16.1031613,17.5181538 C15.7315484,17.8393846 15.2450968,18 14.7573548,18" id="Fill-17" fill="#555555" sketch:type="MSShapeGroup"></path>
            </g>
        </g>
    </g>
</svg>