<?xml version="1.0" encoding="UTF-8" standalone="no"?>
<svg width="22px" height="20px" viewBox="0 0 22 20" version="1.1" xmlns="http://www.w3.org/2000/svg" xmlns:xlink="http://www.w3.org/1999/xlink" xmlns:sketch="http://www.bohemiancoding.com/sketch/ns">
    <!-- Generator: Sketch 3.4 (15575) - http://www.bohemiancoding.com/sketch -->
    <title>shiwaiyongchi</title>
    <desc>Created with Sketch.</desc>
    <defs></defs>
    <g id="Page-1-Copy" stroke="none" stroke-width="1" fill="none" fill-rule="evenodd" sketch:type="MSPage">
        <g id="icon" sketch:type="MSArtboardGroup" transform="translate(-115.000000, -181.000000)">
            <g id="shiwaiyongchi" sketch:type="MSLayerGroup" transform="translate(115.000000, 182.000000)">
                <path d="M11.213329,14.285 L11.213329,1.78416667 C11.213329,0.864166667 11.8484903,0.1175 12.6326839,0.1175 L12.6326839,0.1175" id="Stroke-1" stroke="#555555" stroke-linecap="round" sketch:type="MSShapeGroup"></path>
                <path d="M16.0037935,14.285 L16.0037935,1.78416667 C16.0037935,0.864166667 16.6389548,0.1175 17.4231484,0.1175 L17.4231484,0.1175 C18.2073419,0.1175 18.8425032,0.864166667 18.8425032,1.78416667" id="Stroke-3" stroke="#555555" stroke-linecap="round" sketch:type="MSShapeGroup"></path>
                <path d="M16.0039355,5.005 L11.2136129,5.005 L11.2136129,4.38 L16.0039355,4.38 L16.0039355,5.005 Z" id="Fill-5" fill="#555555" sketch:type="MSShapeGroup"></path>
                <path d="M16.0039355,9.17166667 L11.2136129,9.17166667 L11.2136129,8.54666667 L16.0039355,8.54666667 L16.0039355,9.17166667 Z" id="Fill-7" fill="#555555" sketch:type="MSShapeGroup"></path>
                <path d="M16.6234129,15.3809167 C16.0613484,15.3809167 15.4985742,15.1875833 15.0706387,14.8009167 L15.0188323,14.75425 C14.3091548,14.1125833 13.1083806,14.1125833 12.3972839,14.7550833 L12.3468968,14.8009167 C11.4903161,15.5750833 10.1007677,15.5634167 9.25128387,14.77425 C8.54870323,14.1225833 7.35573548,14.1134167 6.64676774,14.7550833 L6.59567097,14.8009167 C5.73909032,15.57425 4.34599355,15.57425 3.4894129,14.8009167 L3.43902581,14.7550833 C2.72792903,14.1125833 1.52715484,14.1134167 0.816767742,14.7550833 C0.603864516,14.9475833 0.288767742,14.91425 0.113477419,14.67925 C-0.0611032258,14.4450833 -0.0312967742,14.0984167 0.182316129,13.9059167 C1.27238065,12.9200833 2.98199355,12.9200833 4.07276774,13.9059167 L4.12386452,13.95175 C4.61354194,14.3934167 5.47225161,14.3934167 5.96192903,13.95175 L6.01231613,13.9059167 C7.08960645,12.9334167 8.83115484,12.9459167 9.89567097,13.9350833 C10.3775419,14.38175 11.2263161,14.3909167 11.7124452,13.95175 L11.7635419,13.9059167 C12.8536065,12.9200833 14.5632194,12.9200833 15.6539935,13.9059167 L15.7058,13.9525833 C16.1940581,14.39425 17.0534774,14.39425 17.5424452,13.95175 L17.5928323,13.9059167 C18.6665742,12.9359167 20.411671,12.9359167 21.4839935,13.9059167 C21.6976065,14.0984167 21.7281226,14.4450833 21.5528323,14.67925 C21.3775419,14.91425 21.0631548,14.9475833 20.8502516,14.7550833 C20.1391548,14.1125833 18.9383806,14.1125833 18.2272839,14.7550833 L18.1768968,14.8009167 C17.7489613,15.1875833 17.1861871,15.3809167 16.6234129,15.3809167" id="Fill-8" fill="#555555" sketch:type="MSShapeGroup"></path>
                <path d="M16.6234129,19 C16.0613484,19 15.4985742,18.8066667 15.0706387,18.42 L15.0188323,18.3733333 C14.3091548,17.7316667 13.1083806,17.7316667 12.3972839,18.3741667 L12.3468968,18.42 C11.4888968,19.1941667 10.1007677,19.1825 9.25128387,18.3941667 C8.54870323,17.7416667 7.35644516,17.7325 6.64676774,18.3741667 L6.59567097,18.42 C5.73909032,19.1933333 4.34599355,19.1933333 3.4894129,18.42 L3.43902581,18.3741667 C2.72792903,17.7316667 1.52715484,17.7316667 0.816767742,18.3741667 C0.603864516,18.5658333 0.288767742,18.5333333 0.113477419,18.2983333 C-0.0611032258,18.0641667 -0.0312967742,17.7175 0.182316129,17.525 C1.27238065,16.5391667 2.98199355,16.5391667 4.07276774,17.525 L4.12386452,17.5708333 C4.61354194,18.0125 5.47225161,18.0125 5.96192903,17.5708333 L6.01231613,17.525 C7.08960645,16.5525 8.83115484,16.5658333 9.89567097,17.5541667 C10.3782516,18.0025 11.2270258,18.01 11.7124452,17.5708333 L11.7635419,17.525 C12.8536065,16.54 14.5632194,16.5391667 15.6539935,17.525 L15.7058,17.5716667 C16.1940581,18.0133333 17.0534774,18.0125 17.5424452,17.5708333 L17.5928323,17.525 C18.6665742,16.5558333 20.411671,16.555 21.4839935,17.525 C21.6976065,17.7175 21.7281226,18.0641667 21.5528323,18.2983333 C21.3775419,18.5333333 21.0631548,18.5658333 20.8502516,18.3741667 C20.1391548,17.7308333 18.9383806,17.7316667 18.2272839,18.3741667 L18.1768968,18.42 C17.7489613,18.8066667 17.1861871,19 16.6234129,19" id="Fill-9" fill="#555555" sketch:type="MSShapeGroup"></path>
            </g>
        </g>
    </g>
</svg>