<?xml version="1.0" encoding="UTF-8" standalone="no"?>
<svg width="22px" height="21px" viewBox="0 0 22 21" version="1.1" xmlns="http://www.w3.org/2000/svg" xmlns:xlink="http://www.w3.org/1999/xlink" xmlns:sketch="http://www.bohemiancoding.com/sketch/ns">
    <!-- Generator: Sketch 3.4 (15575) - http://www.bohemiancoding.com/sketch -->
    <title>songji</title>
    <desc>Created with Sketch.</desc>
    <defs></defs>
    <g id="Page-1-Copy" stroke="none" stroke-width="1" fill="none" fill-rule="evenodd" sketch:type="MSPage">
        <g id="icon" sketch:type="MSArtboardGroup" transform="translate(-117.000000, -605.000000)" fill="#555555">
            <g id="songji" sketch:type="MSLayerGroup" transform="translate(117.000000, 605.000000)">
                <path d="M13.7422161,20.9844844 C13.6956186,20.9844844 13.6489322,20.9771529 13.6038771,20.9621488 L11.3878729,20.2273194 C11.1671356,20.1541746 11.0502415,19.9232882 11.126589,19.7118106 C11.2029364,19.5003613 11.4439322,19.3882571 11.6646695,19.4615156 L13.3191907,20.0101867 L13.3191907,19.3881434 L11.971572,18.2135074 C11.8646441,18.120272 11.8148136,17.9811719 11.8393729,17.8447429 C11.8746102,17.6500595 11.8916356,17.4838782 11.8916356,17.336793 C11.8916356,17.3283532 11.8919915,17.3199418 11.8925551,17.311502 L12.1525636,13.3313627 C12.1614915,13.1959567 12.2403898,13.0738498 12.3629788,13.0059053 C12.4855381,12.9379608 12.6353559,12.9333004 12.7622458,12.9934871 L20.1610381,16.4996062 L20.1610381,15.0283843 L12.440839,8.55379161 C12.3491864,8.47675372 12.2964492,8.36564411 12.2964492,8.24887957 L12.2964492,3.34942896 C12.2964492,2.84079702 12.0686822,2.17723681 11.7161017,1.65894317 C11.3492839,1.11970636 10.9073644,0.810446549 10.503589,0.810446549 C10.0998136,0.810446549 9.65777542,1.11970636 9.29095763,1.6588295 C8.93840678,2.17723681 8.71061017,2.84079702 8.71061017,3.34942896 L8.71061017,8.2487659 C8.71061017,8.36564411 8.65799153,8.47675372 8.56625,8.55367794 L0.845932203,15.0283843 L0.845932203,16.4947185 L8.10905508,12.9945954 C8.23532203,12.9337551 8.38502119,12.9374208 8.5079661,13.0042287 C8.631,13.0711786 8.71084746,13.1924899 8.72102119,13.3275832 L9.04313983,17.6345156 C9.04394068,17.6441773 9.04429661,17.653839 9.04429661,17.6634723 C9.04429661,17.7349689 9.05310593,17.8115521 9.06247881,17.8928241 L9.06594915,17.9231164 C9.08057203,18.0521001 9.02994068,18.1800893 8.92947881,18.2672152 L7.63794915,19.3885697 L7.63794915,20.0074303 L8.98544915,19.5539838 C9.3672161,19.4042273 10.2045466,19.3295196 10.7413517,20.0906631 C10.8721568,20.2761678 10.8211695,20.5280257 10.6276907,20.6533437 C10.4340636,20.778548 10.171178,20.7299553 10.0403729,20.5444506 C9.91917797,20.3726143 9.77099153,20.2827037 9.58700424,20.2696035 C9.44113136,20.2591746 9.31969915,20.2994696 9.30092373,20.3061191 C9.29119492,20.3103532 9.28876271,20.3108931 9.2772839,20.3147862 L7.35525,20.9616089 C7.22580932,21.005115 7.08236864,20.9859053 6.97045763,20.9098904 C6.85851695,20.8339608 6.79201695,20.7106319 6.79201695,20.579318 L6.79201695,19.2089756 C6.79201695,19.0946549 6.84252966,18.9856482 6.93094915,18.9088376 L8.20382203,17.8036806 C8.20079661,17.7633857 8.19883898,17.7218687 8.19836441,17.6790162 L7.92251695,13.9917118 L0.613033898,17.5141705 C0.481872881,17.577341 0.326033898,17.5709188 0.201012712,17.497092 C0.0761101695,17.4233789 0,17.2928322 0,17.1521976 L0,14.8446698 C0,14.7277916 0.0525889831,14.616682 0.144360169,14.5397578 L7.86467797,8.06505142 L7.86467797,3.34942896 C7.86467797,2.68450474 8.13963559,1.86718133 8.58235593,1.21638024 C9.11589831,0.432048714 9.79822034,0 10.503589,0 C11.208839,0 11.891161,0.432048714 12.4247331,1.21638024 C12.8674237,1.86718133 13.1425,2.68450474 13.1425,3.34942896 L13.1425,8.06505142 L20.8625805,14.5397578 C20.9543517,14.616682 21.0069407,14.7277916 21.0069407,14.8445562 L21.0069407,17.1521976 C21.0069407,17.2922923 20.9314237,17.422498 20.8072034,17.49641 C20.6829831,17.5703505 20.5276186,17.5774547 20.3965763,17.5153924 L12.9571186,13.9899499 L12.7375678,17.3500068 C12.7369746,17.4778823 12.7272458,17.6133166 12.7079958,17.7597199 L14.0267542,18.9092639 C14.1149364,18.9860744 14.1650932,19.0949675 14.1650932,19.2090893 L14.1650932,20.579318 C14.1650932,20.7104046 14.0989492,20.8333924 13.9874831,20.9093221 C13.9149619,20.9588241 13.8289746,20.9844844 13.7422161,20.9844844 L13.7422161,20.9844844 Z" id="接机服务" sketch:type="MSShapeGroup"></path>
            </g>
        </g>
    </g>
</svg>