<?xml version="1.0" encoding="UTF-8" standalone="no"?>
<svg width="22px" height="18px" viewBox="0 0 22 18" version="1.1" xmlns="http://www.w3.org/2000/svg" xmlns:xlink="http://www.w3.org/1999/xlink" xmlns:sketch="http://www.bohemiancoding.com/sketch/ns">
    <!-- Generator: Sketch 3.4 (15575) - http://www.bohemiancoding.com/sketch -->
    <title>tea</title>
    <desc>Created with Sketch.</desc>
    <defs></defs>
    <g id="Page-1-Copy" stroke="none" stroke-width="1" fill="none" fill-rule="evenodd" sketch:type="MSPage">
        <g id="icon" sketch:type="MSArtboardGroup" transform="translate(-237.000000, -214.000000)" fill="#555555">
            <path d="M255.143326,228.573747 C253.762764,230.622422 251.318385,231.983482 248.52939,231.983482 C246.117702,231.983482 243.96334,230.966084 242.531857,229.363723 C242.253643,229.361193 240.864522,229.283373 239.790539,228.038373 C238.959421,227.072916 238.514756,226.04012 238.512716,224.280313 L238.527919,224.099193 C238.527919,224.097892 238.605413,223.36853 238.402994,223.084036 C238.18491,222.774964 237.69232,222.605518 237.01341,222.619361 L237,220.925518 C237.020393,220.924253 237.040199,220.924253 237.060593,220.924253 C238.189483,220.924253 239.013494,221.294157 239.510781,222.025108 C240.036062,222.795566 239.992618,223.680133 239.954581,223.999217 C239.965334,225.250578 240.242806,226.200349 240.778716,226.823446 C240.910624,226.974494 241.052697,227.100458 241.194646,227.202096 C240.89023,226.427265 240.72523,225.589723 240.72523,224.715747 C240.72523,222.717205 241.59077,220.909145 242.992683,219.593952 L254.068138,219.593952 C254.141522,219.661723 254.211756,219.733036 254.280907,219.803916 C255.041329,219.350699 256.245056,218.87388 257.252638,219.243819 C257.883407,219.473807 258.420152,219.954964 258.701022,220.79012 C259.761132,223.944711 258.147624,225.875482 255.143326,228.573747 L255.143326,228.573747 Z M253.4615,220.424012 L243.659202,220.424012 C242.492986,221.186301 241.93693,222.991831 241.93693,222.991831 C241.93693,222.991831 241.354702,225.000386 242.193174,227.00753 C242.648469,228.097398 242.939351,228.585639 243.908433,229.375 C245.211006,230.436205 246.442758,230.695289 246.442758,230.695289 C246.442758,230.695289 247.783213,230.675229 250.57848,230.695289 C253.588711,229.739554 254.967202,226.854639 254.967202,226.854639 C254.967202,226.854639 255.599671,225.523072 255.111933,223.289157 C254.751281,221.636843 253.4615,220.424012 253.4615,220.424012 L253.4615,220.424012 Z M258.136747,221.059651 C257.925059,220.431494 257.526989,220.104494 257.075216,219.93888 C256.342202,219.668771 255.422497,219.970072 254.757924,220.337446 C255.747275,221.553675 256.335683,223.070735 256.335683,224.715747 C256.335683,225.460542 256.214034,226.181446 255.989522,226.857892 C258.146542,224.733964 258.885952,223.294542 258.136747,221.059651 L258.136747,221.059651 Z M243.094093,219.337542 C243.839034,217.285651 245.373348,215.741012 247.241062,215.246301 C247.366449,214.534687 247.895963,214 248.52939,214 C249.16498,214 249.694,214.534687 249.8205,215.246301 C251.687101,215.740867 253.221416,217.286916 253.966388,219.337542 L243.094093,219.337542 L243.094093,219.337542 Z M249.071202,215.930229 C249.071202,215.729735 248.858402,215.28512 248.5225,215.288373 C248.05914,215.292747 247.973674,215.930229 247.973674,215.930229 C247.973674,215.930229 245.795674,215.910169 244.681028,218.498048 L252.363972,218.498048 C252.363972,218.498048 251.592242,216.35153 249.071202,215.930229 L249.071202,215.930229 Z" id="tea" sketch:type="MSShapeGroup"></path>
        </g>
    </g>
</svg>