<?xml version="1.0" encoding="UTF-8" standalone="no"?>
<svg width="19px" height="24px" viewBox="0 0 19 24" version="1.1" xmlns="http://www.w3.org/2000/svg" xmlns:xlink="http://www.w3.org/1999/xlink" xmlns:sketch="http://www.bohemiancoding.com/sketch/ns">
    <!-- Generator: Sketch 3.4 (15575) - http://www.bohemiancoding.com/sketch -->
    <title>wuzhangaishehsi</title>
    <desc>Created with Sketch.</desc>
    <defs></defs>
    <g id="Page-1-Copy" stroke="none" stroke-width="1" fill="none" fill-rule="evenodd" sketch:type="MSPage">
        <g id="icon" sketch:type="MSArtboardGroup" transform="translate(-238.000000, -328.000000)">
            <g id="wuzhangaishehsi" sketch:type="MSLayerGroup" transform="translate(239.000000, 329.000000)">
                <path d="M9.125,3.0625 C9.125,4.753875 7.753875,6.125 6.0625,6.125 C4.371125,6.125 3,4.753875 3,3.0625 C3,1.371125 4.371125,0 6.0625,0 C7.753875,0 9.125,1.371125 9.125,3.0625 L9.125,3.0625 Z" id="Page-1" stroke="#555555" sketch:type="MSShapeGroup"></path>
                <path d="M6.18053333,12.5849625 L6.18053333,12.5849625 C5.81253333,12.5849625 5.51386667,12.2769625 5.51386667,11.8974625 L5.51386667,6.3974625 C5.51386667,6.0179625 5.81253333,5.7099625 6.18053333,5.7099625 L6.18053333,5.7099625 C6.54853333,5.7099625 6.8472,6.0179625 6.8472,6.3974625 L6.8472,11.8974625 C6.8472,12.2769625 6.54853333,12.5849625 6.18053333,12.5849625" id="Fill-3" fill="#555555" sketch:type="MSShapeGroup"></path>
                <g id="Group-7" transform="translate(14.000000, 16.000000)" fill="#555555" sketch:type="MSShapeGroup">
                    <path d="M0.847,2.50915 L0.847,2.50915 C0.663,2.180525 0.772333333,1.759775 1.09166667,1.570025 L2.391,0.797275 C2.70966667,0.607525 3.11766667,0.7209625 3.30166667,1.0495875 L3.30166667,1.0495875 C3.48566667,1.3782125 3.37566667,1.7989625 3.057,1.9887125 L1.75766667,2.7614625 C1.43833333,2.9512125 1.031,2.837775 0.847,2.50915" id="Fill-5"></path>
                </g>
                <path d="M5.54166667,11.9662125 L5.54166667,11.9662125 C5.54166667,11.5867125 5.84033333,11.2787125 6.20833333,11.2787125 L11.989,11.2787125 C12.357,11.2787125 12.6556667,11.5867125 12.6556667,11.9662125 L12.6556667,11.9662125 C12.6556667,12.3457125 12.357,12.6537125 11.989,12.6537125 L6.20833333,12.6537125 C5.84033333,12.6537125 5.54166667,12.3457125 5.54166667,11.9662125" id="Fill-8" fill="#555555" sketch:type="MSShapeGroup"></path>
                <path d="M11.7088667,11.42075 L11.7088667,11.42075 C12.0295333,11.23375 12.4362,11.3499375 12.6175333,11.680625 L15.9875333,17.8275625 C16.1688667,18.1575625 16.0562,18.577625 15.7355333,18.7639375 L15.7355333,18.7639375 C15.4148667,18.9509375 15.0082,18.83475 14.8268667,18.5040625 L11.4568667,12.3578125 C11.2755333,12.027125 11.3882,11.60775 11.7088667,11.42075" id="Fill-10" fill="#555555" sketch:type="MSShapeGroup"></path>
                <path d="M13.0630667,15.0924813 C13.0630667,18.7176688 10.2137333,21.6560438 6.6984,21.6560438 C3.18306667,21.6560438 0.333066667,18.7176688 0.333066667,15.0924813 C0.333066667,11.4672938 3.18306667,8.52891875 6.6984,8.52891875" id="Stroke-12" stroke="#555555" stroke-linecap="round" sketch:type="MSShapeGroup"></path>
                <path d="M11.4270667,8.8724625 L5.71173333,8.8724625 C5.5284,8.8724625 5.3784,8.717775 5.3784,8.5287125 C5.3784,8.33965 5.5284,8.1849625 5.71173333,8.1849625 L11.4270667,8.1849625 C11.6104,8.1849625 11.7604,8.33965 11.7604,8.5287125 C11.7604,8.717775 11.6104,8.8724625 11.4270667,8.8724625" id="Fill-14" fill="#555555" sketch:type="MSShapeGroup"></path>
            </g>
        </g>
    </g>
</svg>