<?xml version="1.0" encoding="UTF-8" standalone="no"?>
<svg width="16px" height="21px" viewBox="0 0 16 21" version="1.1" xmlns="http://www.w3.org/2000/svg" xmlns:xlink="http://www.w3.org/1999/xlink" xmlns:sketch="http://www.bohemiancoding.com/sketch/ns">
    <!-- Generator: Sketch 3.4 (15575) - http://www.bohemiancoding.com/sketch -->
    <title>xishi canting</title>
    <desc>Created with Sketch.</desc>
    <defs></defs>
    <g id="Page-1-Copy" stroke="none" stroke-width="1" fill="none" fill-rule="evenodd" sketch:type="MSPage">
        <g id="icon" sketch:type="MSArtboardGroup" transform="translate(-178.000000, -116.000000)">
            <g id="xishi-canting" sketch:type="MSLayerGroup" transform="translate(179.000000, 116.000000)">
                <path d="M11.6273231,5.75781818 L11.6273231,1.06206061 C11.6273231,0.808121212 11.4193231,0.602060606 11.1627077,0.602060606 L9.67163077,0.602060606 C9.41501538,0.602060606 9.20701538,0.808121212 9.20701538,1.06206061 L9.20701538,5.75781818 C9.20701538,5.94630303 9.08701538,6.10812121 8.91224615,6.18327273 C7.66178462,6.72387879 6.78670769,7.91115152 6.78670769,9.28387879 L6.78670769,19.2372121 C6.78670769,19.4911515 6.99532308,19.6972121 7.25193846,19.6972121 L13.5830154,19.6972121 C13.8396308,19.6972121 14.0476308,19.4911515 14.0476308,19.2372121 L14.0476308,9.28387879 C14.0476308,7.91115152 13.1725538,6.72387879 11.9220923,6.18327273 C11.7473231,6.10812121 11.6273231,5.94630303 11.6273231,5.75781818 L11.6273231,5.75781818 Z" id="Stroke-1" stroke="#555555" sketch:type="MSShapeGroup"></path>
                <path d="M13.9089231,10.4490909 L6.78707692,10.4490909 L6.78707692,9.85090909 L13.9089231,9.85090909 L13.9089231,10.4490909 Z" id="Fill-3" fill="#555555" sketch:type="MSShapeGroup"></path>
                <path d="M13.9089231,17.6678788 L6.78707692,17.6678788 L6.78707692,17.069697 L13.9089231,17.069697 L13.9089231,17.6678788 Z" id="Fill-5" fill="#555555" sketch:type="MSShapeGroup"></path>
                <path d="M14.6649846,10.4488485 L15.6859077,10.4488485 L14.6649846,10.4488485 Z" id="Fill-6" fill="#555555" sketch:type="MSShapeGroup"></path>
                <path d="M0.307692308,8.51733333 L0.307692308,12.9585455 C0.307692308,13.8446061 0.905230769,14.6730909 1.78646154,14.8318788 C2.93107692,15.0385455 3.93784615,14.1633939 3.93784615,13.0670303 L3.93784615,8.51733333 C3.93784615,8.49612121 3.92061538,8.47854545 3.89907692,8.47854545 L0.346461538,8.47854545 C0.324923077,8.47854545 0.307692308,8.49612121 0.307692308,8.51733333 L0.307692308,8.51733333 Z" id="Stroke-7" stroke="#555555" sketch:type="MSShapeGroup"></path>
                <path d="M2.47015385,19.6969697 L1.776,19.6969697 L1.776,14.8624242 L2.47015385,14.8624242 L2.47015385,19.6969697 Z" id="Fill-8" fill="#555555" sketch:type="MSShapeGroup"></path>
            </g>
        </g>
    </g>
</svg>