<?xml version="1.0" encoding="UTF-8" standalone="no"?>
<svg width="20px" height="23px" viewBox="0 0 20 23" version="1.1" xmlns="http://www.w3.org/2000/svg" xmlns:xlink="http://www.w3.org/1999/xlink" xmlns:sketch="http://www.bohemiancoding.com/sketch/ns">
    <!-- Generator: Sketch 3.4 (15575) - http://www.bohemiancoding.com/sketch -->
    <title>xiyifuwu</title>
    <desc>Created with Sketch.</desc>
    <defs></defs>
    <g id="Page-1-Copy" stroke="none" stroke-width="1" fill="none" fill-rule="evenodd" sketch:type="MSPage">
        <g id="icon" sketch:type="MSArtboardGroup" transform="translate(-117.000000, -460.000000)">
            <g id="xiyifuwu" sketch:type="MSLayerGroup" transform="translate(118.000000, 461.000000)">
                <path d="M15.134976,20.6327467 L13.990176,20.63348 C13.882896,20.63348 13.784256,20.5726133 13.734576,20.4758133 L13.183776,19.3985467 C12.847536,19.0612133 12.395376,18.8727467 11.923776,18.8727467 L6.249456,18.8727467 C5.817456,18.8727467 5.400576,19.0311467 5.073696,19.3193467 L4.337136,20.4912133 C4.284576,20.5748133 4.193856,20.6254133 4.095936,20.6261467 L2.864736,20.6327467 C1.091376,20.6327467 0.359856,19.1543467 0.359856,17.3481467 L0.359856,0.832746667 C0.359856,0.429413333 0.683856,0.0994133333 1.079856,0.0994133333 L16.919856,0.0994133333 C17.315856,0.0994133333 17.639856,0.429413333 17.639856,0.832746667 L17.639856,18.0800133 C17.639856,19.4836133 16.513056,20.6320133 15.134976,20.6327467 L15.134976,20.6327467 Z" id="Stroke-1" stroke="#555555" stroke-linecap="round" sketch:type="MSShapeGroup"></path>
                <path d="M17.64,3.9192 L0.36,3.9192 L0.36,3.18586667 L17.64,3.18586667 L17.64,3.9192 Z" id="Fill-3" fill="#555555" sketch:type="MSShapeGroup"></path>
                <path d="M3.90024,0.0992666667 L4.62024,0.0992666667 L4.62024,3.91846667 L3.90024,3.91846667 L3.90024,0.0992666667 Z" id="Fill-5" fill="#555555" sketch:type="MSShapeGroup"></path>
                <path d="M15.83784,2.21566667 L14.39784,2.21566667 L14.39784,1.48233333 L15.83784,1.48233333 L15.83784,2.21566667 Z" id="Fill-6" fill="#555555" sketch:type="MSShapeGroup"></path>
                <path d="M13.341672,10.8855 C13.341672,13.3157667 11.407752,15.2855 9.021672,15.2855 C6.635592,15.2855 4.701672,13.3157667 4.701672,10.8855 C4.701672,8.45523333 6.635592,6.4855 9.021672,6.4855 C11.407752,6.4855 13.341672,8.45523333 13.341672,10.8855 L13.341672,10.8855 Z" id="Stroke-7" stroke="#555555" sketch:type="MSShapeGroup"></path>
                <path d="M4.789584,11.1428267 C4.789584,11.1428267 6.581664,8.61282667 8.937504,10.7944933 C11.293344,12.97616 13.341744,11.1428267 13.341744,11.1428267" id="Stroke-8" stroke="#555555" stroke-linecap="round" sketch:type="MSShapeGroup"></path>
            </g>
        </g>
    </g>
</svg>