<?xml version="1.0" encoding="UTF-8" standalone="no"?>
<svg width="17px" height="17px" viewBox="0 0 17 17" version="1.1" xmlns="http://www.w3.org/2000/svg" xmlns:xlink="http://www.w3.org/1999/xlink" xmlns:sketch="http://www.bohemiancoding.com/sketch/ns">
    <!-- Generator: Sketch 3.4 (15575) - http://www.bohemiancoding.com/sketch -->
    <title>24xiaoshiqiantai</title>
    <desc>Created with Sketch.</desc>
    <defs></defs>
    <g id="Page-1-Copy" stroke="none" stroke-width="1" fill="none" fill-rule="evenodd" sketch:type="MSPage">
        <g id="icon" sketch:type="MSArtboardGroup" transform="translate(-228.000000, -423.000000)" stroke="#555555">
            <g id="24xiaoshiqiantai" sketch:type="MSLayerGroup" transform="translate(229.000000, 424.000000)">
                <path d="M9.05172414,1.86426 C9.05172414,2.85846 8.35706897,3.66426 7.5,3.66426 C6.64293103,3.66426 5.94827586,2.85846 5.94827586,1.86426 C5.94827586,0.87006 6.64293103,0.06426 7.5,0.06426 C8.35706897,0.06426 9.05172414,0.87006 9.05172414,1.86426 L9.05172414,1.86426 Z" id="Stroke-1" sketch:type="MSShapeGroup"></path>
                <path d="M3.87931034,7.305 C3.87931034,5.6484 5.50034483,4.305 7.5,4.305 C9.49965517,4.305 11.1206897,5.6484 11.1206897,7.305" id="Stroke-3" stroke-linecap="round" sketch:type="MSShapeGroup"></path>
                <path d="M14.5344828,7.59 L0.465517241,7.59 C0.351206897,7.59 0.25862069,7.6974 0.25862069,7.83 L0.25862069,9.15 C0.25862069,9.2826 0.351206897,9.39 0.465517241,9.39 L1.29310345,9.39 L1.29310345,14.46 C1.29310345,14.5926 1.38568966,14.7 1.5,14.7 L13.5,14.7 C13.6143103,14.7 13.7068966,14.5926 13.7068966,14.46 L13.7068966,9.39 L14.5344828,9.39 C14.6487931,9.39 14.7413793,9.2826 14.7413793,9.15 L14.7413793,7.83 C14.7413793,7.6974 14.6487931,7.59 14.5344828,7.59 L14.5344828,7.59 Z" id="Stroke-5" stroke-linecap="round" sketch:type="MSShapeGroup"></path>
            </g>
        </g>
    </g>
</svg>