<?xml version="1.0" encoding="UTF-8" standalone="no"?>
<svg width="12px" height="16px" viewBox="0 0 12 16" version="1.1" xmlns="http://www.w3.org/2000/svg" xmlns:xlink="http://www.w3.org/1999/xlink" xmlns:sketch="http://www.bohemiancoding.com/sketch/ns">
    <!-- Generator: Sketch 3.4 (15575) - http://www.bohemiancoding.com/sketch -->
    <title>anquanchukou</title>
    <desc>Created with Sketch.</desc>
    <defs></defs>
    <g id="Page-1-Copy" stroke="none" stroke-width="1" fill="none" fill-rule="evenodd" sketch:type="MSPage">
        <g id="icon" sketch:type="MSArtboardGroup" transform="translate(-172.000000, -301.000000)" fill="#555555">
            <g id="anquanchukou" sketch:type="MSLayerGroup" transform="translate(172.000000, 301.000000)">
                <path d="M11.9871129,0.005542777 L11.9871129,13.2140028 L9.44439425,13.2140028 L9.44439425,15.977582 C9.32619302,15.9496213 9.24726899,15.9353268 9.17142505,15.9123703 C6.18643121,15.0101094 3.20232444,14.1055596 0.215605749,13.2082132 C0.0478275154,13.1578121 -0.000197125257,13.0909173 -3.42723796e-14,12.9344628 C0.00519917864,9.02229453 0.00443531828,5.11012623 0.00463244353,1.19795792 C0.0047063655,0.805520337 0.00463244353,0.413060309 0.00463244353,0.005542777 L11.9871129,0.005542777 L11.9871129,0.005542777 Z M8.7216345,15.1046957 C8.72643943,15.0163254 8.73213142,14.9617279 8.73213142,14.9071978 C8.73259959,11.0712819 8.73146612,7.2353885 8.73693634,3.39956241 C8.73713347,3.23722861 8.67301848,3.17358766 8.51268172,3.12738289 C5.99019302,2.40053857 3.4693306,1.6686676 0.947901437,0.938659187 C0.879548255,0.91884432 0.809002053,0.905267882 0.710045175,0.881772791 L0.710045175,1.11326788 C0.710045175,4.90089201 0.711104723,8.68849369 0.70649692,12.4760954 C0.706299795,12.6333576 0.757700205,12.6999607 0.925281314,12.7502048 C2.82808214,13.3198766 4.72753183,13.8988612 6.62813963,14.4745245 C7.31549076,14.6827041 8.00367967,14.8886171 8.7216345,15.1046957 L8.7216345,15.1046957 Z M2.39130185,0.648258065 C2.39226283,0.659119215 2.39332238,0.669913043 2.39428337,0.680774194 C2.45088296,0.698569425 2.50698973,0.717509116 2.56398357,0.733980365 C4.76777002,1.37178121 6.97098973,2.01151192 9.17701848,2.64298457 C9.3727885,2.69908555 9.44535524,2.76984011 9.4447885,2.96863955 C9.43611499,6.0721683 9.4387269,9.17569705 9.4387269,12.2792931 L9.4387269,12.561122 L11.2790637,12.561122 L11.2790637,0.648347826 C8.30621766,0.648258065 5.34874743,0.648258065 2.39130185,0.648258065 L2.39130185,0.648258065 Z" id="Fill-1" sketch:type="MSShapeGroup"></path>
                <path d="M6.56355647,6.62599719 L7.60472279,6.62599719 L7.60472279,7.25046844 C7.49364271,7.25800842 7.39094045,7.26492006 7.27283778,7.27290884 L7.27283778,9.58031978 C7.37448049,9.58891445 7.47681314,9.59750912 7.60011499,9.60792146 L7.60011499,10.2279271 L6.56365503,10.2279271 C6.56355647,9.02745582 6.56355647,7.83232539 6.56355647,6.62599719 L6.56355647,6.62599719 Z" id="Fill-2" sketch:type="MSShapeGroup"></path>
                <path d="M11.9871129,0.005542777 L11.9871129,13.2140028 L9.44439425,13.2140028 L9.44439425,15.977582 C9.32619302,15.9496213 9.24726899,15.9353268 9.17142505,15.9123703 C6.18643121,15.0101094 3.20232444,14.1055596 0.215605749,13.2082132 C0.0478275154,13.1578121 -0.000197125257,13.0909173 -3.42723796e-14,12.9344628 C0.00519917864,9.02229453 0.00443531828,5.11012623 0.00463244353,1.19795792 C0.0047063655,0.805520337 0.00463244353,0.413060309 0.00463244353,0.005542777 L11.9871129,0.005542777 L11.9871129,0.005542777 Z M8.7216345,15.1046957 C8.72643943,15.0163254 8.73213142,14.9617279 8.73213142,14.9071978 C8.73259959,11.0712819 8.73146612,7.2353885 8.73693634,3.39956241 C8.73713347,3.23722861 8.67301848,3.17358766 8.51268172,3.12738289 C5.99019302,2.40053857 3.4693306,1.6686676 0.947901437,0.938659187 C0.879548255,0.91884432 0.809002053,0.905267882 0.710045175,0.881772791 L0.710045175,1.11326788 C0.710045175,4.90089201 0.711104723,8.68849369 0.70649692,12.4760954 C0.706299795,12.6333576 0.757700205,12.6999607 0.925281314,12.7502048 C2.82808214,13.3198766 4.72753183,13.8988612 6.62813963,14.4745245 C7.31549076,14.6827041 8.00367967,14.8886171 8.7216345,15.1046957 L8.7216345,15.1046957 Z M2.39130185,0.648258065 C2.39226283,0.659119215 2.39332238,0.669913043 2.39428337,0.680774194 C2.45088296,0.698569425 2.50698973,0.717509116 2.56398357,0.733980365 C4.76777002,1.37178121 6.97098973,2.01151192 9.17701848,2.64298457 C9.3727885,2.69908555 9.44535524,2.76984011 9.4447885,2.96863955 C9.43611499,6.0721683 9.4387269,9.17569705 9.4387269,12.2792931 L9.4387269,12.561122 L11.2790637,12.561122 L11.2790637,0.648347826 C8.30621766,0.648258065 5.34874743,0.648258065 2.39130185,0.648258065 L2.39130185,0.648258065 Z" id="Fill-1" sketch:type="MSShapeGroup"></path>
                <path d="M6.56355647,6.62599719 L7.60472279,6.62599719 L7.60472279,7.25046844 C7.49364271,7.25800842 7.39094045,7.26492006 7.27283778,7.27290884 L7.27283778,9.58031978 C7.37448049,9.58891445 7.47681314,9.59750912 7.60011499,9.60792146 L7.60011499,10.2279271 L6.56365503,10.2279271 C6.56355647,9.02745582 6.56355647,7.83232539 6.56355647,6.62599719 L6.56355647,6.62599719 Z" id="Fill-2" sketch:type="MSShapeGroup"></path>
            </g>
        </g>
    </g>
</svg>