<?xml version="1.0" encoding="UTF-8" standalone="no"?>
<svg width="17px" height="16px" viewBox="0 0 17 16" version="1.1" xmlns="http://www.w3.org/2000/svg" xmlns:xlink="http://www.w3.org/1999/xlink" xmlns:sketch="http://www.bohemiancoding.com/sketch/ns">
    <!-- Generator: Sketch 3.4 (15575) - http://www.bohemiancoding.com/sketch -->
    <title>chuifengji</title>
    <desc>Created with Sketch.</desc>
    <defs></defs>
    <g id="Page-1-Copy" stroke="none" stroke-width="1" fill="none" fill-rule="evenodd" sketch:type="MSPage">
        <g id="icon" sketch:type="MSArtboardGroup" transform="translate(-115.000000, -341.000000)">
            <g id="chuifengji" sketch:type="MSLayerGroup" transform="translate(115.000000, 342.000000)">
                <g id="Group-3" transform="translate(0.000000, 2.333333)" fill="#555555" sketch:type="MSShapeGroup">
                    <path d="M1.74977812,1.24243467 L0.481684375,1.24243467 C0.216590625,1.24243467 -0.000159375,1.01395467 -0.000159375,0.735074667 L-0.000159375,0.629794667 C-0.000159375,0.350914667 0.216590625,0.122434667 0.481684375,0.122434667 L1.74977812,0.122434667 C2.01434062,0.122434667 2.23109062,0.350914667 2.23109062,0.629794667 L2.23109062,0.735074667 C2.23109062,1.01395467 2.01434062,1.24243467 1.74977812,1.24243467" id="Fill-1"></path>
                </g>
                <g id="Group-6" transform="translate(0.000000, 3.888889)" fill="#555555" sketch:type="MSShapeGroup">
                    <path d="M1.74977812,1.36687911 L0.481684375,1.36687911 C0.216590625,1.36687911 -0.000159375,1.13839911 -0.000159375,0.859519111 L-0.000159375,0.754239111 C-0.000159375,0.475359111 0.216590625,0.246879111 0.481684375,0.246879111 L1.74977812,0.246879111 C2.01434062,0.246879111 2.23109062,0.475359111 2.23109062,0.754239111 L2.23109062,0.859519111 C2.23109062,1.13839911 2.01434062,1.36687911 1.74977812,1.36687911" id="Fill-4"></path>
                </g>
                <path d="M14.0741406,3.855768 C14.0741406,4.783688 13.3606719,5.535768 12.4803906,5.535768 C11.6001094,5.535768 10.8866406,4.783688 10.8866406,3.855768 C10.8866406,2.927848 11.6001094,2.175768 12.4803906,2.175768 C13.3606719,2.175768 14.0741406,2.927848 14.0741406,3.855768 L14.0741406,3.855768 Z" id="Stroke-7" stroke="#555555" sketch:type="MSShapeGroup"></path>
                <path d="M16.2401531,3.91188 C16.2401531,1.91436 14.6570281,0.27972 12.7216844,0.27972 L10.7682781,0.27972 C10.5754344,0.27972 10.3900281,0.30772 10.2051531,0.33908 L10.2056844,0.33908 L4.40390313,1.43556 C4.36724688,1.44228 4.32846563,1.44732 4.29340313,1.45684 L4.21371563,1.48708 C3.31537188,1.77268 2.95890313,2.74036 2.95890313,3.89396 C2.95890313,5.04252 3.32068438,6.00684 4.21371563,6.29692 L9.54215313,7.36652 C9.94112188,8.53244 10.5106219,10.38548 10.5106219,11.46852 C10.5106219,12.45748 10.0351531,13.06564 9.64893438,13.3966 C9.50655938,13.51924 9.60430938,13.71972 9.80937188,13.71972 L12.4624344,13.71972 C13.0685906,13.71972 13.5605281,13.31372 13.5605281,12.81196 L13.5605281,7.427 C15.0921219,7.035 16.2401531,5.6098 16.2401531,3.91188 L16.2401531,3.91188 Z" id="Stroke-9" stroke="#555555" sketch:type="MSShapeGroup"></path>
            </g>
        </g>
    </g>
</svg>