<?xml version="1.0" encoding="UTF-8" standalone="no"?>
<svg width="17px" height="13px" viewBox="0 0 17 13" version="1.1" xmlns="http://www.w3.org/2000/svg" xmlns:xlink="http://www.w3.org/1999/xlink" xmlns:sketch="http://www.bohemiancoding.com/sketch/ns">
    <!-- Generator: Sketch 3.4 (15575) - http://www.bohemiancoding.com/sketch -->
    <title>coffe</title>
    <desc>Created with Sketch.</desc>
    <defs></defs>
    <g id="Page-1-Copy" stroke="none" stroke-width="1" fill="none" fill-rule="evenodd" sketch:type="MSPage">
        <g id="icon" sketch:type="MSArtboardGroup" transform="translate(-228.000000, -51.000000)" fill="#555555">
            <g id="coffe" sketch:type="MSLayerGroup" transform="translate(228.000000, 51.000000)">
                <path d="M16.700403,2.68651408 C16.120977,1.78533333 14.845949,1.77614789 13.7271924,1.83431221 C13.7450033,1.07259155 13.6575148,0.660528169 13.4325164,0.380265258 C13.1397138,0.0156244131 12.7140707,0.0156244131 12.338449,0.0156244131 L2.35654112,0.0156244131 C1.98105921,0.0156244131 1.55552796,0.0156244131 1.26269737,0.380265258 C0.999141447,0.708683099 0.924235197,1.2175446 0.986475329,2.2580939 C1.04208882,3.18884507 1.21094243,4.6170446 1.44346217,6.53314085 C1.66834868,8.38713615 2.11647204,9.53614085 2.85381908,10.1490939 C3.54114474,10.7204531 4.33365789,10.7204531 5.10005592,10.7204531 L9.59482237,10.7204531 C10.3614441,10.7204531 11.1542928,10.7204531 11.8415066,10.1490939 C12.3665214,9.71280047 12.7447434,9.0043615 13.0005543,7.96335446 C13.9244539,7.96015023 14.568301,7.93009155 15.1015362,7.65330751 C15.7922451,7.29473944 16.1774572,6.58749061 16.5748043,5.56280986 C17.0752418,4.27443662 17.1163158,3.33355399 16.700403,2.68651408 L16.700403,2.68651408 Z M11.2868816,9.35411033 C10.845301,9.72116197 10.265875,9.72116197 9.59493421,9.72116197 L5.10016776,9.72116197 C4.42933882,9.72116197 3.85013651,9.72116197 3.40855592,9.35411033 C2.88519079,8.91903756 2.53926316,7.95346714 2.35120066,6.40201174 C2.13199013,4.59592723 1.95986513,3.14282629 1.90316118,2.24225587 C1.84505921,1.31946948 1.91792434,1.09584507 1.94795395,1.04436385 C2.01293421,1.01491549 2.23519243,1.01491549 2.35654112,1.01491549 L12.338449,1.01491549 C12.4599095,1.01491549 12.6823914,1.01491549 12.7472599,1.04436385 C12.7773174,1.09584507 12.8503783,1.31934742 12.7922763,2.24225587 C12.7355724,3.14380282 12.5709967,4.53501643 12.3447961,6.40188967 C12.3084194,6.70122535 12.2660312,6.97849765 12.2178832,7.23465258 C12.1852253,7.30331455 12.1664359,7.38128404 12.1664359,7.46413615 C12.1664359,7.47103286 12.1670789,7.47783803 12.1674145,7.48464319 C11.9662385,8.4152723 11.675477,9.03118545 11.2868816,9.35411033 L11.2868816,9.35411033 Z M15.7318503,5.17302347 C15.3613734,6.12830986 15.083949,6.5559061 14.7083273,6.75093662 C14.3752056,6.92390376 13.9055526,6.95680047 13.194097,6.96299531 C13.2149556,6.82399296 13.2345,6.68108451 13.2524227,6.53301878 C13.4408207,4.97835915 13.5873898,3.74482394 13.6657072,2.83815023 C14.5464638,2.78950704 15.6325625,2.76518545 15.9508372,3.26049765 C16.1644556,3.59269953 16.0887664,4.25405164 15.7318503,5.17302347 L15.7318503,5.17302347 Z" id="Fill-1" sketch:type="MSShapeGroup"></path>
                <path d="M14.2381431,12.0007089 L0.457741776,12.0007089 C0.205006579,12.0007089 0,12.2244554 0,12.5004155 C0,12.7762535 0.205006579,13 0.457741776,13 L14.2381431,13 C14.4909901,13 14.6959967,12.7762535 14.6959967,12.5004155 C14.6959967,12.2244554 14.4909901,12.0007089 14.2381431,12.0007089 L14.2381431,12.0007089 Z" id="Fill-2" sketch:type="MSShapeGroup"></path>
            </g>
        </g>
    </g>
</svg>