<?xml version="1.0" encoding="UTF-8" standalone="no"?>
<svg width="16px" height="16px" viewBox="0 0 16 16" version="1.1" xmlns="http://www.w3.org/2000/svg" xmlns:xlink="http://www.w3.org/1999/xlink" xmlns:sketch="http://www.bohemiancoding.com/sketch/ns">
    <!-- Generator: Sketch 3.4 (15575) - http://www.bohemiancoding.com/sketch -->
    <title>datangqukuanji</title>
    <desc>Created with Sketch.</desc>
    <defs></defs>
    <g id="Page-1-Copy" stroke="none" stroke-width="1" fill="none" fill-rule="evenodd" sketch:type="MSPage">
        <g id="icon" sketch:type="MSArtboardGroup" transform="translate(-228.000000, -465.000000)">
            <g id="datangqukuanji" sketch:type="MSLayerGroup" transform="translate(229.000000, 466.000000)">
                <path d="M12.9265714,14 L1.498,14 L1.498,0.857142857 C1.498,0.542857143 1.75514286,0.285714286 2.06942857,0.285714286 L12.3551429,0.285714286 C12.6694286,0.285714286 12.9265714,0.542857143 12.9265714,0.857142857 L12.9265714,14 L12.9265714,14 Z" id="Stroke-1" stroke="#555555" sketch:type="MSShapeGroup"></path>
                <g id="Group-5" transform="translate(0.000000, 13.571429)" stroke="#555555" stroke-linecap="round" sketch:type="MSShapeGroup">
                    <path d="M0.285714286,0.428571429 L14,0.428571429" id="Stroke-3"></path>
                </g>
                <path d="M7.8,7.14645714 L3.22857143,7.14645714 C2.91428571,7.14645714 2.65714286,6.88931429 2.65714286,6.57502857 L2.65714286,2.0036 C2.65714286,1.68931429 2.91428571,1.43217143 3.22857143,1.43217143 L7.8,1.43217143 C8.11428571,1.43217143 8.37142857,1.68931429 8.37142857,2.0036 L8.37142857,6.57502857 C8.37142857,6.88931429 8.11428571,7.14645714 7.8,7.14645714 L7.8,7.14645714 Z" id="Stroke-6" stroke="#555555" stroke-linecap="round" sketch:type="MSShapeGroup"></path>
                <path d="M9.53571429,3.14285714 L11.8214286,3.14285714" id="Stroke-8" stroke="#555555" stroke-linecap="round" sketch:type="MSShapeGroup"></path>
                <path d="M4.04971429,8.59657143 L2.90685714,8.59657143 L2.90685714,8.02514286 L4.04971429,8.02514286 L4.04971429,8.59657143 Z" id="Fill-10" fill="#555555" sketch:type="MSShapeGroup"></path>
                <path d="M4.04971429,9.73942857 L2.90685714,9.73942857 L2.90685714,9.168 L4.04971429,9.168 L4.04971429,9.73942857 Z" id="Fill-12" fill="#555555" sketch:type="MSShapeGroup"></path>
                <path d="M4.04971429,10.8822857 L2.90685714,10.8822857 L2.90685714,10.3108571 L4.04971429,10.3108571 L4.04971429,10.8822857 Z" id="Fill-13" fill="#555555" sketch:type="MSShapeGroup"></path>
                <path d="M6.33542857,8.59657143 L5.19257143,8.59657143 L5.19257143,8.02514286 L6.33542857,8.02514286 L6.33542857,8.59657143 Z" id="Fill-14" fill="#555555" sketch:type="MSShapeGroup"></path>
                <path d="M6.33542857,9.73942857 L5.19257143,9.73942857 L5.19257143,9.168 L6.33542857,9.168 L6.33542857,9.73942857 Z" id="Fill-15" fill="#555555" sketch:type="MSShapeGroup"></path>
                <path d="M6.33542857,10.8822857 L5.19257143,10.8822857 L5.19257143,10.3108571 L6.33542857,10.3108571 L6.33542857,10.8822857 Z" id="Fill-16" fill="#555555" sketch:type="MSShapeGroup"></path>
                <path d="M8.62114286,8.59657143 L7.47828571,8.59657143 L7.47828571,8.02514286 L8.62114286,8.02514286 L8.62114286,8.59657143 Z" id="Fill-17" fill="#555555" sketch:type="MSShapeGroup"></path>
                <path d="M8.62114286,9.73942857 L7.47828571,9.73942857 L7.47828571,9.168 L8.62114286,9.168 L8.62114286,9.73942857 Z" id="Fill-18" fill="#555555" sketch:type="MSShapeGroup"></path>
                <path d="M8.62114286,10.8822857 L7.47828571,10.8822857 L7.47828571,10.3108571 L8.62114286,10.3108571 L8.62114286,10.8822857 Z" id="Fill-19" fill="#555555" sketch:type="MSShapeGroup"></path>
            </g>
        </g>
    </g>
</svg>