<?xml version="1.0" encoding="UTF-8" standalone="no"?>
<svg width="17px" height="17px" viewBox="0 0 17 17" version="1.1" xmlns="http://www.w3.org/2000/svg" xmlns:xlink="http://www.w3.org/1999/xlink" xmlns:sketch="http://www.bohemiancoding.com/sketch/ns">
    <!-- Generator: Sketch 3.4 (15575) - http://www.bohemiancoding.com/sketch -->
    <title>dianti</title>
    <desc>Created with Sketch.</desc>
    <defs></defs>
    <g id="Page-1-Copy" stroke="none" stroke-width="1" fill="none" fill-rule="evenodd" sketch:type="MSPage">
        <g id="icon" sketch:type="MSArtboardGroup" transform="translate(-228.000000, -91.000000)">
            <g id="dianti" sketch:type="MSLayerGroup" transform="translate(229.000000, 92.000000)">
                <path d="M0.244099175,0.623379304 L0.244099175,14.5701343 C0.244099175,14.6756902 0.33148668,14.7611857 0.439378515,14.7611857 L2.48981158,14.7611857 C2.59770342,14.7611857 2.68509092,14.6756902 2.68509092,14.5701343 L2.68509092,2.52386348 C2.68509092,2.41830756 2.77247843,2.33281204 2.88037026,2.33281204 L12.2537786,2.33281204 C12.3616704,2.33281204 12.4490579,2.41830756 12.4490579,2.52386348 L12.4490579,14.5701343 C12.4490579,14.6756902 12.5364454,14.7611857 12.6443373,14.7611857 L14.6947703,14.7611857 C14.8026622,14.7611857 14.8900497,14.6756902 14.8900497,14.5701343 L14.8900497,0.623379304 C14.8900497,0.517823385 14.8026622,0.432327866 14.6947703,0.432327866 L0.439378515,0.432327866 C0.33148668,0.432327866 0.244099175,0.517823385 0.244099175,0.623379304 L0.244099175,0.623379304 Z" id="Stroke-1" stroke="#555555" sketch:type="MSShapeGroup"></path>
                <path d="M12.4490579,13.5785773 L2.68509092,13.5785773 L2.68509092,12.6233201 L12.4490579,12.6233201 L12.4490579,13.5785773 Z" id="Fill-3" fill="#555555" sketch:type="MSShapeGroup"></path>
                <path d="M8.03091981,13.5542182 L7.24144612,13.5542182 L7.24144612,2.17376172 L8.03091981,2.17376172 L8.03091981,13.5542182 Z" id="Fill-5" fill="#555555" sketch:type="MSShapeGroup"></path>
                <path d="M4.34555115,7.54994918 L4.95726369,6.65248505 C5.03439902,6.53928708 5.20478025,6.53928708 5.28191559,6.65248505 L5.89362812,7.54994918 C5.98003923,7.67699839 5.88679334,7.84703417 5.73105807,7.84703417 L4.5081212,7.84703417 C4.35189773,7.84703417 4.25914004,7.67699839 4.34555115,7.54994918" id="Fill-6" fill="#555555" sketch:type="MSShapeGroup"></path>
                <path d="M11.1140795,6.71109008 L10.502367,7.60855421 C10.4252317,7.72175219 10.2548504,7.72175219 10.1777151,7.60855421 L9.56600257,6.71109008 C9.47959146,6.58404088 9.57283735,6.4140051 9.72857262,6.4140051 L10.9515095,6.4140051 C11.107733,6.4140051 11.2004906,6.58404088 11.1140795,6.71109008" id="Fill-7" fill="#555555" sketch:type="MSShapeGroup"></path>
            </g>
        </g>
    </g>
</svg>