<?xml version="1.0" encoding="UTF-8" standalone="no"?>
<svg width="17px" height="16px" viewBox="0 0 17 16" version="1.1" xmlns="http://www.w3.org/2000/svg" xmlns:xlink="http://www.w3.org/1999/xlink" xmlns:sketch="http://www.bohemiancoding.com/sketch/ns">
    <!-- Generator: Sketch 3.4 (15575) - http://www.bohemiancoding.com/sketch -->
    <title>huiyi</title>
    <desc>Created with Sketch.</desc>
    <defs></defs>
    <g id="Page-1-Copy" stroke="none" stroke-width="1" fill="none" fill-rule="evenodd" sketch:type="MSPage">
        <g id="icon" sketch:type="MSArtboardGroup" transform="translate(-228.000000, -133.000000)">
            <g id="huiyi" sketch:type="MSLayerGroup" transform="translate(229.000000, 134.000000)">
                <path d="M10.0914074,2.65766667 C10.0914074,3.94618519 9.04659259,4.991 7.75807407,4.991 C6.46955556,4.991 5.42474074,3.94618519 5.42474074,2.65766667 C5.42474074,1.36914815 6.46955556,0.324333333 7.75807407,0.324333333 C9.04659259,0.324333333 10.0914074,1.36914815 10.0914074,2.65766667 L10.0914074,2.65766667 Z" id="Stroke-1" stroke="#555555" sketch:type="MSShapeGroup"></path>
                <path d="M4.14083704,8.60823704 C4.14083704,6.61038519 5.76017037,4.99105185 7.75802222,4.99105185 C9.74913333,4.99105185 11.364837,6.60001481 11.3752074,8.58853333" id="Stroke-3" stroke="#555555" stroke-linecap="round" sketch:type="MSShapeGroup"></path>
                <path d="M4.71462963,5.50874074 C3.45462963,5.47607407 2.44351852,4.44422222 2.44351852,3.17644444 C2.44351852,1.88740741 3.48781481,0.843111111 4.77685185,0.843111111 C4.86862963,0.843111111 4.95988889,0.848296296 5.04907407,0.858666667" id="Stroke-5" stroke="#555555" stroke-linecap="round" sketch:type="MSShapeGroup"></path>
                <path d="M1.15951111,9.12680741 C1.15951111,7.2031037 2.66114074,5.63043704 4.55580741,5.51636296" id="Stroke-7" stroke="#555555" stroke-linecap="round" sketch:type="MSShapeGroup"></path>
                <path d="M10.8159333,5.51491111 C12.0759333,5.48224444 13.0870444,4.45039259 13.0870444,3.18261481 C13.0870444,1.89357778 12.0427481,0.849281481 10.7537111,0.849281481 C10.6619333,0.849281481 10.5706741,0.854466667 10.4814889,0.864837037" id="Stroke-9" stroke="#555555" stroke-linecap="round" sketch:type="MSShapeGroup"></path>
                <path d="M14.3711037,9.13292593 C14.3711037,7.20922222 12.8694741,5.63655556 10.9748074,5.52248148" id="Stroke-11" stroke="#555555" stroke-linecap="round" sketch:type="MSShapeGroup"></path>
                <path d="M15.0888889,13.7407407 L0.466666667,13.7407407 C0.352074074,13.7407407 0.259259259,13.6479259 0.259259259,13.5333333 L0.259259259,9.8 C0.259259259,9.68540741 0.352074074,9.59259259 0.466666667,9.59259259 L15.0888889,9.59259259 C15.2034815,9.59259259 15.2962963,9.68540741 15.2962963,9.8 L15.2962963,13.5333333 C15.2962963,13.6479259 15.2034815,13.7407407 15.0888889,13.7407407 L15.0888889,13.7407407 Z" id="Stroke-13" stroke="#555555" stroke-linecap="round" sketch:type="MSShapeGroup"></path>
                <path d="M15.1454074,13.4814815 L0.465111111,13.4814815 L0.465111111,12.962963 L15.1454074,12.962963 L15.1454074,13.4814815 Z" id="Fill-15" fill="#555555" sketch:type="MSShapeGroup"></path>
            </g>
        </g>
    </g>
</svg>