<?xml version="1.0" encoding="UTF-8" standalone="no"?>
<svg width="18px" height="13px" viewBox="0 0 18 13" version="1.1" xmlns="http://www.w3.org/2000/svg" xmlns:xlink="http://www.w3.org/1999/xlink" xmlns:sketch="http://www.bohemiancoding.com/sketch/ns">
    <!-- Generator: Sketch 3.4 (15575) - http://www.bohemiancoding.com/sketch -->
    <title>jianshen</title>
    <desc>Created with Sketch.</desc>
    <defs></defs>
    <g id="Page-1-Copy" stroke="none" stroke-width="1" fill="none" fill-rule="evenodd" sketch:type="MSPage">
        <g id="icon" sketch:type="MSArtboardGroup" transform="translate(-227.000000, -175.000000)">
            <g id="jianshen" sketch:type="MSLayerGroup" transform="translate(228.000000, 175.000000)">
                <path d="M2.31818182,11.5910478 L2.31818182,11.5910478 C1.74893939,11.5910478 1.28787879,10.9823028 1.28787879,10.2307239 L1.28787879,2.06878057 C1.28787879,1.31720162 1.74893939,0.70845668 2.31818182,0.70845668 L2.31818182,0.70845668 C2.88742424,0.70845668 3.34848485,1.31720162 3.34848485,2.06878057 L3.34848485,10.2307239 C3.34848485,10.9823028 2.88742424,11.5910478 2.31818182,11.5910478 L2.31818182,11.5910478 Z" id="Stroke-1" stroke="#555555" sketch:type="MSShapeGroup"></path>
                <path d="M0.772727273,9.55056194 L0.772727273,9.55056194 C0.488363636,9.55056194 0.257575758,9.24584939 0.257575758,8.8704 L0.257575758,3.42910445 C0.257575758,3.05365506 0.488363636,2.74894251 0.772727273,2.74894251 L0.772727273,2.74894251 C1.05709091,2.74894251 1.28787879,3.05365506 1.28787879,3.42910445 L1.28787879,8.8704 C1.28787879,9.24584939 1.05709091,9.55056194 0.772727273,9.55056194 L0.772727273,9.55056194 Z" id="Stroke-3" stroke="#555555" sketch:type="MSShapeGroup"></path>
                <path d="M14.1827909,11.902834 L14.1827909,11.902834 C14.7520333,11.902834 15.2130939,11.2940891 15.2130939,10.5425101 L15.2130939,2.3805668 C15.2130939,1.62898785 14.7520333,1.02024291 14.1827909,1.02024291 L14.1827909,1.02024291 C13.6135485,1.02024291 13.1524879,1.62898785 13.1524879,2.3805668 L13.1524879,10.5425101 C13.1524879,11.2940891 13.6135485,11.902834 14.1827909,11.902834 L14.1827909,11.902834 Z" id="Stroke-5" stroke="#555555" sketch:type="MSShapeGroup"></path>
                <path d="M15.7282455,9.86234818 L15.7282455,9.86234818 C16.0126091,9.86234818 16.243397,9.55763563 16.243397,9.18218623 L16.243397,3.74089069 C16.243397,3.3654413 16.0126091,3.06072874 15.7282455,3.06072874 L15.7282455,3.06072874 C15.4438818,3.06072874 15.2130939,3.3654413 15.2130939,3.74089069 L15.2130939,9.18218623 C15.2130939,9.55763563 15.4438818,9.86234818 15.7282455,9.86234818 L15.7282455,9.86234818 Z" id="Stroke-7" stroke="#555555" sketch:type="MSShapeGroup"></path>
                <path d="M12.8947576,5.41272874 L3.49324242,5.41272874 L3.49324242,4.7325668 L12.8947576,4.7325668 L12.8947576,5.41272874 Z" id="Fill-9" fill="#555555" sketch:type="MSShapeGroup"></path>
                <path d="M12.8947576,7.45321457 L3.49324242,7.45321457 L3.49324242,6.77305263 L12.8947576,6.77305263 L12.8947576,7.45321457 Z" id="Fill-11" fill="#555555" sketch:type="MSShapeGroup"></path>
            </g>
        </g>
    </g>
</svg>