<?xml version="1.0" encoding="UTF-8" standalone="no"?>
<svg width="16px" height="15px" viewBox="0 0 16 15" version="1.1" xmlns="http://www.w3.org/2000/svg" xmlns:xlink="http://www.w3.org/1999/xlink" xmlns:sketch="http://www.bohemiancoding.com/sketch/ns">
    <!-- Generator: Sketch 3.4 (15575) - http://www.bohemiancoding.com/sketch -->
    <title>jiaoxingfuwu</title>
    <desc>Created with Sketch.</desc>
    <defs></defs>
    <g id="Page-1-Copy" stroke="none" stroke-width="1" fill="none" fill-rule="evenodd" sketch:type="MSPage">
        <g id="icon" sketch:type="MSArtboardGroup" transform="translate(-228.000000, -382.000000)" stroke="#555555">
            <g id="jiaoxingfuwu" sketch:type="MSLayerGroup" transform="translate(229.000000, 383.000000)">
                <path d="M12.9521667,6.68696 C12.9521667,9.77984 10.4649444,12.28696 7.39661111,12.28696 C4.32827778,12.28696 1.84105556,9.77984 1.84105556,6.68696 C1.84105556,3.59408 4.32827778,1.08696 7.39661111,1.08696 C10.4649444,1.08696 12.9521667,3.59408 12.9521667,6.68696 L12.9521667,6.68696 Z" id="Stroke-1" sketch:type="MSShapeGroup"></path>
                <path d="M0.892055556,3.901632 C0.475388889,3.453072 0.238166667,2.837632 0.283166667,2.176272 C0.369833333,0.912352 1.4565,-0.040768 2.70983333,0.046592 C3.20094444,0.080752 3.64483333,0.269472 3.99761111,0.562352" id="Stroke-3" stroke-linecap="round" sketch:type="MSShapeGroup"></path>
                <path d="M13.8685556,3.901632 C14.2852222,3.453072 14.5224444,2.837632 14.4774444,2.176272 C14.3907778,0.912352 13.3041111,-0.040768 12.0507778,0.046592 C11.5596667,0.080752 11.1157778,0.269472 10.763,0.562352" id="Stroke-5" stroke-linecap="round" sketch:type="MSShapeGroup"></path>
                <path d="M7.43266667,6.695976 L10.406,3.698856" id="Stroke-7" stroke-linecap="round" sketch:type="MSShapeGroup"></path>
                <path d="M5.78711111,5.044144 L7.39655556,6.666464" id="Stroke-9" stroke-linecap="round" sketch:type="MSShapeGroup"></path>
                <path d="M9.78083333,11.74012 L11.7452778,13.72028" id="Stroke-11" stroke-linecap="round" sketch:type="MSShapeGroup"></path>
                <path d="M4.95694444,11.74012 L2.9925,13.72028" id="Stroke-13" stroke-linecap="round" sketch:type="MSShapeGroup"></path>
            </g>
        </g>
    </g>
</svg>