<?xml version="1.0" encoding="UTF-8" standalone="no"?>
<svg width="14px" height="15px" viewBox="0 0 14 15" version="1.1" xmlns="http://www.w3.org/2000/svg" xmlns:xlink="http://www.w3.org/1999/xlink" xmlns:sketch="http://www.bohemiancoding.com/sketch/ns">
    <!-- Generator: Sketch 3.4 (15575) - http://www.bohemiancoding.com/sketch -->
    <title>jiedaiwaibin</title>
    <desc>Created with Sketch.</desc>
    <defs></defs>
    <g id="Page-1-Copy" stroke="none" stroke-width="1" fill="none" fill-rule="evenodd" sketch:type="MSPage">
        <g id="icon" sketch:type="MSArtboardGroup" transform="translate(-171.000000, -468.000000)" fill="#272636">
            <g id="jiedaiwaibin" sketch:type="MSLayerGroup" transform="translate(171.000000, 468.000000)">
                <path d="M13.0116304,10.3947083 C12.7331087,9.97202083 12.3456087,9.606375 11.8601304,9.307875 C11.2655435,8.9423125 10.5212391,8.67733333 9.64784783,8.5204375 C9.55569565,8.50383333 9.46128261,8.53485417 9.39902174,8.6020625 C9.33678261,8.66920833 9.3158913,8.76279167 9.344,8.84847917 L10.0295435,10.9413333 L7.92204348,9.80829167 C7.79347826,9.7391875 7.63078261,9.7830625 7.55867391,9.90627083 C7.4865,10.0294792 7.53226087,10.1853958 7.66082609,10.2545625 L8.0191087,10.447125 C8.01367391,10.4559167 8.00865217,10.4649375 8.00423913,10.4745417 L6.5428913,13.6736875 L5.14630435,10.6163958 L5.81921739,10.2545625 C5.94778261,10.1853958 5.99354348,10.0295625 5.92145652,9.90627083 C5.84926087,9.7830625 5.68656522,9.7391875 5.558,9.808375 L3.4505,10.9413333 L4.13613043,8.84847917 C4.16415217,8.76279167 4.14326087,8.66920833 4.08102174,8.6020625 C4.01876087,8.53485417 3.92434783,8.50383333 3.83219565,8.5204375 C2.95880435,8.67733333 2.21458696,8.9423125 1.62,9.307875 C1.13443478,9.606375 0.747021739,9.97202083 0.4685,10.3947083 C0.00306521739,11.101 -0.000847826087,11.731375 8.69565217e-05,11.7969792 L8.69565217e-05,14.7233125 C8.69565217e-05,14.8646042 0.119565217,14.9791875 0.266978261,14.9791875 C0.414391304,14.9791875 0.533956522,14.8646042 0.533956522,14.7233125 L0.533956522,11.7948542 C0.533956522,11.7925833 0.533956522,11.7916042 0.533891304,11.7893958 C0.533804348,11.7840417 0.529630435,11.2447292 0.937152174,10.6420208 C1.42306522,9.9234375 2.30019565,9.40025 3.48904348,9.1155 L2.73956522,11.4033333 C2.70678261,11.5033542 2.74108696,11.6124792 2.826,11.6785625 C2.911,11.7446458 3.0293913,11.7544167 3.12482609,11.7030625 L4.67832609,10.8679375 L6.29832609,14.4141667 C6.34086957,14.50725 6.43682609,14.5673958 6.5428913,14.5673958 C6.64895652,14.5673958 6.74491304,14.50725 6.78745652,14.4141667 L8.48513043,10.6976875 L10.3552174,11.7030625 C10.4506522,11.7544167 10.5691304,11.7447292 10.6541304,11.6785625 C10.7390435,11.6124792 10.7732609,11.5034375 10.7404783,11.4033333 L9.991,9.1155 C11.1799348,9.40025 12.0570652,9.9234375 12.5428913,10.6420208 C12.950413,11.2447292 12.9462391,11.7839583 12.9461522,11.7880208 C12.9461522,11.7902917 12.946087,11.7925833 12.946087,11.7948542 L12.946087,14.7233125 C12.946087,14.8646042 13.0656522,14.9791042 13.2130652,14.9791042 C13.3604783,14.9791042 13.4800435,14.8646042 13.4800435,14.7233125 L13.4800435,11.7968958 C13.4809783,11.7312917 13.4770652,11.101 13.0116304,10.3947083 L13.0116304,10.3947083 Z" id="Fill-1" sketch:type="MSShapeGroup"></path>
                <path d="M2.67663043,7.28216667 C2.71517391,7.38745833 2.81836957,7.4533125 2.9285,7.4533125 C2.95786957,7.4533125 2.98769565,7.44866667 3.0168913,7.4388125 C3.156,7.39202083 3.22928261,7.24602083 3.18045652,7.11272917 C3.17721739,7.10385417 2.85276087,6.2133125 2.61278261,5.207375 C2.20576087,3.502125 2.36836957,2.88364583 2.50143478,2.66677083 C3.08695652,1.71283333 3.81571739,0.525645833 7.03582609,0.525645833 C8.35113043,0.525645833 9.37108696,0.9525625 10.0672609,1.79452083 C10.6400217,2.48739583 10.7981522,3.2343125 10.8108043,3.46372917 C10.8630217,4.41472917 10.8026522,5.57570833 9.95906522,6.97495833 C9.88528261,7.09735417 9.929,7.25383333 10.0566304,7.32447917 C10.1842826,7.3951875 10.3475652,7.35329167 10.4213696,7.23097917 C11.3347391,5.71591667 11.4003043,4.46283333 11.343913,3.43679167 C11.3251522,3.09522917 11.1216957,2.24602083 10.4856522,1.4768125 C10.1261957,1.042 9.68256522,0.697604167 9.16728261,0.4533125 C8.55230435,0.161791667 7.83517391,0.0140208333 7.03582609,0.0140208333 C5.51095652,0.0140208333 4.36184783,0.2669375 3.52284783,0.787208333 C2.79654348,1.23747917 2.4076087,1.81047917 2.04126087,2.40733333 C1.72869565,2.91660417 1.74567391,3.87127083 2.09332609,5.32585417 C2.34026087,6.35922917 2.66304348,7.24497917 2.67663043,7.28216667 L2.67663043,7.28216667 Z" id="Fill-2" sketch:type="MSShapeGroup"></path>
                <path d="M7.52232609,1.84677083 C7.37865217,1.81529167 7.23547826,1.90154167 7.20269565,2.03925 C6.9425,3.13160417 6.24269565,3.8126875 5.12278261,4.06341667 C4.2585,4.2569375 3.45406522,4.11491667 3.43928261,4.11222917 C3.29467391,4.08545833 3.15454348,4.17604167 3.12652174,4.314625 C3.09841304,4.453375 3.19293478,4.58766667 3.33763043,4.61460417 C3.35130435,4.617125 3.48071739,4.64047917 3.68784783,4.6580625 C3.71517391,4.85620833 3.8411087,5.65952083 4.18428261,6.47445833 C4.72273913,7.7534375 5.5383913,8.42945833 6.54297826,8.42945833 C7.11363043,8.42945833 7.62993478,8.20070833 8.07743478,7.74960417 C8.41652174,7.40789583 8.71569565,6.9369375 8.9668913,6.34979167 C9.27106522,5.63835417 9.42984783,4.93547917 9.49617391,4.58879167 C9.52378261,4.58945833 9.55163043,4.58985417 9.57982609,4.58985417 C9.62152174,4.58985417 9.66406522,4.589125 9.70702174,4.58758333 C9.85436957,4.58245833 9.96952174,4.463875 9.96417391,4.3226875 C9.95873913,4.1815 9.83552174,4.0708125 9.68767391,4.07627083 C9.01834783,4.09970833 8.44480435,3.91195833 7.98284783,3.5185625 C7.63373913,3.22129167 7.4791087,2.90985417 7.47563043,2.9026875 C7.47273913,2.89683333 7.46952174,2.89120833 7.46628261,2.88566667 C7.571,2.668625 7.65836957,2.425625 7.72326087,2.15316667 C7.75602174,2.01539583 7.6661087,1.87827083 7.52232609,1.84677083 L7.52232609,1.84677083 Z M7.60826087,3.88395833 C7.89673913,4.134125 8.34180435,4.41545833 8.96315217,4.53314583 C8.80332609,5.33789583 8.16423913,7.91775 6.54297826,7.91775 C4.84765217,7.91775 4.3271087,5.2806875 4.23030435,4.6766875 C4.52471739,4.67254167 4.8688913,4.6440625 5.22665217,4.56552083 C5.86284783,4.425875 6.62169565,4.10629167 7.15947826,3.39145833 C7.25976087,3.53191667 7.40702174,3.70933333 7.60826087,3.88395833 L7.60826087,3.88395833 Z" id="Fill-3" sketch:type="MSShapeGroup"></path>
                <path d="M13.0116304,10.3947083 C12.7331087,9.97202083 12.3456087,9.606375 11.8601304,9.307875 C11.2655435,8.9423125 10.5212391,8.67733333 9.64784783,8.5204375 C9.55569565,8.50383333 9.46128261,8.53485417 9.39902174,8.6020625 C9.33678261,8.66920833 9.3158913,8.76279167 9.344,8.84847917 L10.0295435,10.9413333 L7.92204348,9.80829167 C7.79347826,9.7391875 7.63078261,9.7830625 7.55867391,9.90627083 C7.4865,10.0294792 7.53226087,10.1853958 7.66082609,10.2545625 L8.0191087,10.447125 C8.01367391,10.4559167 8.00865217,10.4649375 8.00423913,10.4745417 L6.5428913,13.6736875 L5.14630435,10.6163958 L5.81921739,10.2545625 C5.94778261,10.1853958 5.99354348,10.0295625 5.92145652,9.90627083 C5.84926087,9.7830625 5.68656522,9.7391875 5.558,9.808375 L3.4505,10.9413333 L4.13613043,8.84847917 C4.16415217,8.76279167 4.14326087,8.66920833 4.08102174,8.6020625 C4.01876087,8.53485417 3.92434783,8.50383333 3.83219565,8.5204375 C2.95880435,8.67733333 2.21458696,8.9423125 1.62,9.307875 C1.13443478,9.606375 0.747021739,9.97202083 0.4685,10.3947083 C0.00306521739,11.101 -0.000847826087,11.731375 8.69565218e-05,11.7969792 L8.69565218e-05,14.7233125 C8.69565218e-05,14.8646042 0.119565217,14.9791875 0.266978261,14.9791875 C0.414391304,14.9791875 0.533956522,14.8646042 0.533956522,14.7233125 L0.533956522,11.7948542 C0.533956522,11.7925833 0.533956522,11.7916042 0.533891304,11.7893958 C0.533804348,11.7840417 0.529630435,11.2447292 0.937152174,10.6420208 C1.42306522,9.9234375 2.30019565,9.40025 3.48904348,9.1155 L2.73956522,11.4033333 C2.70678261,11.5033542 2.74108696,11.6124792 2.826,11.6785625 C2.911,11.7446458 3.0293913,11.7544167 3.12482609,11.7030625 L4.67832609,10.8679375 L6.29832609,14.4141667 C6.34086957,14.50725 6.43682609,14.5673958 6.5428913,14.5673958 C6.64895652,14.5673958 6.74491304,14.50725 6.78745652,14.4141667 L8.48513043,10.6976875 L10.3552174,11.7030625 C10.4506522,11.7544167 10.5691304,11.7447292 10.6541304,11.6785625 C10.7390435,11.6124792 10.7732609,11.5034375 10.7404783,11.4033333 L9.991,9.1155 C11.1799348,9.40025 12.0570652,9.9234375 12.5428913,10.6420208 C12.950413,11.2447292 12.9462391,11.7839583 12.9461522,11.7880208 C12.9461522,11.7902917 12.946087,11.7925833 12.946087,11.7948542 L12.946087,14.7233125 C12.946087,14.8646042 13.0656522,14.9791042 13.2130652,14.9791042 C13.3604783,14.9791042 13.4800435,14.8646042 13.4800435,14.7233125 L13.4800435,11.7968958 C13.4809783,11.7312917 13.4770652,11.101 13.0116304,10.3947083 L13.0116304,10.3947083 Z" id="Fill-1" sketch:type="MSShapeGroup"></path>
                <path d="M2.67663043,7.28216667 C2.71517391,7.38745833 2.81836957,7.4533125 2.9285,7.4533125 C2.95786957,7.4533125 2.98769565,7.44866667 3.0168913,7.4388125 C3.156,7.39202083 3.22928261,7.24602083 3.18045652,7.11272917 C3.17721739,7.10385417 2.85276087,6.2133125 2.61278261,5.207375 C2.20576087,3.502125 2.36836957,2.88364583 2.50143478,2.66677083 C3.08695652,1.71283333 3.81571739,0.525645833 7.03582609,0.525645833 C8.35113043,0.525645833 9.37108696,0.9525625 10.0672609,1.79452083 C10.6400217,2.48739583 10.7981522,3.2343125 10.8108043,3.46372917 C10.8630217,4.41472917 10.8026522,5.57570833 9.95906522,6.97495833 C9.88528261,7.09735417 9.929,7.25383333 10.0566304,7.32447917 C10.1842826,7.3951875 10.3475652,7.35329167 10.4213696,7.23097917 C11.3347391,5.71591667 11.4003043,4.46283333 11.343913,3.43679167 C11.3251522,3.09522917 11.1216957,2.24602083 10.4856522,1.4768125 C10.1261957,1.042 9.68256522,0.697604167 9.16728261,0.4533125 C8.55230435,0.161791667 7.83517391,0.0140208333 7.03582609,0.0140208333 C5.51095652,0.0140208333 4.36184783,0.2669375 3.52284783,0.787208333 C2.79654348,1.23747917 2.4076087,1.81047917 2.04126087,2.40733333 C1.72869565,2.91660417 1.74567391,3.87127083 2.09332609,5.32585417 C2.34026087,6.35922917 2.66304348,7.24497917 2.67663043,7.28216667 L2.67663043,7.28216667 Z" id="Fill-2" sketch:type="MSShapeGroup"></path>
                <path d="M7.52232609,1.84677083 C7.37865217,1.81529167 7.23547826,1.90154167 7.20269565,2.03925 C6.9425,3.13160417 6.24269565,3.8126875 5.12278261,4.06341667 C4.2585,4.2569375 3.45406522,4.11491667 3.43928261,4.11222917 C3.29467391,4.08545833 3.15454348,4.17604167 3.12652174,4.314625 C3.09841304,4.453375 3.19293478,4.58766667 3.33763043,4.61460417 C3.35130435,4.617125 3.48071739,4.64047917 3.68784783,4.6580625 C3.71517391,4.85620833 3.8411087,5.65952083 4.18428261,6.47445833 C4.72273913,7.7534375 5.5383913,8.42945833 6.54297826,8.42945833 C7.11363043,8.42945833 7.62993478,8.20070833 8.07743478,7.74960417 C8.41652174,7.40789583 8.71569565,6.9369375 8.9668913,6.34979167 C9.27106522,5.63835417 9.42984783,4.93547917 9.49617391,4.58879167 C9.52378261,4.58945833 9.55163043,4.58985417 9.57982609,4.58985417 C9.62152174,4.58985417 9.66406522,4.589125 9.70702174,4.58758333 C9.85436957,4.58245833 9.96952174,4.463875 9.96417391,4.3226875 C9.95873913,4.1815 9.83552174,4.0708125 9.68767391,4.07627083 C9.01834783,4.09970833 8.44480435,3.91195833 7.98284783,3.5185625 C7.63373913,3.22129167 7.4791087,2.90985417 7.47563043,2.9026875 C7.47273913,2.89683333 7.46952174,2.89120833 7.46628261,2.88566667 C7.571,2.668625 7.65836957,2.425625 7.72326087,2.15316667 C7.75602174,2.01539583 7.6661087,1.87827083 7.52232609,1.84677083 L7.52232609,1.84677083 Z M7.60826087,3.88395833 C7.89673913,4.134125 8.34180435,4.41545833 8.96315217,4.53314583 C8.80332609,5.33789583 8.16423913,7.91775 6.54297826,7.91775 C4.84765217,7.91775 4.3271087,5.2806875 4.23030435,4.6766875 C4.52471739,4.67254167 4.8688913,4.6440625 5.22665217,4.56552083 C5.86284783,4.425875 6.62169565,4.10629167 7.15947826,3.39145833 C7.25976087,3.53191667 7.40702174,3.70933333 7.60826087,3.88395833 L7.60826087,3.88395833 Z" id="Fill-3" sketch:type="MSShapeGroup"></path>
            </g>
        </g>
    </g>
</svg>