<?xml version="1.0" encoding="UTF-8" standalone="no"?>
<svg width="15px" height="15px" viewBox="0 0 15 15" version="1.1" xmlns="http://www.w3.org/2000/svg" xmlns:xlink="http://www.w3.org/1999/xlink" xmlns:sketch="http://www.bohemiancoding.com/sketch/ns">
    <!-- Generator: Sketch 3.4 (15575) - http://www.bohemiancoding.com/sketch -->
    <title>jieji</title>
    <desc>Created with Sketch.</desc>
    <defs></defs>
    <g id="Page-1-Copy" stroke="none" stroke-width="1" fill="none" fill-rule="evenodd" sketch:type="MSPage">
        <g id="icon" sketch:type="MSArtboardGroup" transform="translate(-170.000000, -387.000000)" fill="#555555">
            <g id="jieji" sketch:type="MSLayerGroup" transform="translate(170.000000, 387.000000)">
                <path d="M14.9947703,7.9698609 C14.9947703,7.01413115 14.4112095,6.20423935 13.6118108,5.94058291 L12.3998716,2.773482 C12.1486216,2.036741 11.4962432,1.54237138 10.7743581,1.54237138 L9.33160135,1.54237138 C9.32266216,1.50002208 9.30604054,1.45886509 9.28084459,1.42161625 L8.65747297,0.497372488 C8.47741216,0.191609627 8.17185811,0.00953852948 7.83762162,0.00953852948 L7.15714865,0.00953852948 C6.82301351,0.00953852948 6.51743919,0.191609627 6.33731757,0.497372488 L5.71392568,1.42161625 C5.68881081,1.45886509 5.67210811,1.50002208 5.66325,1.54237138 L4.22041216,1.54237138 C3.49852703,1.54237138 2.84614865,2.03682932 2.59491892,2.77357032 L1.38297973,5.94058291 C0.583641892,6.20432767 0,7.01421947 0,7.9698609 L0,12.2345772 L1.3425,12.2345772 L1.3425,13.091985 C1.3425,13.7512696 1.8332027,14.2856701 2.43837162,14.2856701 L2.4384527,14.2856701 C3.04362162,14.2856701 3.53430405,13.7512696 3.53430405,13.091985 L3.53430405,12.2345772 L11.6069392,12.2345772 L11.6069392,13.091985 C11.6069392,13.7512696 12.0975405,14.2856701 12.7028108,14.2856701 C13.3080608,14.2856701 13.7986622,13.7512696 13.7986622,13.091985 L13.7986622,12.2345772 L14.9948514,12.2345772 L14.9948514,7.9698609 L14.9947703,7.9698609 Z M2.93365541,13.091985 C2.93365541,13.3894458 2.71147297,13.6314639 2.43837162,13.6314639 C2.16527027,13.6314639 1.94308784,13.3894458 1.94308784,13.091985 L1.94308784,12.2563038 L2.93365541,12.2563038 L2.93365541,13.091985 L2.93365541,13.091985 Z M13.1980743,13.091985 C13.1980743,13.3894458 12.9759122,13.6314639 12.7027297,13.6314639 C12.4296284,13.6314639 12.2074459,13.3894458 12.2074459,13.091985 L12.2074459,12.2563038 L13.1980743,12.2563038 L13.1980743,13.091985 L13.1980743,13.091985 Z M6.82735135,0.875645838 L6.84002027,0.855221903 C6.90883784,0.735327887 7.02737838,0.663744756 7.15714865,0.663744756 L7.83762162,0.663744756 C7.96741216,0.663744756 8.08593243,0.735327887 8.15466892,0.855221903 L8.16068919,0.86564363 L8.61707432,1.54237138 L6.37769595,1.54237138 L6.82735135,0.875645838 L6.82735135,0.875645838 Z M3.15162162,3.01905498 L3.15638514,3.00585118 C3.31941892,2.52181497 3.747,2.19657761 4.22041216,2.19657761 L10.774277,2.19657761 C11.2477095,2.19657761 11.6752703,2.52181497 11.8383851,3.00585118 L11.8406149,3.01249724 L12.9264122,5.84992272 L2.06827703,5.84992272 L3.15162162,3.01905498 L3.15162162,3.01905498 Z M14.3941824,11.5803709 L0.600506757,11.5803709 L0.600506757,7.9698609 C0.600506757,7.16162508 1.20417568,6.50404063 1.94618919,6.50404063 L13.0485811,6.50404063 C13.7905946,6.50404063 14.3941824,7.16162508 14.3941824,7.9698609 L14.3941824,11.5803709 L14.3941824,11.5803709 Z" id="Fill-1" sketch:type="MSShapeGroup"></path>
                <path d="M2.97766216,7.20922941 C2.37843243,7.20922941 1.89273649,7.73837492 1.89273649,8.39101347 C1.89273649,9.0436741 2.37843243,9.57281961 2.97766216,9.57281961 C3.57683108,9.57281961 4.06252703,9.0436741 4.06252703,8.39101347 C4.06252703,7.73837492 3.57683108,7.20922941 2.97766216,7.20922941 L2.97766216,7.20922941 Z M2.97766216,8.91861338 C2.71060135,8.91861338 2.49332432,8.68193862 2.49332432,8.39101347 C2.49332432,8.1001104 2.71060135,7.86343564 2.97766216,7.86343564 C3.24466216,7.86343564 3.46193919,8.1001104 3.46193919,8.39101347 C3.46193919,8.68193862 3.24466216,8.91861338 2.97766216,8.91861338 L2.97766216,8.91861338 Z" id="Fill-2" sketch:type="MSShapeGroup"></path>
                <path d="M11.9996757,7.20922941 C11.400527,7.20922941 10.91475,7.73837492 10.91475,8.39101347 C10.91475,9.0436741 11.400527,9.57281961 11.9996757,9.57281961 C12.5988446,9.57281961 13.0845405,9.0436741 13.0845405,8.39101347 C13.0846216,7.73837492 12.5988446,7.20922941 11.9996757,7.20922941 L11.9996757,7.20922941 Z M11.9996757,8.91861338 C11.7326149,8.91861338 11.5153378,8.68193862 11.5153378,8.39101347 C11.5153378,8.1001104 11.7326149,7.86343564 11.9996757,7.86343564 C12.2667568,7.86343564 12.4840338,8.1001104 12.4840338,8.39101347 C12.4840338,8.68193862 12.2667568,8.91861338 11.9996757,8.91861338 L11.9996757,8.91861338 Z" id="Fill-3" sketch:type="MSShapeGroup"></path>
                <path d="M14.9947703,7.9698609 C14.9947703,7.01413115 14.4112095,6.20423935 13.6118108,5.94058291 L12.3998716,2.773482 C12.1486216,2.036741 11.4962432,1.54237138 10.7743581,1.54237138 L9.33160135,1.54237138 C9.32266216,1.50002208 9.30604054,1.45886509 9.28084459,1.42161625 L8.65747297,0.497372488 C8.47741216,0.191609627 8.17185811,0.00953852948 7.83762162,0.00953852948 L7.15714865,0.00953852948 C6.82301351,0.00953852948 6.51743919,0.191609627 6.33731757,0.497372488 L5.71392568,1.42161625 C5.68881081,1.45886509 5.67210811,1.50002208 5.66325,1.54237138 L4.22041216,1.54237138 C3.49852703,1.54237138 2.84614865,2.03682932 2.59491892,2.77357032 L1.38297973,5.94058291 C0.583641892,6.20432767 0,7.01421947 0,7.9698609 L0,12.2345772 L1.3425,12.2345772 L1.3425,13.091985 C1.3425,13.7512696 1.8332027,14.2856701 2.43837162,14.2856701 L2.4384527,14.2856701 C3.04362162,14.2856701 3.53430405,13.7512696 3.53430405,13.091985 L3.53430405,12.2345772 L11.6069392,12.2345772 L11.6069392,13.091985 C11.6069392,13.7512696 12.0975405,14.2856701 12.7028108,14.2856701 C13.3080608,14.2856701 13.7986622,13.7512696 13.7986622,13.091985 L13.7986622,12.2345772 L14.9948514,12.2345772 L14.9948514,7.9698609 L14.9947703,7.9698609 Z M2.93365541,13.091985 C2.93365541,13.3894458 2.71147297,13.6314639 2.43837162,13.6314639 C2.16527027,13.6314639 1.94308784,13.3894458 1.94308784,13.091985 L1.94308784,12.2563038 L2.93365541,12.2563038 L2.93365541,13.091985 L2.93365541,13.091985 Z M13.1980743,13.091985 C13.1980743,13.3894458 12.9759122,13.6314639 12.7027297,13.6314639 C12.4296284,13.6314639 12.2074459,13.3894458 12.2074459,13.091985 L12.2074459,12.2563038 L13.1980743,12.2563038 L13.1980743,13.091985 L13.1980743,13.091985 Z M6.82735135,0.875645838 L6.84002027,0.855221903 C6.90883784,0.735327887 7.02737838,0.663744756 7.15714865,0.663744756 L7.83762162,0.663744756 C7.96741216,0.663744756 8.08593243,0.735327887 8.15466892,0.855221903 L8.16068919,0.86564363 L8.61707432,1.54237138 L6.37769595,1.54237138 L6.82735135,0.875645838 L6.82735135,0.875645838 Z M3.15162162,3.01905498 L3.15638514,3.00585118 C3.31941892,2.52181497 3.747,2.19657761 4.22041216,2.19657761 L10.774277,2.19657761 C11.2477095,2.19657761 11.6752703,2.52181497 11.8383851,3.00585118 L11.8406149,3.01249724 L12.9264122,5.84992272 L2.06827703,5.84992272 L3.15162162,3.01905498 L3.15162162,3.01905498 Z M14.3941824,11.5803709 L0.600506757,11.5803709 L0.600506757,7.9698609 C0.600506757,7.16162508 1.20417568,6.50404063 1.94618919,6.50404063 L13.0485811,6.50404063 C13.7905946,6.50404063 14.3941824,7.16162508 14.3941824,7.9698609 L14.3941824,11.5803709 L14.3941824,11.5803709 Z" id="Fill-1" sketch:type="MSShapeGroup"></path>
                <path d="M2.97766216,7.20922941 C2.37843243,7.20922941 1.89273649,7.73837492 1.89273649,8.39101347 C1.89273649,9.0436741 2.37843243,9.57281961 2.97766216,9.57281961 C3.57683108,9.57281961 4.06252703,9.0436741 4.06252703,8.39101347 C4.06252703,7.73837492 3.57683108,7.20922941 2.97766216,7.20922941 L2.97766216,7.20922941 Z M2.97766216,8.91861338 C2.71060135,8.91861338 2.49332432,8.68193862 2.49332432,8.39101347 C2.49332432,8.1001104 2.71060135,7.86343564 2.97766216,7.86343564 C3.24466216,7.86343564 3.46193919,8.1001104 3.46193919,8.39101347 C3.46193919,8.68193862 3.24466216,8.91861338 2.97766216,8.91861338 L2.97766216,8.91861338 Z" id="Fill-2" sketch:type="MSShapeGroup"></path>
                <path d="M11.9996757,7.20922941 C11.400527,7.20922941 10.91475,7.73837492 10.91475,8.39101347 C10.91475,9.0436741 11.400527,9.57281961 11.9996757,9.57281961 C12.5988446,9.57281961 13.0845405,9.0436741 13.0845405,8.39101347 C13.0846216,7.73837492 12.5988446,7.20922941 11.9996757,7.20922941 L11.9996757,7.20922941 Z M11.9996757,8.91861338 C11.7326149,8.91861338 11.5153378,8.68193862 11.5153378,8.39101347 C11.5153378,8.1001104 11.7326149,7.86343564 11.9996757,7.86343564 C12.2667568,7.86343564 12.4840338,8.1001104 12.4840338,8.39101347 C12.4840338,8.68193862 12.2667568,8.91861338 11.9996757,8.91861338 L11.9996757,8.91861338 Z" id="Fill-3" sketch:type="MSShapeGroup"></path>
            </g>
        </g>
    </g>
</svg>