<?xml version="1.0" encoding="UTF-8" standalone="no"?>
<svg width="13px" height="17px" viewBox="0 0 13 17" version="1.1" xmlns="http://www.w3.org/2000/svg" xmlns:xlink="http://www.w3.org/1999/xlink" xmlns:sketch="http://www.bohemiancoding.com/sketch/ns">
    <!-- Generator: Sketch 3.4 (15575) - http://www.bohemiancoding.com/sketch -->
    <title>jiuba</title>
    <desc>Created with Sketch.</desc>
    <defs></defs>
    <g id="Page-1-Copy" stroke="none" stroke-width="1" fill="none" fill-rule="evenodd" sketch:type="MSPage">
        <g id="icon" sketch:type="MSArtboardGroup" transform="translate(-171.000000, -344.000000)">
            <g id="jiuba" sketch:type="MSLayerGroup" transform="translate(172.000000, 344.000000)">
                <path d="M10.6973053,3.90074286 L0.567410526,3.94817143 C0.357094737,3.94874286 0.240252632,4.16874286 0.370989474,4.31845714 L5.06172632,9.6796 L5.06172632,15.4858857 C5.06172632,15.6121714 5.17477895,15.7144571 5.31435789,15.7144571 L6.07225263,15.7144571 C6.21183158,15.7144571 6.32488421,15.6121714 6.32488421,15.4858857 L6.32488421,9.63274286 L10.8987789,4.26874286 C11.0269895,4.11845714 10.9076211,3.8996 10.6973053,3.90074286 L10.6973053,3.90074286 Z" id="Stroke-1" stroke="#555555" stroke-linecap="round" sketch:type="MSShapeGroup"></path>
                <path d="M8.47585263,16 L2.79164211,16 C2.61732632,16 2.47585263,15.872 2.47585263,15.7142857 L2.47585263,15.7142857 C2.47585263,15.5565714 2.61732632,15.4285714 2.79164211,15.4285714 L8.47585263,15.4285714 C8.65016842,15.4285714 8.79164211,15.5565714 8.79164211,15.7142857 L8.79164211,15.7142857 C8.79164211,15.872 8.65016842,16 8.47585263,16" id="Fill-3" fill="#555555" sketch:type="MSShapeGroup"></path>
                <path d="M11.6307789,0.735371429 L8.01562105,4.00622857 C7.89246316,4.11765714 7.69225263,4.11765714 7.56909474,4.00622857 L7.56909474,4.00622857 C7.44593684,3.89422857 7.44593684,3.71365714 7.56909474,3.60222857 L11.1842526,0.331371429 C11.3074105,0.219942857 11.5076211,0.219942857 11.6307789,0.331371429 L11.6307789,0.331371429 C11.7539368,0.4428 11.7539368,0.623942857 11.6307789,0.735371429" id="Fill-5" fill="#555555" sketch:type="MSShapeGroup"></path>
                <path d="M10.8250737,1.87497143 C10.8250737,2.34811429 10.4006526,2.73211429 9.87770526,2.73211429 C9.35475789,2.73211429 8.93033684,2.34811429 8.93033684,1.87497143 C8.93033684,1.40182857 9.35475789,1.01782857 9.87770526,1.01782857 C10.4006526,1.01782857 10.8250737,1.40182857 10.8250737,1.87497143" id="Fill-7" fill="#555555" sketch:type="MSShapeGroup"></path>
            </g>
        </g>
    </g>
</svg>