<?xml version="1.0" encoding="UTF-8" standalone="no"?>
<svg width="19px" height="14px" viewBox="0 0 19 14" version="1.1" xmlns="http://www.w3.org/2000/svg" xmlns:xlink="http://www.w3.org/1999/xlink" xmlns:sketch="http://www.bohemiancoding.com/sketch/ns">
    <!-- Generator: Sketch 3.4 (15575) - http://www.bohemiancoding.com/sketch -->
    <title>kongtiao</title>
    <desc>Created with Sketch.</desc>
    <defs></defs>
    <g id="Page-1-Copy" stroke="none" stroke-width="1" fill="none" fill-rule="evenodd" sketch:type="MSPage">
        <g id="icon" sketch:type="MSArtboardGroup" transform="translate(-114.000000, -135.000000)">
            <g id="kongtiao" sketch:type="MSLayerGroup" transform="translate(115.000000, 136.000000)">
                <path d="M16.521875,11.6470588 L0.478125,11.6470588 C0.36071875,11.6470588 0.265625,11.5207059 0.265625,11.3647059 L0.265625,0.635294118 C0.265625,0.479294118 0.36071875,0.352941176 0.478125,0.352941176 L16.521875,0.352941176 C16.6392812,0.352941176 16.734375,0.479294118 16.734375,0.635294118 L16.734375,11.3647059 C16.734375,11.5207059 16.6392812,11.6470588 16.521875,11.6470588 L16.521875,11.6470588 Z" id="Stroke-1" stroke="#555555" stroke-linecap="round" sketch:type="MSShapeGroup"></path>
                <path d="M16.6345,8.47270588 L0.25446875,8.47270588 L0.25446875,7.76682353 L16.6345,7.76682353 L16.6345,8.47270588 Z" id="Fill-3" fill="#555555" sketch:type="MSShapeGroup"></path>
                <path d="M16.6345,9.88447059 L0.25446875,9.88447059 L0.25446875,9.17858824 L16.6345,9.17858824 L16.6345,9.88447059 Z" id="Fill-5" fill="#555555" sketch:type="MSShapeGroup"></path>
                <path d="M16.6345,11.2962353 L0.25446875,11.2962353 L0.25446875,10.5903529 L16.6345,10.5903529 L16.6345,11.2962353 Z" id="Fill-6" fill="#555555" sketch:type="MSShapeGroup"></path>
                <path d="M8.2766625,6.47068235 L1.7954125,6.47068235 C1.67800625,6.47068235 1.5829125,6.34432941 1.5829125,6.18832941 L1.5829125,2.51774118 C1.5829125,2.36174118 1.67800625,2.23538824 1.7954125,2.23538824 L8.2766625,2.23538824 C8.39406875,2.23538824 8.4891625,2.36174118 8.4891625,2.51774118 L8.4891625,6.18832941 C8.4891625,6.34432941 8.39406875,6.47068235 8.2766625,6.47068235 L8.2766625,6.47068235 Z" id="Stroke-7" stroke="#555555" sketch:type="MSShapeGroup"></path>
                <path d="M15.322525,4.3848 L14.153775,4.3848 C14.0363688,4.3848 13.941275,4.25844706 13.941275,4.10244706 L13.941275,2.54950588 C13.941275,2.39350588 14.0363688,2.26715294 14.153775,2.26715294 L15.322525,2.26715294 C15.4399313,2.26715294 15.535025,2.39350588 15.535025,2.54950588 L15.535025,4.10244706 C15.535025,4.25844706 15.4399313,4.3848 15.322525,4.3848 L15.322525,4.3848 Z" id="Stroke-9" stroke="#555555" sketch:type="MSShapeGroup"></path>
            </g>
        </g>
    </g>
</svg>