<?xml version="1.0" encoding="UTF-8" standalone="no"?>
<svg width="16px" height="15px" viewBox="0 0 16 15" version="1.1" xmlns="http://www.w3.org/2000/svg" xmlns:xlink="http://www.w3.org/1999/xlink" xmlns:sketch="http://www.bohemiancoding.com/sketch/ns">
    <!-- Generator: Sketch 3.4 (15575) - http://www.bohemiancoding.com/sketch -->
    <title>lanqiu</title>
    <desc>Created with Sketch.</desc>
    <defs></defs>
    <g id="Page-1-Copy" stroke="none" stroke-width="1" fill="none" fill-rule="evenodd" sketch:type="MSPage">
        <g id="icon" sketch:type="MSArtboardGroup" transform="translate(-170.000000, -259.000000)" fill="#555555">
            <g id="lanqiu" sketch:type="MSLayerGroup" transform="translate(170.000000, 259.000000)">
                <path d="M7.5548552,14.9754833 C3.55001091,15.054732 0.0101666211,11.7637734 1.95622687e-05,7.5097838 C-0.00940085296,3.38141592 3.38477735,-0.0176255285 7.53043479,6.87720316e-05 C11.5728829,0.0170894974 15.0076234,3.24206359 15.0201839,7.4848097 C15.0323552,11.7877372 11.4836874,15.0060532 7.5548552,14.9754833 L7.5548552,14.9754833 Z M10.2365853,6.86618276 C10.1440421,6.90330711 10.0974071,6.92001696 10.052485,6.94087188 C9.12868738,7.36569053 8.17029638,7.46082007 7.17552129,7.25628639 C6.10582406,7.03607913 5.15729465,6.53374753 4.2198725,6.00436929 C3.61854897,5.66465426 3.03188807,5.29395478 2.41037423,4.99553509 C1.80009742,4.70175271 1.24712164,4.99278898 1.09089326,5.64693406 C0.991057625,6.06651955 0.893920946,6.49234856 0.854292919,6.92071644 C0.723834441,8.35258173 1.03037423,9.69447292 1.78966489,10.9189548 C1.89193998,11.083618 2.10492441,11.2528149 2.28759742,11.2812605 C2.77299534,11.3562346 3.28379984,11.4417527 3.7598552,11.3663641 C4.68336731,11.2221413 5.60545209,11.0186439 6.50119603,10.7514677 C8.00649015,10.3026594 9.37917181,9.55522421 10.6987566,8.71315167 C10.7668794,8.66931748 10.8428137,8.53392888 10.8219227,8.47278898 C10.6412739,7.93918794 10.438722,7.41193406 10.2365853,6.86618276 L10.2365853,6.86618276 Z M10.0584798,6.52574235 C9.44181887,5.14014649 8.67910261,3.87354027 7.69193133,2.74499105 C7.19955243,2.18151955 6.6731251,1.65740038 5.99036558,1.32141592 C5.73702648,1.19605323 5.48298669,1.11721903 5.18861818,1.2328667 C4.13008012,1.6494211 3.21629984,2.27118276 2.46684482,3.12468017 C2.08476005,3.56022421 1.73887769,4.02504287 1.5523379,4.49540556 C1.92123929,4.56483561 2.29732925,4.57869572 2.62548669,4.71076825 C3.06251091,4.88654546 3.4690161,5.14255582 3.87611818,5.38462836 C5.00563375,6.05649364 6.1365507,6.72620867 7.4647514,6.92973198 C8.35063375,7.0659496 9.21565105,7.0048097 10.0584798,6.52574235 L10.0584798,6.52574235 Z M10.9902964,8.96675271 C10.8741372,9.03030193 10.8086355,9.06087188 10.7488431,9.0994211 C9.64294344,9.81569053 8.47167181,10.4013382 7.24203513,10.8730221 C6.22696593,11.2628408 5.19489846,11.5991102 4.10716489,11.6921154 C3.53226005,11.7414936 2.94977735,11.7001206 2.36129984,11.7001206 C2.37702648,11.7429185 2.38260607,11.7751983 2.39931887,11.7991879 C2.42851437,11.8401724 2.46471679,11.8787216 2.49946593,11.9165714 C3.89763202,13.4235144 5.61801264,14.1779444 7.68279638,14.1546802 C7.93927562,14.1508201 8.12994171,14.0785662 8.26841922,13.8833589 C8.49469084,13.5637734 8.70767527,13.2337734 8.92167181,12.9058978 C9.55395555,11.9349911 10.2018102,10.9765455 11.1221822,10.2419341 C11.1816891,10.1936698 11.2477877,10.0901465 11.2352272,10.0269082 C11.1698293,9.68576825 11.0815421,9.34815167 10.9902964,8.96675271 L10.9902964,8.96675271 Z M6.21925832,0.932115404 C8.23792614,2.29587188 9.33780503,4.29462836 10.3935144,6.33854027 C11.2210317,5.7640325 11.5533414,4.99877344 11.4830645,4.0490325 C11.4218448,3.22677862 11.1093102,2.48693406 10.7014815,1.78449882 C10.6346822,1.66854027 10.5219486,1.55701178 10.4032462,1.49548328 C9.48611818,1.01683043 8.49399015,0.828592088 7.47134309,0.817063591 C7.05378254,0.811882244 6.6365334,0.891027321 6.21925832,0.932115404 L6.21925832,0.932115404 Z M11.1816891,8.37765945 C11.5825109,8.05354027 11.9584192,7.77807395 12.2993448,7.46607913 C12.8066978,7.00240038 13.4355299,6.49548328 13.7027531,5.84315167 C14.0270438,5.05118276 13.2493016,4.09698587 12.8282895,3.48110504 C12.426767,2.8936439 11.8992237,2.41851437 11.2512393,1.97698587 C12.0049504,3.74198587 12.304613,5.38291851 10.53726,6.68180452 C10.7488431,7.23887706 10.9568448,7.78636411 11.1816891,8.37765945 L11.1816891,8.37765945 Z M14.0009884,6.0570895 C13.3217843,7.12009468 12.3978569,7.92390297 11.4005645,8.65719312 C11.3480386,8.69574235 11.3208673,8.82082007 11.3369054,8.89338483 C11.4165767,9.2536439 11.514414,9.60965426 11.5787739,9.86154546 C11.5919573,9.91294442 13.0418967,10.1835662 13.2555818,10.7938771 C13.7998639,10.4298615 14.025305,9.13898069 14.1028742,8.53048328 C14.3256943,6.79250401 14.0663604,6.10374753 14.0009884,6.0570895 L14.0009884,6.0570895 Z M11.391222,10.6243693 C11.3500628,10.6139548 9.44213029,12.7916232 8.64705243,14.0188512 C8.71457839,14.0244211 8.75360953,14.035561 8.78908531,14.0282812 C9.51663721,13.8966232 10.192805,13.6221672 10.8448379,13.2803278 C11.1545178,13.1180999 11.3876926,12.9051724 11.3898206,12.5276076 C11.3932722,11.8935921 11.391222,11.2593952 11.391222,10.6243693 L11.391222,10.6243693 Z M11.7291113,12.5608978 C11.7641718,12.5765973 11.7989469,12.5925817 11.8338258,12.6085662 C12.0993362,12.3271413 12.3692843,12.0503537 12.6292929,11.763048 C13.0398725,11.3093952 13.0418967,11.1210532 12.6550628,10.6452242 C12.6097514,10.5889548 12.5638171,10.5312605 12.5088777,10.485017 C12.2601061,10.2749392 11.9889382,10.210276 11.728696,10.337789 C11.7291113,11.103333 11.7291113,11.8321672 11.7291113,12.5608978 L11.7291113,12.5608978 Z" sketch:type="MSShapeGroup"></path>
                <path d="M7.5548552,14.9754833 C3.55001091,15.054732 0.0101666211,11.7637734 1.95622687e-05,7.5097838 C-0.00940085296,3.38141592 3.38477735,-0.0176255285 7.53043479,6.87720316e-05 C11.5728829,0.0170894974 15.0076234,3.24206359 15.0201839,7.4848097 C15.0323552,11.7877372 11.4836874,15.0060532 7.5548552,14.9754833 L7.5548552,14.9754833 Z M10.2365853,6.86618276 C10.1440421,6.90330711 10.0974071,6.92001696 10.052485,6.94087188 C9.12868738,7.36569053 8.17029638,7.46082007 7.17552129,7.25628639 C6.10582406,7.03607913 5.15729465,6.53374753 4.2198725,6.00436929 C3.61854897,5.66465426 3.03188807,5.29395478 2.41037423,4.99553509 C1.80009742,4.70175271 1.24712164,4.99278898 1.09089326,5.64693406 C0.991057625,6.06651955 0.893920946,6.49234856 0.854292919,6.92071644 C0.723834441,8.35258173 1.03037423,9.69447292 1.78966489,10.9189548 C1.89193998,11.083618 2.10492441,11.2528149 2.28759742,11.2812605 C2.77299534,11.3562346 3.28379984,11.4417527 3.7598552,11.3663641 C4.68336731,11.2221413 5.60545209,11.0186439 6.50119603,10.7514677 C8.00649015,10.3026594 9.37917181,9.55522421 10.6987566,8.71315167 C10.7668794,8.66931748 10.8428137,8.53392888 10.8219227,8.47278898 C10.6412739,7.93918794 10.438722,7.41193406 10.2365853,6.86618276 L10.2365853,6.86618276 Z M10.0584798,6.52574235 C9.44181887,5.14014649 8.67910261,3.87354027 7.69193133,2.74499105 C7.19955243,2.18151955 6.6731251,1.65740038 5.99036558,1.32141592 C5.73702648,1.19605323 5.48298669,1.11721903 5.18861818,1.2328667 C4.13008012,1.6494211 3.21629984,2.27118276 2.46684482,3.12468017 C2.08476005,3.56022421 1.73887769,4.02504287 1.5523379,4.49540556 C1.92123929,4.56483561 2.29732925,4.57869572 2.62548669,4.71076825 C3.06251091,4.88654546 3.4690161,5.14255582 3.87611818,5.38462836 C5.00563375,6.05649364 6.1365507,6.72620867 7.4647514,6.92973198 C8.35063375,7.0659496 9.21565105,7.0048097 10.0584798,6.52574235 L10.0584798,6.52574235 Z M10.9902964,8.96675271 C10.8741372,9.03030193 10.8086355,9.06087188 10.7488431,9.0994211 C9.64294344,9.81569053 8.47167181,10.4013382 7.24203513,10.8730221 C6.22696593,11.2628408 5.19489846,11.5991102 4.10716489,11.6921154 C3.53226005,11.7414936 2.94977735,11.7001206 2.36129984,11.7001206 C2.37702648,11.7429185 2.38260607,11.7751983 2.39931887,11.7991879 C2.42851437,11.8401724 2.46471679,11.8787216 2.49946593,11.9165714 C3.89763202,13.4235144 5.61801264,14.1779444 7.68279638,14.1546802 C7.93927562,14.1508201 8.12994171,14.0785662 8.26841922,13.8833589 C8.49469084,13.5637734 8.70767527,13.2337734 8.92167181,12.9058978 C9.55395555,11.9349911 10.2018102,10.9765455 11.1221822,10.2419341 C11.1816891,10.1936698 11.2477877,10.0901465 11.2352272,10.0269082 C11.1698293,9.68576825 11.0815421,9.34815167 10.9902964,8.96675271 L10.9902964,8.96675271 Z M6.21925832,0.932115404 C8.23792614,2.29587188 9.33780503,4.29462836 10.3935144,6.33854027 C11.2210317,5.7640325 11.5533414,4.99877344 11.4830645,4.0490325 C11.4218448,3.22677862 11.1093102,2.48693406 10.7014815,1.78449882 C10.6346822,1.66854027 10.5219486,1.55701178 10.4032462,1.49548328 C9.48611818,1.01683043 8.49399015,0.828592088 7.47134309,0.817063591 C7.05378254,0.811882244 6.6365334,0.891027321 6.21925832,0.932115404 L6.21925832,0.932115404 Z M11.1816891,8.37765945 C11.5825109,8.05354027 11.9584192,7.77807395 12.2993448,7.46607913 C12.8066978,7.00240038 13.4355299,6.49548328 13.7027531,5.84315167 C14.0270438,5.05118276 13.2493016,4.09698587 12.8282895,3.48110504 C12.426767,2.8936439 11.8992237,2.41851437 11.2512393,1.97698587 C12.0049504,3.74198587 12.304613,5.38291851 10.53726,6.68180452 C10.7488431,7.23887706 10.9568448,7.78636411 11.1816891,8.37765945 L11.1816891,8.37765945 Z M14.0009884,6.0570895 C13.3217843,7.12009468 12.3978569,7.92390297 11.4005645,8.65719312 C11.3480386,8.69574235 11.3208673,8.82082007 11.3369054,8.89338483 C11.4165767,9.2536439 11.514414,9.60965426 11.5787739,9.86154546 C11.5919573,9.91294442 13.0418967,10.1835662 13.2555818,10.7938771 C13.7998639,10.4298615 14.025305,9.13898069 14.1028742,8.53048328 C14.3256943,6.79250401 14.0663604,6.10374753 14.0009884,6.0570895 L14.0009884,6.0570895 Z M11.391222,10.6243693 C11.3500628,10.6139548 9.44213029,12.7916232 8.64705243,14.0188512 C8.71457839,14.0244211 8.75360953,14.035561 8.78908531,14.0282812 C9.51663721,13.8966232 10.192805,13.6221672 10.8448379,13.2803278 C11.1545178,13.1180999 11.3876926,12.9051724 11.3898206,12.5276076 C11.3932722,11.8935921 11.391222,11.2593952 11.391222,10.6243693 L11.391222,10.6243693 Z M11.7291113,12.5608978 C11.7641718,12.5765973 11.7989469,12.5925817 11.8338258,12.6085662 C12.0993362,12.3271413 12.3692843,12.0503537 12.6292929,11.763048 C13.0398725,11.3093952 13.0418967,11.1210532 12.6550628,10.6452242 C12.6097514,10.5889548 12.5638171,10.5312605 12.5088777,10.485017 C12.2601061,10.2749392 11.9889382,10.210276 11.728696,10.337789 C11.7291113,11.103333 11.7291113,11.8321672 11.7291113,12.5608978 L11.7291113,12.5608978 Z" sketch:type="MSShapeGroup"></path>
            </g>
        </g>
    </g>
</svg>