<?xml version="1.0" encoding="UTF-8" standalone="no"?>
<svg width="13px" height="18px" viewBox="0 0 13 18" version="1.1" xmlns="http://www.w3.org/2000/svg" xmlns:xlink="http://www.w3.org/1999/xlink" xmlns:sketch="http://www.bohemiancoding.com/sketch/ns">
    <!-- Generator: Sketch 3.4 (15575) - http://www.bohemiancoding.com/sketch -->
    <title>miehuoqi</title>
    <desc>Created with Sketch.</desc>
    <defs></defs>
    <g id="Page-1-Copy" stroke="none" stroke-width="1" fill="none" fill-rule="evenodd" sketch:type="MSPage">
        <g id="icon" sketch:type="MSArtboardGroup" transform="translate(-117.000000, -298.000000)">
            <g id="miehuoqi" sketch:type="MSLayerGroup" transform="translate(118.000000, 299.000000)">
                <path d="M11.1318947,6.02 L4.18578947,6.02 C3.97610526,6.02 3.85736842,5.8168 3.98557895,5.67653333 L6.24852632,3.19973333 C6.29652632,3.14746667 6.37042105,3.11653333 6.44873684,3.11653333 L8.48873684,3.11653333 C8.56073684,3.11653333 8.62894737,3.14213333 8.67631579,3.18693333 L11.3194737,5.66373333 C11.466,5.80133333 11.3504211,6.02 11.1318947,6.02 L11.1318947,6.02 Z" id="Stroke-1" stroke="#555555" sketch:type="MSShapeGroup"></path>
                <path d="M10.5928421,5.09333333 L4.72421053,5.09333333 L4.72421053,4.87093333 L10.5928421,4.87093333 L10.5928421,5.09333333 Z" id="Fill-3" fill="#555555" sketch:type="MSShapeGroup"></path>
                <path d="M11.3216842,14.7845333 L3.86905263,14.7845333 L3.86905263,14.5621333 L11.3216842,14.5621333 L11.3216842,14.7845333 Z" id="Fill-5" fill="#555555" sketch:type="MSShapeGroup"></path>
                <path d="M11.1324,15.7333333 L4.18503158,15.7333333 C4.04545263,15.7333333 3.9324,15.6378667 3.9324,15.52 L3.9324,6.152 L11.3850316,6.152 L11.3850316,15.52 C11.3850316,15.6378667 11.2719789,15.7333333 11.1324,15.7333333 L11.1324,15.7333333 Z" id="Stroke-6" stroke="#555555" sketch:type="MSShapeGroup"></path>
                <path d="M8.27715789,3.15445333 L6.63757895,3.15445333 C6.498,3.15445333 6.38494737,3.05898667 6.38494737,2.94112 L6.38494737,0.70112 C6.38494737,0.583253333 6.498,0.487786667 6.63757895,0.487786667 L8.27715789,0.487786667 C8.41673684,0.487786667 8.52978947,0.583253333 8.52978947,0.70112 L8.52978947,2.94112 C8.52978947,3.05898667 8.41673684,3.15445333 8.27715789,3.15445333 L8.27715789,3.15445333 Z" id="Stroke-7" stroke="#555555" stroke-linecap="round" sketch:type="MSShapeGroup"></path>
                <path d="M9.91395789,1.55776 L8.6508,1.55776 C8.47648421,1.55776 8.33501053,1.43829333 8.33501053,1.29109333 C8.33501053,1.14389333 8.47648421,1.02442667 8.6508,1.02442667 L9.91395789,1.02442667 C10.0882737,1.02442667 10.2297474,1.14389333 10.2297474,1.29109333 C10.2297474,1.43829333 10.0882737,1.55776 9.91395789,1.55776" id="Fill-8" fill="#555555" sketch:type="MSShapeGroup"></path>
                <path d="M9.50570526,2.38682667 L8.61265263,1.63269333 C8.48949474,1.52869333 8.48949474,1.35962667 8.61265263,1.25562667 L8.61265263,1.25562667 C8.73581053,1.15109333 8.93602105,1.15109333 9.05917895,1.25562667 L9.95223158,2.00976 C10.0753895,2.11376 10.0753895,2.28282667 9.95223158,2.38682667 L9.95223158,2.38682667 C9.82907368,2.49082667 9.62886316,2.49082667 9.50570526,2.38682667" id="Fill-9" fill="#555555" sketch:type="MSShapeGroup"></path>
                <path d="M6.38501053,1.55776 C6.38501053,1.55776 -0.891410526,-1.17557333 0.490484211,11.15776" id="Stroke-10" stroke="#555555" stroke-linecap="round" sketch:type="MSShapeGroup"></path>
                <path d="M0.842652632,13.3566933 L0.842652632,13.3566933 C0.670863158,13.37856 0.509178947,13.27776 0.483284211,13.1326933 L0.359494737,12.3444267 C0.3336,12.19936 0.452968421,12.0628267 0.624757895,12.04096 L0.624757895,12.04096 C0.796547368,12.0190933 0.958231579,12.1204267 0.984126316,12.26496 L1.10791579,13.0532267 C1.13381053,13.1982933 1.01444211,13.3348267 0.842652632,13.3566933" id="Fill-11" fill="#555555" sketch:type="MSShapeGroup"></path>
            </g>
        </g>
    </g>
</svg>