<?xml version="1.0" encoding="UTF-8" standalone="no"?>
<svg width="16px" height="15px" viewBox="0 0 16 15" version="1.1" xmlns="http://www.w3.org/2000/svg" xmlns:xlink="http://www.w3.org/1999/xlink" xmlns:sketch="http://www.bohemiancoding.com/sketch/ns">
    <!-- Generator: Sketch 3.4 (15575) - http://www.bohemiancoding.com/sketch -->
    <title>nuanqi</title>
    <desc>Created with Sketch.</desc>
    <defs></defs>
    <g id="Page-1-Copy" stroke="none" stroke-width="1" fill="none" fill-rule="evenodd" sketch:type="MSPage">
        <g id="icon" sketch:type="MSArtboardGroup" transform="translate(-170.000000, -134.000000)">
            <g id="nuanqi" sketch:type="MSLayerGroup" transform="translate(170.000000, 135.000000)">
                <path d="M15.5,1.754948 L14.547,1.754948 C14.4865,1.754948 14.4375,1.805908 14.4375,1.868828 L14.4375,2.681068 C14.4375,2.743988 14.4865,2.794948 14.547,2.794948 L15.5,2.794948 C15.776,2.794948 16,2.561988 16,2.274948 C16,1.987908 15.776,1.754948 15.5,1.754948" id="Fill-1" fill="#555555" sketch:type="MSShapeGroup"></path>
                <path d="M1,0.827736 C1,0.540696 0.776,0.307736 0.5,0.307736 C0.224,0.307736 0,0.540696 0,0.827736 L0,2.161016 C0,2.510976 0.273,2.794896 0.6095,2.794896 L2.282,2.794896 C2.3425,2.794896 2.3915,2.743936 2.3915,2.681016 L2.3915,1.868776 C2.3915,1.805856 2.3425,1.754896 2.282,1.754896 L1.1095,1.754896 C1.049,1.754896 1,1.703936 1,1.641016 L1,0.827736 Z" id="Fill-3" fill="#555555" sketch:type="MSShapeGroup"></path>
                <path d="M2.3437,10.269948 L0.2502,10.269948 C0.1117,10.269948 0.0002,10.386428 0.0002,10.529948 C0.0002,10.673468 0.1117,10.789948 0.2502,10.789948 L2.3437,10.789948 L2.3437,10.269948 Z" id="Fill-5" fill="#555555" sketch:type="MSShapeGroup"></path>
                <path d="M15.75,10.269948 L14.229,10.269948 L14.229,10.789948 L15.75,10.789948 C15.888,10.789948 16,10.673468 16,10.529948 C16,10.386428 15.888,10.269948 15.75,10.269948" id="Fill-7" fill="#555555" sketch:type="MSShapeGroup"></path>
                <path d="M3.8437,12.74 L3.8437,12.74 C3.0152,12.74 2.3437,12.04164 2.3437,11.18 L2.3437,1.82 C2.3437,0.95836 3.0152,0.26 3.8437,0.26 L3.8437,0.26 C4.6722,0.26 5.3437,0.95836 5.3437,1.82 L5.3437,11.18 C5.3437,12.04164 4.6722,12.74 3.8437,12.74 L3.8437,12.74 Z" id="Stroke-9" stroke="#555555" sketch:type="MSShapeGroup"></path>
                <path d="M6.8437,12.74 L6.8437,12.74 C6.0152,12.74 5.3437,12.04164 5.3437,11.18 L5.3437,1.82 C5.3437,0.95836 6.0152,0.26 6.8437,0.26 L6.8437,0.26 C7.6722,0.26 8.3437,0.95836 8.3437,1.82 L8.3437,11.18 C8.3437,12.04164 7.6722,12.74 6.8437,12.74 L6.8437,12.74 Z" id="Stroke-11" stroke="#555555" sketch:type="MSShapeGroup"></path>
                <path d="M9.8437,12.74 L9.8437,12.74 C9.0152,12.74 8.3437,12.04164 8.3437,11.18 L8.3437,1.82 C8.3437,0.95836 9.0152,0.26 9.8437,0.26 L9.8437,0.26 C10.6722,0.26 11.3437,0.95836 11.3437,1.82 L11.3437,11.18 C11.3437,12.04164 10.6722,12.74 9.8437,12.74 L9.8437,12.74 Z" id="Stroke-13" stroke="#555555" sketch:type="MSShapeGroup"></path>
                <path d="M12.84365,12.74 L12.84365,12.74 C12.01515,12.74 11.34365,12.04164 11.34365,11.18 L11.34365,1.82 C11.34365,0.95836 12.01515,0.26 12.84365,0.26 L12.84365,0.26 C13.67215,0.26 14.34365,0.95836 14.34365,1.82 L14.34365,11.18 C14.34365,12.04164 13.67215,12.74 12.84365,12.74 L12.84365,12.74 Z" id="Stroke-15" stroke="#555555" sketch:type="MSShapeGroup"></path>
            </g>
        </g>
    </g>
</svg>