<?xml version="1.0" encoding="UTF-8" standalone="no"?>
<svg width="14px" height="18px" viewBox="0 0 14 18" version="1.1" xmlns="http://www.w3.org/2000/svg" xmlns:xlink="http://www.w3.org/1999/xlink" xmlns:sketch="http://www.bohemiancoding.com/sketch/ns">
    <!-- Generator: Sketch 3.4 (15575) - http://www.bohemiancoding.com/sketch -->
    <title>qipai</title>
    <desc>Created with Sketch.</desc>
    <defs></defs>
    <g id="Page-1-Copy" stroke="none" stroke-width="1" fill="none" fill-rule="evenodd" sketch:type="MSPage">
        <g id="icon" sketch:type="MSArtboardGroup" transform="translate(-230.000000, -297.000000)">
            <g id="qipai" sketch:type="MSLayerGroup" transform="translate(231.000000, 298.000000)">
                <path d="M8.4,13.6679724 L0.469565217,13.6679724 C0.35426087,13.6679724 0.260869565,13.5692138 0.260869565,13.4472828 L0.260869565,0.647282759 C0.260869565,0.525351724 0.35426087,0.426593103 0.469565217,0.426593103 L8.4,0.426593103 C8.51530435,0.426593103 8.60869565,0.525351724 8.60869565,0.647282759 L8.60869565,13.4472828 C8.60869565,13.5692138 8.51530435,13.6679724 8.4,13.6679724 L8.4,13.6679724 Z" id="Stroke-1" stroke="#555555" sketch:type="MSShapeGroup"></path>
                <path d="M5.73558261,5.82256552 C5.38288696,5.4496 4.80584348,5.4496 4.45366957,5.82256552 L4.43488696,5.84242759 L4.41610435,5.82256552 C4.0634087,5.4496 3.48636522,5.4496 3.1341913,5.82256552 L3.1341913,5.82256552 C2.78149565,6.19553103 2.78149565,6.80573793 3.1341913,7.17815172 L4.43175652,8.55084138 L4.43384348,8.54863448 L4.43697391,8.55194483 L5.73558261,7.17815172 C6.08827826,6.80573793 6.08827826,6.19553103 5.73558261,5.82256552" id="Fill-3" fill="#555555" sketch:type="MSShapeGroup"></path>
                <path d="M9.72349565,2.48275862 L11.4061043,2.48275862 C11.5214087,2.48275862 11.6148,2.58151724 11.6148,2.70344828 L11.6148,15.5034483 C11.6148,15.6253793 11.5214087,15.7241379 11.4061043,15.7241379 L3.47566957,15.7241379 C3.36036522,15.7241379 3.26697391,15.6253793 3.26697391,15.5034483 L3.26697391,14.8242759" id="Stroke-5" stroke="#555555" stroke-linecap="round" sketch:type="MSShapeGroup"></path>
            </g>
        </g>
    </g>
</svg>