<?xml version="1.0" encoding="UTF-8" standalone="no"?>
<svg width="13px" height="18px" viewBox="0 0 13 18" version="1.1" xmlns="http://www.w3.org/2000/svg" xmlns:xlink="http://www.w3.org/1999/xlink" xmlns:sketch="http://www.bohemiancoding.com/sketch/ns">
    <!-- Generator: Sketch 3.4 (15575) - http://www.bohemiancoding.com/sketch -->
    <title>sangna</title>
    <desc>Created with Sketch.</desc>
    <defs></defs>
    <g id="Page-1-Copy" stroke="none" stroke-width="1" fill="none" fill-rule="evenodd" sketch:type="MSPage">
        <g id="icon" sketch:type="MSArtboardGroup" transform="translate(-171.000000, -215.000000)">
            <g id="sangna" sketch:type="MSLayerGroup" transform="translate(172.000000, 216.000000)">
                <path d="M6.14141414,9.96609032 L6.14141414,1.90415484 C6.14141414,1.0644129 5.2809697,0.376929032 4.22917172,0.376929032 L4.17486869,0.376929032 C3.12307071,0.376929032 2.26262626,1.0644129 2.26262626,1.90415484 L2.26262626,9.96609032 C1.10416162,10.5018323 0.323232323,11.4995097 0.323232323,12.6453161 C0.323232323,14.3552516 2.05963636,15.7420903 4.2020202,15.7420903 C6.34440404,15.7420903 8.08080808,14.3552516 8.08080808,12.6453161 C8.08080808,11.4995097 7.29987879,10.5018323 6.14141414,9.96609032 L6.14141414,9.96609032 Z" id="Stroke-1" stroke="#555555" stroke-linecap="round" sketch:type="MSShapeGroup"></path>
                <path d="M2.05549899,13.1010065 C2.60370101,13.4891355 3.32515556,13.7250065 4.11513535,13.7250065 C4.97299394,13.7250065 5.74875152,13.4478452 6.31052929,12.9988129" id="Stroke-3" stroke="#555555" stroke-linecap="round" sketch:type="MSShapeGroup"></path>
                <path d="M3.67120808,4.01135484 L2.37827879,4.01135484 C2.20050101,4.01135484 2.05504646,3.89522581 2.05504646,3.75329032 C2.05504646,3.61135484 2.20050101,3.49522581 2.37827879,3.49522581 L3.67120808,3.49522581 C3.84898586,3.49522581 3.9944404,3.61135484 3.9944404,3.75329032 C3.9944404,3.89522581 3.84898586,4.01135484 3.67120808,4.01135484" id="Fill-5" fill="#555555" sketch:type="MSShapeGroup"></path>
                <path d="M3.67120808,5.04371613 L2.37827879,5.04371613 C2.20050101,5.04371613 2.05504646,4.9275871 2.05504646,4.78565161 C2.05504646,4.64371613 2.20050101,4.5275871 2.37827879,4.5275871 L3.67120808,4.5275871 C3.84898586,4.5275871 3.9944404,4.64371613 3.9944404,4.78565161 C3.9944404,4.9275871 3.84898586,5.04371613 3.67120808,5.04371613" id="Fill-7" fill="#555555" sketch:type="MSShapeGroup"></path>
                <path d="M3.67120808,6.07607742 L2.37827879,6.07607742 C2.20050101,6.07607742 2.05504646,5.95994839 2.05504646,5.8180129 C2.05504646,5.67607742 2.20050101,5.55994839 2.37827879,5.55994839 L3.67120808,5.55994839 C3.84898586,5.55994839 3.9944404,5.67607742 3.9944404,5.8180129 C3.9944404,5.95994839 3.84898586,6.07607742 3.67120808,6.07607742" id="Fill-9" fill="#555555" sketch:type="MSShapeGroup"></path>
                <path d="M3.67120808,7.10843871 L2.37827879,7.10843871 C2.20050101,7.10843871 2.05504646,6.99230968 2.05504646,6.85037419 L2.05504646,6.85037419 C2.05504646,6.70843871 2.20050101,6.59230968 2.37827879,6.59230968 L3.67120808,6.59230968 C3.84898586,6.59230968 3.9944404,6.70843871 3.9944404,6.85037419 L3.9944404,6.85037419 C3.9944404,6.99230968 3.84898586,7.10843871 3.67120808,7.10843871" id="Fill-11" fill="#555555" sketch:type="MSShapeGroup"></path>
                <path d="M8.77220202,1.17574194 C8.77220202,1.17574194 7.79410101,1.69187097 8.76315152,2.53883871 C9.73220202,3.38580645 8.75474747,3.88387097 8.75474747,3.88387097" id="Stroke-13" stroke="#555555" stroke-linecap="round" sketch:type="MSShapeGroup"></path>
                <path d="M8.75448889,3.88376774 C8.75448889,3.88376774 7.77638788,4.39989677 8.74543838,5.24686452 C9.71448889,6.09383226 8.73703434,6.59189677 8.73703434,6.59189677" id="Stroke-15" stroke="#555555" stroke-linecap="round" sketch:type="MSShapeGroup"></path>
                <path d="M10.7117253,1.17672258 C10.7117253,1.17672258 9.73362424,1.69285161 10.7026747,2.53981935 C11.6717253,3.3867871 10.6942707,3.88485161 10.6942707,3.88485161" id="Stroke-17" stroke="#555555" stroke-linecap="round" sketch:type="MSShapeGroup"></path>
                <path d="M10.6940121,3.88474839 C10.6940121,3.88474839 9.71591111,4.40087742 10.6849616,5.24784516 C11.6540121,6.0948129 10.6765576,6.59287742 10.6765576,6.59287742" id="Stroke-19" stroke="#555555" stroke-linecap="round" sketch:type="MSShapeGroup"></path>
            </g>
        </g>
    </g>
</svg>