<?xml version="1.0" encoding="UTF-8" standalone="no"?>
<svg width="19px" height="16px" viewBox="0 0 19 16" version="1.1" xmlns="http://www.w3.org/2000/svg" xmlns:xlink="http://www.w3.org/1999/xlink" xmlns:sketch="http://www.bohemiancoding.com/sketch/ns">
    <!-- Generator: Sketch 3.4 (15575) - http://www.bohemiancoding.com/sketch -->
    <title>shangwuzhongxin</title>
    <desc>Created with Sketch.</desc>
    <defs></defs>
    <g id="Page-1-Copy" stroke="none" stroke-width="1" fill="none" fill-rule="evenodd" sketch:type="MSPage">
        <g id="icon" sketch:type="MSArtboardGroup" transform="translate(-114.000000, -511.000000)" stroke-linecap="round" stroke="#555555">
            <g id="shangwuzhongxin" sketch:type="MSLayerGroup" transform="translate(115.000000, 512.000000)">
                <path d="M16.0555556,13.6818182 L0.944444444,13.6818182 C0.598148148,13.6818182 0.314814815,13.3954545 0.314814815,13.0454545 L0.314814815,4.13636364 C0.314814815,3.78636364 0.598148148,3.5 0.944444444,3.5 L16.0555556,3.5 C16.4018519,3.5 16.6851852,3.78636364 16.6851852,4.13636364 L16.6851852,13.0454545 C16.6851852,13.3954545 16.4018519,13.6818182 16.0555556,13.6818182 L16.0555556,13.6818182 Z" id="Stroke-1" sketch:type="MSShapeGroup"></path>
                <path d="M12.2544185,3.29439091 L4.88649259,3.29439091 C4.83549259,3.29439091 4.79393704,3.25239091 4.79393704,3.20148182 L4.79393704,0.621663636 C4.79393704,0.341663636 5.0206037,0.112572727 5.29764074,0.112572727 L11.8457889,0.112572727 C12.1228259,0.112572727 12.3494926,0.341663636 12.3494926,0.621663636 L12.3494926,3.19766364 C12.3494926,3.25111818 12.3066778,3.29439091 12.2544185,3.29439091 L12.2544185,3.29439091 Z" id="Stroke-3" sketch:type="MSShapeGroup"></path>
                <path d="M10.8386963,3.5 L6.30536296,3.5 C6.16684444,3.5 6.05351111,3.38545455 6.05351111,3.24545455 L6.05351111,1.61063636 C6.05351111,1.47063636 6.16684444,1.35609091 6.30536296,1.35609091 L10.8386963,1.35609091 C10.9772148,1.35609091 11.0905481,1.47063636 11.0905481,1.61063636 L11.0905481,3.24545455 C11.0905481,3.38545455 10.9772148,3.5 10.8386963,3.5 L10.8386963,3.5 Z" id="Stroke-5" sketch:type="MSShapeGroup"></path>
                <path d="M12.3494296,7.32880909 L16.6850593,7.32880909" id="Stroke-7" sketch:type="MSShapeGroup"></path>
                <path d="M6.05307037,7.32880909 L11.0901074,7.32880909" id="Stroke-9" sketch:type="MSShapeGroup"></path>
                <path d="M0.314814815,7.32880909 L4.794,7.32880909" id="Stroke-11" sketch:type="MSShapeGroup"></path>
                <path d="M5.80165926,8.56971818 L5.0461037,8.56971818 C4.90758519,8.56971818 4.79425185,8.45517273 4.79425185,8.31517273 L4.79425185,6.27880909 C4.79425185,6.13880909 4.90758519,6.02426364 5.0461037,6.02426364 L5.80165926,6.02426364 C5.94017778,6.02426364 6.05351111,6.13880909 6.05351111,6.27880909 L6.05351111,8.31517273 C6.05351111,8.45517273 5.94017778,8.56971818 5.80165926,8.56971818 L5.80165926,8.56971818 Z" id="Stroke-13" sketch:type="MSShapeGroup"></path>
                <path d="M12.0979556,8.56971818 L11.3424,8.56971818 C11.2038815,8.56971818 11.0905481,8.45517273 11.0905481,8.31517273 L11.0905481,6.27880909 C11.0905481,6.13880909 11.2038815,6.02426364 11.3424,6.02426364 L12.0979556,6.02426364 C12.2364741,6.02426364 12.3498074,6.13880909 12.3498074,6.27880909 L12.3498074,8.31517273 C12.3498074,8.45517273 12.2364741,8.56971818 12.0979556,8.56971818 L12.0979556,8.56971818 Z" id="Stroke-15" sketch:type="MSShapeGroup"></path>
            </g>
        </g>
    </g>
</svg>