<?xml version="1.0" encoding="UTF-8" standalone="no"?>
<svg width="16px" height="14px" viewBox="0 0 16 14" version="1.1" xmlns="http://www.w3.org/2000/svg" xmlns:xlink="http://www.w3.org/1999/xlink" xmlns:sketch="http://www.bohemiancoding.com/sketch/ns">
    <!-- Generator: Sketch 3.4 (15575) - http://www.bohemiancoding.com/sketch -->
    <title>shineiyongchi</title>
    <desc>Created with Sketch.</desc>
    <defs></defs>
    <g id="Page-1-Copy" stroke="none" stroke-width="1" fill="none" fill-rule="evenodd" sketch:type="MSPage">
        <g id="icon" sketch:type="MSArtboardGroup" transform="translate(-170.000000, -175.000000)">
            <g id="shineiyongchi" sketch:type="MSLayerGroup" transform="translate(170.000000, 175.000000)">
                <g id="Group-3" fill="#555555" sketch:type="MSShapeGroup">
                    <path d="M8.0027871,1.29747692 L0.646916129,4.1314 C0.392980645,4.22886154 0.115819355,4.08078462 0.0270451613,3.79970769 L0.0270451613,3.79970769 C-0.0612129032,3.51916923 0.0729806452,3.21224615 0.326916129,3.11424615 L7.6827871,0.280323077 C7.93620645,0.182861538 8.21388387,0.330938462 8.30214194,0.612015385 L8.30214194,0.612015385 C8.39091613,0.892553846 8.25672258,1.19947692 8.0027871,1.29747692" id="Fill-1"></path>
                </g>
                <g id="Group-6" transform="translate(7.200000, 0.000000)" fill="#555555" sketch:type="MSShapeGroup">
                    <path d="M0.493574194,1.29747692 L7.84944516,4.1314 C8.10338065,4.22886154 8.38054194,4.08078462 8.46931613,3.79970769 L8.46931613,3.79970769 C8.55757419,3.51916923 8.42338065,3.21224615 8.16944516,3.11424615 L0.813574194,0.280323077 C0.560154839,0.182861538 0.282477419,0.330938462 0.193703226,0.612015385 L0.193703226,0.612015385 C0.105445161,0.892553846 0.23963871,1.19947692 0.493574194,1.29747692" id="Fill-4"></path>
                </g>
                <path d="M11.8058839,11.6615154 C11.4167226,11.6615154 11.026529,11.5365923 10.7297548,11.2867462 L10.6941419,11.2565923 C10.202271,10.8419769 9.3707871,10.8419769 8.87788387,11.2571308 L8.8427871,11.2867462 C8.24923871,11.7869769 7.28717419,11.7794385 6.69827097,11.2695154 C6.21156129,10.8484385 5.38523871,10.8425154 4.89388387,11.2571308 L4.8587871,11.2867462 C4.26523871,11.7864385 3.30007742,11.7864385 2.70652903,11.2867462 L2.67143226,11.2571308 C2.17852903,10.8419769 1.34704516,10.8425154 0.854658065,11.2571308 C0.70756129,11.3815154 0.48923871,11.3599769 0.367432258,11.2081308 C0.246658065,11.0568231 0.267303226,10.8328231 0.415432258,10.7084385 C1.17052903,10.0714385 2.35504516,10.0714385 3.11065806,10.7084385 L3.14575484,10.7380538 C3.48536774,11.0234385 4.07994839,11.0234385 4.41904516,10.7380538 L4.45465806,10.7084385 C5.20046452,10.0800538 6.40717419,10.0881308 7.14472258,10.7272846 C7.47865806,11.0159 8.06652903,11.0218231 8.40356129,10.7380538 L8.43865806,10.7084385 C9.19427097,10.0714385 10.378271,10.0714385 11.1338839,10.7084385 L11.1700129,10.7385923 C11.5085935,11.0239769 12.1036903,11.0239769 12.4427871,10.7380538 L12.4778839,10.7084385 C13.2211097,10.0816692 14.4304,10.0816692 15.1736258,10.7084385 C15.3212387,10.8328231 15.3424,11.0568231 15.2211097,11.2081308 C15.0993032,11.3599769 14.8820129,11.3815154 14.7338839,11.2571308 C14.2414968,10.8419769 13.4094968,10.8419769 12.9171097,11.2571308 L12.882529,11.2867462 C12.5852387,11.5365923 12.1960774,11.6615154 11.8058839,11.6615154" id="Fill-15" fill="#555555" sketch:type="MSShapeGroup"></path>
                <path d="M11.8058839,14 C11.4167226,14 11.026529,13.8750769 10.7297548,13.6252308 L10.6941419,13.5950769 C10.202271,13.1804615 9.3707871,13.1804615 8.87788387,13.5956154 L8.8427871,13.6252308 C8.24872258,14.1254615 7.28717419,14.1179231 6.69827097,13.6085385 C6.21156129,13.1869231 5.38523871,13.181 4.89388387,13.5956154 L4.8587871,13.6252308 C4.26523871,14.1249231 3.30007742,14.1249231 2.70652903,13.6252308 L2.67143226,13.5956154 C2.17852903,13.1804615 1.34704516,13.1804615 0.854658065,13.5956154 C0.70756129,13.7194615 0.48923871,13.6984615 0.367432258,13.5466154 C0.246658065,13.3953077 0.267303226,13.1713077 0.415432258,13.0469231 C1.17052903,12.4099231 2.35504516,12.4099231 3.11065806,13.0469231 L3.14575484,13.0765385 C3.48536774,13.3619231 4.07994839,13.3619231 4.41904516,13.0765385 L4.45465806,13.0469231 C5.20046452,12.4185385 6.40717419,12.4271538 7.14472258,13.0657692 C7.47917419,13.3554615 8.06704516,13.3603077 8.40356129,13.0765385 L8.43865806,13.0469231 C9.19427097,12.4104615 10.378271,12.4099231 11.1338839,13.0469231 L11.1700129,13.0770769 C11.5085935,13.3624615 12.1036903,13.3619231 12.4427871,13.0765385 L12.4778839,13.0469231 C13.2211097,12.4206923 14.4304,12.4201538 15.1736258,13.0469231 C15.3212387,13.1713077 15.3424,13.3953077 15.2211097,13.5466154 C15.0993032,13.6984615 14.8820129,13.7194615 14.7338839,13.5956154 C14.2414968,13.1799231 13.4094968,13.1804615 12.9171097,13.5956154 L12.882529,13.6252308 C12.5852387,13.8750769 12.1960774,14 11.8058839,14" id="Fill-17" fill="#555555" sketch:type="MSShapeGroup"></path>
                <rect id="Rectangle-822" stroke="#555555" sketch:type="MSShapeGroup" x="10" y="5" width="4" height="3"></rect>
                <rect id="Rectangle-822-Copy" stroke="#555555" sketch:type="MSShapeGroup" x="8" y="5" width="4" height="3"></rect>
            </g>
        </g>
    </g>
</svg>