<?xml version="1.0" encoding="UTF-8" standalone="no"?>
<svg width="16px" height="15px" viewBox="0 0 16 15" version="1.1" xmlns="http://www.w3.org/2000/svg" xmlns:xlink="http://www.w3.org/1999/xlink" xmlns:sketch="http://www.bohemiancoding.com/sketch/ns">
    <!-- Generator: Sketch 3.4 (15575) - http://www.bohemiancoding.com/sketch -->
    <title>shiwaiyongchi</title>
    <desc>Created with Sketch.</desc>
    <defs></defs>
    <g id="Page-1-Copy" stroke="none" stroke-width="1" fill="none" fill-rule="evenodd" sketch:type="MSPage">
        <g id="icon" sketch:type="MSArtboardGroup" transform="translate(-116.000000, -174.000000)">
            <g id="shiwaiyongchi" sketch:type="MSLayerGroup" transform="translate(116.000000, 175.000000)">
                <path d="M8.26245297,10.5257895 L8.26245297,1.31464912 C8.26245297,0.636754386 8.73046655,0.0865789474 9.30829338,0.0865789474 L9.30829338,0.0865789474" id="Stroke-1" stroke="#555555" stroke-linecap="round" sketch:type="MSShapeGroup"></path>
                <path d="M11.7922689,10.5257895 L11.7922689,1.31464912 C11.7922689,0.636754386 12.2602825,0.0865789474 12.8381093,0.0865789474 L12.8381093,0.0865789474 C13.4159362,0.0865789474 13.8839497,0.636754386 13.8839497,1.31464912" id="Stroke-3" stroke="#555555" stroke-linecap="round" sketch:type="MSShapeGroup"></path>
                <path d="M11.7923735,3.68789474 L8.26266214,3.68789474 L8.26266214,3.22736842 L11.7923735,3.22736842 L11.7923735,3.68789474 Z" id="Fill-5" fill="#555555" sketch:type="MSShapeGroup"></path>
                <path d="M11.7923735,6.75807018 L8.26266214,6.75807018 L8.26266214,6.29754386 L11.7923735,6.29754386 L11.7923735,6.75807018 Z" id="Fill-7" fill="#555555" sketch:type="MSShapeGroup"></path>
                <path d="M12.2488306,11.333307 C11.8346778,11.333307 11.420002,11.1908509 11.1046812,10.9059386 L11.066508,10.8715526 C10.5435878,10.3987456 9.65880679,10.3987456 9.13484075,10.8721667 L9.09771341,10.9059386 C8.46654873,11.4763772 7.44267097,11.4677807 6.81673548,10.8862895 C6.29904448,10.406114 5.42001562,10.3993596 4.89761834,10.8721667 L4.85996808,10.9059386 C4.2288034,11.4757632 3.20231104,11.4757632 2.57114635,10.9059386 L2.53401902,10.8721667 C2.01005297,10.3987456 1.12527199,10.3993596 0.601828862,10.8721667 C0.444952801,11.0140088 0.212776231,10.9894474 0.0836149406,10.8162895 C-0.0450234295,10.6437456 -0.023060781,10.388307 0.1343382,10.2464649 C0.937543633,9.5200614 2.1972584,9.5200614 3.00098676,10.2464649 L3.03863701,10.2802368 C3.39945195,10.6056754 4.0321854,10.6056754 4.39300034,10.2802368 L4.43012767,10.2464649 C5.22392054,9.52988596 6.50716672,9.53909649 7.29154703,10.2679561 C7.64660985,10.5970789 8.27202241,10.6038333 8.63022275,10.2802368 L8.66787301,10.2464649 C9.47107844,9.5200614 10.7307932,9.5200614 11.5345216,10.2464649 L11.5726947,10.2808509 C11.9324638,10.6062895 12.5657202,10.6062895 12.9260122,10.2802368 L12.9631396,10.2464649 C13.7543178,9.53172807 15.0401786,9.53172807 15.830311,10.2464649 C15.98771,10.388307 16.0101956,10.6437456 15.8810343,10.8162895 C15.751873,10.9894474 15.5202194,11.0140088 15.3633433,10.8721667 C14.8393772,10.3987456 13.9545963,10.3987456 13.4306302,10.8721667 L13.3935029,10.9059386 C13.078182,11.1908509 12.6635063,11.333307 12.2488306,11.333307" id="Fill-8" fill="#555555" sketch:type="MSShapeGroup"></path>
                <path d="M12.2488306,14 C11.8346778,14 11.420002,13.8575439 11.1046812,13.5726316 L11.066508,13.5382456 C10.5435878,13.0654386 9.65880679,13.0654386 9.13484075,13.5388596 L9.09771341,13.5726316 C8.46550289,14.1430702 7.44267097,14.1344737 6.81673548,13.5535965 C6.29904448,13.072807 5.42053854,13.0660526 4.89761834,13.5388596 L4.85996808,13.5726316 C4.2288034,14.1424561 3.20231104,14.1424561 2.57114635,13.5726316 L2.53401902,13.5388596 C2.01005297,13.0654386 1.12527199,13.0654386 0.601828862,13.5388596 C0.444952801,13.6800877 0.212776231,13.6561404 0.0836149406,13.4829825 C-0.0450234295,13.3104386 -0.023060781,13.055 0.1343382,12.9131579 C0.937543633,12.1867544 2.1972584,12.1867544 3.00098676,12.9131579 L3.03863701,12.9469298 C3.39945195,13.2723684 4.0321854,13.2723684 4.39300034,12.9469298 L4.43012767,12.9131579 C5.22392054,12.1965789 6.50716672,12.2064035 7.29154703,12.9346491 C7.64713277,13.265 8.27254533,13.2705263 8.63022275,12.9469298 L8.66787301,12.9131579 C9.47107844,12.1873684 10.7307932,12.1867544 11.5345216,12.9131579 L11.5726947,12.9475439 C11.9324638,13.2729825 12.5657202,13.2723684 12.9260122,12.9469298 L12.9631396,12.9131579 C13.7543178,12.1990351 15.0401786,12.1984211 15.830311,12.9131579 C15.98771,13.055 16.0101956,13.3104386 15.8810343,13.4829825 C15.751873,13.6561404 15.5202194,13.6800877 15.3633433,13.5388596 C14.8393772,13.0648246 13.9545963,13.0654386 13.4306302,13.5388596 L13.3935029,13.5726316 C13.078182,13.8575439 12.6635063,14 12.2488306,14" id="Fill-9" fill="#555555" sketch:type="MSShapeGroup"></path>
            </g>
        </g>
    </g>
</svg>