<?xml version="1.0" encoding="UTF-8" standalone="no"?>
<svg width="16px" height="15px" viewBox="0 0 16 15" version="1.1" xmlns="http://www.w3.org/2000/svg" xmlns:xlink="http://www.w3.org/1999/xlink" xmlns:sketch="http://www.bohemiancoding.com/sketch/ns">
    <!-- Generator: Sketch 3.4 (15575) - http://www.bohemiancoding.com/sketch -->
    <title>songji</title>
    <desc>Created with Sketch.</desc>
    <defs></defs>
    <g id="Page-1-Copy" stroke="none" stroke-width="1" fill="none" fill-rule="evenodd" sketch:type="MSPage">
        <g id="icon" sketch:type="MSArtboardGroup" transform="translate(-116.000000, -555.000000)" fill="#555555">
            <g id="songji" sketch:type="MSLayerGroup" transform="translate(116.000000, 555.000000)">
                <path d="M9.81586864,14.9889175 C9.78258475,14.9889175 9.74923729,14.9836806 9.71705508,14.9729635 L8.13419492,14.4480853 C7.97652542,14.395839 7.89302966,14.2309202 7.94756356,14.0798647 C8.00209746,13.9288295 8.17423729,13.8487551 8.33190678,13.9010825 L9.51370763,14.2929905 L9.51370763,13.8486739 L8.55112288,13.0096482 C8.47474576,12.9430514 8.43915254,12.8436942 8.45669492,12.7462449 C8.48186441,12.6071854 8.49402542,12.4884844 8.49402542,12.3834235 C8.49402542,12.3773951 8.49427966,12.371387 8.4946822,12.3653586 L8.68040254,9.52240189 C8.68677966,9.42568336 8.74313559,9.33846414 8.83069915,9.28993234 C8.91824153,9.24140054 9.02525424,9.23807172 9.11588983,9.28106225 L14.4007415,11.785433 L14.4007415,10.7345602 L8.88631356,6.10985115 C8.82084746,6.05482409 8.78317797,5.97546008 8.78317797,5.89205683 L8.78317797,2.39244926 C8.78317797,2.02914073 8.62048729,1.55516915 8.36864407,1.1849594 C8.10663136,0.799790257 7.79097458,0.578890392 7.50256356,0.578890392 C7.21415254,0.578890392 6.89841102,0.799790257 6.63639831,1.18487821 C6.38457627,1.55516915 6.22186441,2.02914073 6.22186441,2.39244926 L6.22186441,5.89197564 C6.22186441,5.97546008 6.18427966,6.05482409 6.11875,6.10976996 L0.604237288,10.7345602 L0.604237288,11.7819418 L5.7921822,9.28185386 C5.88237288,9.23839648 5.98930085,9.24101488 6.07711864,9.28873478 C6.165,9.33655616 6.2220339,9.42320704 6.22930085,9.5197023 L6.45938559,12.5960825 C6.45995763,12.6029838 6.46021186,12.609885 6.46021186,12.6167659 C6.46021186,12.6678349 6.46650424,12.7225372 6.47319915,12.7805886 L6.47567797,12.802226 C6.48612288,12.8943572 6.44995763,12.9857781 6.37819915,13.0480108 L5.45567797,13.8489783 L5.45567797,14.2910217 L6.41817797,13.9671313 C6.69086864,13.8601624 7.28896186,13.8067997 7.67239407,14.3504736 C7.76582627,14.482977 7.72940678,14.6628755 7.59120763,14.7523884 C7.45290254,14.84182 7.26512712,14.807111 7.17169492,14.6746076 C7.08512712,14.5518674 6.97927966,14.4876455 6.84786017,14.4782882 C6.74366525,14.470839 6.65692797,14.4996211 6.64351695,14.5043708 C6.6365678,14.5073951 6.63483051,14.5077808 6.62663136,14.5105616 L5.25375,14.9725778 C5.16129237,15.0036536 5.05883475,14.9899323 4.97889831,14.935636 C4.89894068,14.8814005 4.85144068,14.7933085 4.85144068,14.6995129 L4.85144068,13.7206969 C4.85144068,13.6390392 4.88752119,13.5611773 4.95067797,13.5063126 L5.85987288,12.7169147 C5.85771186,12.6881326 5.85631356,12.6584777 5.85597458,12.6278687 L5.65894068,9.99407984 L0.437881356,12.5101218 C0.344194915,12.5552436 0.232881356,12.5506563 0.143580508,12.4979229 C0.0543644068,12.4452706 0,12.352023 0,12.2515697 L0,10.6033356 C0,10.5198512 0.0375635593,10.4404871 0.103114407,10.3855413 L5.61762712,5.76075101 L5.61762712,2.39244926 C5.61762712,1.91750338 5.81402542,1.33370095 6.13025424,0.868843031 C6.51135593,0.308606225 6.99872881,0 7.50256356,0 C8.00631356,0 8.49368644,0.308606225 8.87480932,0.868843031 C9.19101695,1.33370095 9.3875,1.91750338 9.3875,2.39244926 L9.3875,5.76075101 L14.9018432,10.3855413 C14.9673941,10.4404871 15.0049576,10.5198512 15.0049576,10.6032544 L15.0049576,12.2515697 C15.0049576,12.3516373 14.9510169,12.4446414 14.8622881,12.4974357 C14.7735593,12.5502503 14.6625847,12.5553248 14.5689831,12.5109946 L9.25508475,9.99282138 L9.09826271,12.392862 C9.09783898,12.4842016 9.09088983,12.5809405 9.07713983,12.6855142 L10.0191102,13.5066171 C10.0820975,13.5614817 10.1179237,13.6392625 10.1179237,13.7207781 L10.1179237,14.6995129 C10.1179237,14.7931461 10.070678,14.8809946 9.99105932,14.93523 C9.93925847,14.9705886 9.87783898,14.9889175 9.81586864,14.9889175 L9.81586864,14.9889175 Z" id="接机服务" sketch:type="MSShapeGroup"></path>
                <path d="M9.81586864,14.9889175 C9.78258475,14.9889175 9.74923729,14.9836806 9.71705508,14.9729635 L8.13419492,14.4480853 C7.97652542,14.395839 7.89302966,14.2309202 7.94756356,14.0798647 C8.00209746,13.9288295 8.17423729,13.8487551 8.33190678,13.9010825 L9.51370763,14.2929905 L9.51370763,13.8486739 L8.55112288,13.0096482 C8.47474576,12.9430514 8.43915254,12.8436942 8.45669492,12.7462449 C8.48186441,12.6071854 8.49402542,12.4884844 8.49402542,12.3834235 C8.49402542,12.3773951 8.49427966,12.371387 8.4946822,12.3653586 L8.68040254,9.52240189 C8.68677966,9.42568336 8.74313559,9.33846414 8.83069915,9.28993234 C8.91824153,9.24140054 9.02525424,9.23807172 9.11588983,9.28106225 L14.4007415,11.785433 L14.4007415,10.7345602 L8.88631356,6.10985115 C8.82084746,6.05482409 8.78317797,5.97546008 8.78317797,5.89205683 L8.78317797,2.39244926 C8.78317797,2.02914073 8.62048729,1.55516915 8.36864407,1.1849594 C8.10663136,0.799790257 7.79097458,0.578890392 7.50256356,0.578890392 C7.21415254,0.578890392 6.89841102,0.799790257 6.63639831,1.18487821 C6.38457627,1.55516915 6.22186441,2.02914073 6.22186441,2.39244926 L6.22186441,5.89197564 C6.22186441,5.97546008 6.18427966,6.05482409 6.11875,6.10976996 L0.604237288,10.7345602 L0.604237288,11.7819418 L5.7921822,9.28185386 C5.88237288,9.23839648 5.98930085,9.24101488 6.07711864,9.28873478 C6.165,9.33655616 6.2220339,9.42320704 6.22930085,9.5197023 L6.45938559,12.5960825 C6.45995763,12.6029838 6.46021186,12.609885 6.46021186,12.6167659 C6.46021186,12.6678349 6.46650424,12.7225372 6.47319915,12.7805886 L6.47567797,12.802226 C6.48612288,12.8943572 6.44995763,12.9857781 6.37819915,13.0480108 L5.45567797,13.8489783 L5.45567797,14.2910217 L6.41817797,13.9671313 C6.69086864,13.8601624 7.28896186,13.8067997 7.67239407,14.3504736 C7.76582627,14.482977 7.72940678,14.6628755 7.59120763,14.7523884 C7.45290254,14.84182 7.26512712,14.807111 7.17169492,14.6746076 C7.08512712,14.5518674 6.97927966,14.4876455 6.84786017,14.4782882 C6.74366525,14.470839 6.65692797,14.4996211 6.64351695,14.5043708 C6.6365678,14.5073951 6.63483051,14.5077808 6.62663136,14.5105616 L5.25375,14.9725778 C5.16129237,15.0036536 5.05883475,14.9899323 4.97889831,14.935636 C4.89894068,14.8814005 4.85144068,14.7933085 4.85144068,14.6995129 L4.85144068,13.7206969 C4.85144068,13.6390392 4.88752119,13.5611773 4.95067797,13.5063126 L5.85987288,12.7169147 C5.85771186,12.6881326 5.85631356,12.6584777 5.85597458,12.6278687 L5.65894068,9.99407984 L0.437881356,12.5101218 C0.344194915,12.5552436 0.232881356,12.5506563 0.143580508,12.4979229 C0.0543644068,12.4452706 0,12.352023 0,12.2515697 L0,10.6033356 C0,10.5198512 0.0375635593,10.4404871 0.103114407,10.3855413 L5.61762712,5.76075101 L5.61762712,2.39244926 C5.61762712,1.91750338 5.81402542,1.33370095 6.13025424,0.868843031 C6.51135593,0.308606225 6.99872881,0 7.50256356,0 C8.00631356,0 8.49368644,0.308606225 8.87480932,0.868843031 C9.19101695,1.33370095 9.3875,1.91750338 9.3875,2.39244926 L9.3875,5.76075101 L14.9018432,10.3855413 C14.9673941,10.4404871 15.0049576,10.5198512 15.0049576,10.6032544 L15.0049576,12.2515697 C15.0049576,12.3516373 14.9510169,12.4446414 14.8622881,12.4974357 C14.7735593,12.5502503 14.6625847,12.5553248 14.5689831,12.5109946 L9.25508475,9.99282138 L9.09826271,12.392862 C9.09783898,12.4842016 9.09088983,12.5809405 9.07713983,12.6855142 L10.0191102,13.5066171 C10.0820975,13.5614817 10.1179237,13.6392625 10.1179237,13.7207781 L10.1179237,14.6995129 C10.1179237,14.7931461 10.070678,14.8809946 9.99105932,14.93523 C9.93925847,14.9705886 9.87783898,14.9889175 9.81586864,14.9889175 L9.81586864,14.9889175 Z" id="接机服务" sketch:type="MSShapeGroup"></path>
                <path d="M9.81586864,14.9889175 C9.78258475,14.9889175 9.74923729,14.9836806 9.71705508,14.9729635 L8.13419492,14.4480853 C7.97652542,14.395839 7.89302966,14.2309202 7.94756356,14.0798647 C8.00209746,13.9288295 8.17423729,13.8487551 8.33190678,13.9010825 L9.51370763,14.2929905 L9.51370763,13.8486739 L8.55112288,13.0096482 C8.47474576,12.9430514 8.43915254,12.8436942 8.45669492,12.7462449 C8.48186441,12.6071854 8.49402542,12.4884844 8.49402542,12.3834235 C8.49402542,12.3773951 8.49427966,12.371387 8.4946822,12.3653586 L8.68040254,9.52240189 C8.68677966,9.42568336 8.74313559,9.33846414 8.83069915,9.28993234 C8.91824153,9.24140054 9.02525424,9.23807172 9.11588983,9.28106225 L14.4007415,11.785433 L14.4007415,10.7345602 L8.88631356,6.10985115 C8.82084746,6.05482409 8.78317797,5.97546008 8.78317797,5.89205683 L8.78317797,2.39244926 C8.78317797,2.02914073 8.62048729,1.55516915 8.36864407,1.1849594 C8.10663136,0.799790257 7.79097458,0.578890392 7.50256356,0.578890392 C7.21415254,0.578890392 6.89841102,0.799790257 6.63639831,1.18487821 C6.38457627,1.55516915 6.22186441,2.02914073 6.22186441,2.39244926 L6.22186441,5.89197564 C6.22186441,5.97546008 6.18427966,6.05482409 6.11875,6.10976996 L0.604237288,10.7345602 L0.604237288,11.7819418 L5.7921822,9.28185386 C5.88237288,9.23839648 5.98930085,9.24101488 6.07711864,9.28873478 C6.165,9.33655616 6.2220339,9.42320704 6.22930085,9.5197023 L6.45938559,12.5960825 C6.45995763,12.6029838 6.46021186,12.609885 6.46021186,12.6167659 C6.46021186,12.6678349 6.46650424,12.7225372 6.47319915,12.7805886 L6.47567797,12.802226 C6.48612288,12.8943572 6.44995763,12.9857781 6.37819915,13.0480108 L5.45567797,13.8489783 L5.45567797,14.2910217 L6.41817797,13.9671313 C6.69086864,13.8601624 7.28896186,13.8067997 7.67239407,14.3504736 C7.76582627,14.482977 7.72940678,14.6628755 7.59120763,14.7523884 C7.45290254,14.84182 7.26512712,14.807111 7.17169492,14.6746076 C7.08512712,14.5518674 6.97927966,14.4876455 6.84786017,14.4782882 C6.74366525,14.470839 6.65692797,14.4996211 6.64351695,14.5043708 C6.6365678,14.5073951 6.63483051,14.5077808 6.62663136,14.5105616 L5.25375,14.9725778 C5.16129237,15.0036536 5.05883475,14.9899323 4.97889831,14.935636 C4.89894068,14.8814005 4.85144068,14.7933085 4.85144068,14.6995129 L4.85144068,13.7206969 C4.85144068,13.6390392 4.88752119,13.5611773 4.95067797,13.5063126 L5.85987288,12.7169147 C5.85771186,12.6881326 5.85631356,12.6584777 5.85597458,12.6278687 L5.65894068,9.99407984 L0.437881356,12.5101218 C0.344194915,12.5552436 0.232881356,12.5506563 0.143580508,12.4979229 C0.0543644068,12.4452706 0,12.352023 0,12.2515697 L0,10.6033356 C0,10.5198512 0.0375635593,10.4404871 0.103114407,10.3855413 L5.61762712,5.76075101 L5.61762712,2.39244926 C5.61762712,1.91750338 5.81402542,1.33370095 6.13025424,0.868843031 C6.51135593,0.308606225 6.99872881,0 7.50256356,0 C8.00631356,0 8.49368644,0.308606225 8.87480932,0.868843031 C9.19101695,1.33370095 9.3875,1.91750338 9.3875,2.39244926 L9.3875,5.76075101 L14.9018432,10.3855413 C14.9673941,10.4404871 15.0049576,10.5198512 15.0049576,10.6032544 L15.0049576,12.2515697 C15.0049576,12.3516373 14.9510169,12.4446414 14.8622881,12.4974357 C14.7735593,12.5502503 14.6625847,12.5553248 14.5689831,12.5109946 L9.25508475,9.99282138 L9.09826271,12.392862 C9.09783898,12.4842016 9.09088983,12.5809405 9.07713983,12.6855142 L10.0191102,13.5066171 C10.0820975,13.5614817 10.1179237,13.6392625 10.1179237,13.7207781 L10.1179237,14.6995129 C10.1179237,14.7931461 10.070678,14.8809946 9.99105932,14.93523 C9.93925847,14.9705886 9.87783898,14.9889175 9.81586864,14.9889175 L9.81586864,14.9889175 Z" id="接机服务" sketch:type="MSShapeGroup"></path>
            </g>
        </g>
    </g>
</svg>