<?xml version="1.0" encoding="UTF-8" standalone="no"?>
<svg width="15px" height="15px" viewBox="0 0 15 15" version="1.1" xmlns="http://www.w3.org/2000/svg" xmlns:xlink="http://www.w3.org/1999/xlink" xmlns:sketch="http://www.bohemiancoding.com/sketch/ns">
    <!-- Generator: Sketch 3.4 (15575) - http://www.bohemiancoding.com/sketch -->
    <title>paiqiu</title>
    <desc>Created with Sketch.</desc>
    <defs></defs>
    <g id="Page-1-Copy" stroke="none" stroke-width="1" fill="none" fill-rule="evenodd" sketch:type="MSPage">
        <g id="icon" sketch:type="MSArtboardGroup" transform="translate(-229.000000, -256.000000)" fill="#555555">
            <g id="paiqiu" sketch:type="MSLayerGroup" transform="translate(229.000000, 256.000000)">
                <path d="M12.8086604,2.19499372 C11.3915094,0.779604271 9.50773585,0 7.50420755,0 C5.49962264,0 3.61586792,0.779604271 2.19773585,2.19499372 C0.780584906,3.61036432 0,5.49177136 0,7.4938191 C0,9.49579146 0.780584906,11.3771985 2.19679245,12.7935302 C3.61490566,14.208995 5.49867925,14.9885992 7.50316981,14.9885992 C9.50677358,14.9885992 11.3895849,14.2080339 12.807717,12.7945666 C14.2249434,11.3781595 15.0044906,9.49675251 15.0044906,7.49478015 C15.0044906,5.49273241 14.2258302,3.61036432 12.8086604,2.19499372 L12.8086604,2.19499372 Z M12.3073396,12.2918781 C11.0243962,13.5721922 9.31743396,14.2794347 7.50420755,14.2794347 C5.68898113,14.2794347 3.98298113,13.5740955 2.70009434,12.2918781 C1.41715094,11.0105465 0.711018868,9.30572864 0.711018868,7.4938191 C0.711018868,5.68183417 1.41715094,3.97797739 2.7010566,2.69672111 C3.98392453,1.41442839 5.68992453,0.709164573 7.50515094,0.709164573 C9.31839623,0.709164573 11.0263208,1.41442839 12.3092642,2.69672111 C13.5902075,3.97701633 14.2953962,5.68183417 14.2953962,7.4938191 C14.2953962,9.30572864 13.5902075,11.0105465 12.3073396,12.2918781 L12.3073396,12.2918781 Z M6.88877358,4.71797111 C5.94884906,4.28191583 4.9519434,4.25967965 4.08150943,4.65429648 C3.21109434,5.04893216 2.57156604,5.81212312 2.27984906,6.80681533 C1.98813208,7.79864322 2.08084906,8.90146357 2.53971698,9.91066583 C2.99860377,10.9198681 3.76754717,11.7158857 4.7074717,12.1500377 C5.6474717,12.5851508 6.64437736,12.6083291 7.51577358,12.2117902 C8.38620755,11.8181344 9.02571698,11.0550188 9.31743396,10.0611935 C9.60915094,9.06746231 9.51643396,7.9666206 9.05564151,6.95640075 C8.59773585,5.94719849 7.82783019,5.15212312 6.88877358,4.71797111 L6.88877358,4.71797111 Z M8.68662264,9.76984296 C8.449,10.5860427 7.9224717,11.2131972 7.20762264,11.5373744 C6.49277358,11.8615515 5.6745283,11.8403518 4.90264151,11.483348 C4.13083019,11.1263442 3.49896226,10.4741457 3.12226415,9.64537688 C2.74550943,8.81755025 2.67018868,7.91155779 2.90875472,7.09537688 C3.14828302,6.28006281 3.67290566,5.65290829 4.38775472,5.32873116 C5.10260377,5.00549623 5.92084906,5.02383166 6.69273585,5.38083543 C7.46454717,5.7378392 8.09632075,6.39194095 8.47213208,7.22072864 C8.85083019,8.05149497 8.92622642,8.95645101 8.68662264,9.76984296 L8.68662264,9.76984296 Z M6.15558491,8.08520729 L6.15079245,8.0765201 C6.50043396,7.51119347 6.53235849,7.00364322 6.24543396,6.55307789 C6.06573585,6.27329774 5.8155283,6.1121608 5.49388679,6.06968593 C5.17120755,6.02728643 4.84854717,6.10833543 4.52490566,6.31481156 C4.17135849,6.53858668 3.94045283,6.81646357 3.83130189,7.14932789 C3.72501887,7.48219221 3.76658491,7.79768216 3.95688679,8.09683417 C4.22928302,8.52422111 4.68137736,8.6978706 5.30837736,8.61393844 L5.31611321,8.62454774 C4.88524528,9.22948492 4.8350566,9.79104271 5.16539623,10.309108 C5.36637736,10.6236558 5.64262264,10.8070101 5.99330189,10.8610553 C6.34588679,10.9160427 6.7004717,10.8272676 7.05977358,10.5995163 C7.49645283,10.3207538 7.77277358,10.0043028 7.88966038,9.64824121 C8.00656604,9.2931407 7.95533962,8.94682161 7.74086792,8.61003769 C7.41435849,8.09683417 6.8849434,7.92120603 6.15558491,8.08520729 L6.15558491,8.08520729 Z M4.47081132,7.75814698 C4.36358491,7.58928392 4.33749057,7.40886935 4.39549057,7.21786432 C4.45437736,7.02780151 4.57516981,6.8743907 4.75583019,6.75859296 C4.94996226,6.63508794 5.13833962,6.5897299 5.31801887,6.62257538 C5.49867925,6.65436558 5.6474717,6.76147613 5.76341509,6.94285176 C5.9749434,7.27475503 5.92084906,7.66842965 5.60303774,8.12479899 C5.06588679,8.21932161 4.68816981,8.09683417 4.47081132,7.75814698 L4.47081132,7.75814698 Z M7.32739623,9.57397613 C7.26364151,9.79104271 7.11777358,9.97147613 6.88783019,10.117142 C6.65211321,10.2667085 6.42024528,10.3274435 6.19324528,10.2946922 C5.96624528,10.2618656 5.78943396,10.1489322 5.66479245,9.9531407 C5.42526415,9.5758794 5.48998113,9.12531407 5.86386792,8.60334799 C6.53332075,8.45472362 6.99411321,8.57728643 7.24528302,8.96992462 C7.36313208,9.1581407 7.39209434,9.35881281 7.32739623,9.57397613 L7.32739623,9.57397613 Z" sketch:type="MSShapeGroup"></path>
                <path d="M12.8086604,2.19499372 C11.3915094,0.779604271 9.50773585,0 7.50420755,0 C5.49962264,0 3.61586792,0.779604271 2.19773585,2.19499372 C0.780584906,3.61036432 0,5.49177136 0,7.4938191 C0,9.49579146 0.780584906,11.3771985 2.19679245,12.7935302 C3.61490566,14.208995 5.49867925,14.9885992 7.50316981,14.9885992 C9.50677358,14.9885992 11.3895849,14.2080339 12.807717,12.7945666 C14.2249434,11.3781595 15.0044906,9.49675251 15.0044906,7.49478015 C15.0044906,5.49273241 14.2258302,3.61036432 12.8086604,2.19499372 L12.8086604,2.19499372 Z M12.3073396,12.2918781 C11.0243962,13.5721922 9.31743396,14.2794347 7.50420755,14.2794347 C5.68898113,14.2794347 3.98298113,13.5740955 2.70009434,12.2918781 C1.41715094,11.0105465 0.711018868,9.30572864 0.711018868,7.4938191 C0.711018868,5.68183417 1.41715094,3.97797739 2.7010566,2.69672111 C3.98392453,1.41442839 5.68992453,0.709164573 7.50515094,0.709164573 C9.31839623,0.709164573 11.0263208,1.41442839 12.3092642,2.69672111 C13.5902075,3.97701633 14.2953962,5.68183417 14.2953962,7.4938191 C14.2953962,9.30572864 13.5902075,11.0105465 12.3073396,12.2918781 L12.3073396,12.2918781 Z M6.88877358,4.71797111 C5.94884906,4.28191583 4.9519434,4.25967965 4.08150943,4.65429648 C3.21109434,5.04893216 2.57156604,5.81212312 2.27984906,6.80681533 C1.98813208,7.79864322 2.08084906,8.90146357 2.53971698,9.91066583 C2.99860377,10.9198681 3.76754717,11.7158857 4.7074717,12.1500377 C5.6474717,12.5851508 6.64437736,12.6083291 7.51577358,12.2117902 C8.38620755,11.8181344 9.02571698,11.0550188 9.31743396,10.0611935 C9.60915094,9.06746231 9.51643396,7.9666206 9.05564151,6.95640075 C8.59773585,5.94719849 7.82783019,5.15212312 6.88877358,4.71797111 L6.88877358,4.71797111 Z M8.68662264,9.76984296 C8.449,10.5860427 7.9224717,11.2131972 7.20762264,11.5373744 C6.49277358,11.8615515 5.6745283,11.8403518 4.90264151,11.483348 C4.13083019,11.1263442 3.49896226,10.4741457 3.12226415,9.64537688 C2.74550943,8.81755025 2.67018868,7.91155779 2.90875472,7.09537688 C3.14828302,6.28006281 3.67290566,5.65290829 4.38775472,5.32873116 C5.10260377,5.00549623 5.92084906,5.02383166 6.69273585,5.38083543 C7.46454717,5.7378392 8.09632075,6.39194095 8.47213208,7.22072864 C8.85083019,8.05149497 8.92622642,8.95645101 8.68662264,9.76984296 L8.68662264,9.76984296 Z M6.15558491,8.08520729 L6.15079245,8.0765201 C6.50043396,7.51119347 6.53235849,7.00364322 6.24543396,6.55307789 C6.06573585,6.27329774 5.8155283,6.1121608 5.49388679,6.06968593 C5.17120755,6.02728643 4.84854717,6.10833543 4.52490566,6.31481156 C4.17135849,6.53858668 3.94045283,6.81646357 3.83130189,7.14932789 C3.72501887,7.48219221 3.76658491,7.79768216 3.95688679,8.09683417 C4.22928302,8.52422111 4.68137736,8.6978706 5.30837736,8.61393844 L5.31611321,8.62454774 C4.88524528,9.22948492 4.8350566,9.79104271 5.16539623,10.309108 C5.36637736,10.6236558 5.64262264,10.8070101 5.99330189,10.8610553 C6.34588679,10.9160427 6.7004717,10.8272676 7.05977358,10.5995163 C7.49645283,10.3207538 7.77277358,10.0043028 7.88966038,9.64824121 C8.00656604,9.2931407 7.95533962,8.94682161 7.74086792,8.61003769 C7.41435849,8.09683417 6.8849434,7.92120603 6.15558491,8.08520729 L6.15558491,8.08520729 Z M4.47081132,7.75814698 C4.36358491,7.58928392 4.33749057,7.40886935 4.39549057,7.21786432 C4.45437736,7.02780151 4.57516981,6.8743907 4.75583019,6.75859296 C4.94996226,6.63508794 5.13833962,6.5897299 5.31801887,6.62257538 C5.49867925,6.65436558 5.6474717,6.76147613 5.76341509,6.94285176 C5.9749434,7.27475503 5.92084906,7.66842965 5.60303774,8.12479899 C5.06588679,8.21932161 4.68816981,8.09683417 4.47081132,7.75814698 L4.47081132,7.75814698 Z M7.32739623,9.57397613 C7.26364151,9.79104271 7.11777358,9.97147613 6.88783019,10.117142 C6.65211321,10.2667085 6.42024528,10.3274435 6.19324528,10.2946922 C5.96624528,10.2618656 5.78943396,10.1489322 5.66479245,9.9531407 C5.42526415,9.5758794 5.48998113,9.12531407 5.86386792,8.60334799 C6.53332075,8.45472362 6.99411321,8.57728643 7.24528302,8.96992462 C7.36313208,9.1581407 7.39209434,9.35881281 7.32739623,9.57397613 L7.32739623,9.57397613 Z" sketch:type="MSShapeGroup"></path>
            </g>
        </g>
    </g>
</svg>