<?xml version="1.0" encoding="UTF-8" standalone="no"?>
<svg width="17px" height="15px" viewBox="0 0 17 15" version="1.1" xmlns="http://www.w3.org/2000/svg" xmlns:xlink="http://www.w3.org/1999/xlink" xmlns:sketch="http://www.bohemiancoding.com/sketch/ns">
    <!-- Generator: Sketch 3.4 (15575) - http://www.bohemiancoding.com/sketch -->
    <title>tea</title>
    <desc>Created with Sketch.</desc>
    <defs></defs>
    <g id="Page-1-Copy" stroke="none" stroke-width="1" fill="none" fill-rule="evenodd" sketch:type="MSPage">
        <g id="icon" sketch:type="MSArtboardGroup" transform="translate(-228.000000, -214.000000)" fill="#555555">
            <path d="M242.019843,226.144789 C240.953045,227.852018 239.064206,228.986235 236.909074,228.986235 C235.045497,228.986235 233.380763,228.138404 232.274617,226.803102 C232.059633,226.800994 230.986222,226.736145 230.156326,225.698645 C229.514098,224.894096 229.170493,224.033434 229.168917,222.566928 L229.180664,222.415994 C229.180664,222.41491 229.240546,221.807108 229.084132,221.57003 C228.915612,221.31247 228.534975,221.171265 228.010362,221.182801 L228,219.771265 C228.015758,219.770211 228.031063,219.770211 228.046822,219.770211 C228.919146,219.770211 229.555882,220.078464 229.940149,220.68759 C230.346048,221.329639 230.312478,222.066777 230.283086,222.332681 C230.291395,223.375482 230.505805,224.166958 230.919917,224.686205 C231.021846,224.812078 231.131629,224.917048 231.241317,225.001747 C231.006087,224.356054 230.878587,223.658102 230.878587,222.929789 C230.878587,221.264337 231.547413,219.75762 232.630709,218.661627 L241.189015,218.661627 C241.245722,218.718102 241.299993,218.77753 241.353428,218.836596 C241.941027,218.458916 242.87118,218.061566 243.649765,218.369849 C244.137178,218.561506 244.551935,218.96247 244.768972,219.658434 C245.588147,222.287259 244.341346,223.896235 242.019843,226.144789 L242.019843,226.144789 Z M240.72025,219.353343 L233.145747,219.353343 C232.24458,219.988584 231.8149,221.493193 231.8149,221.493193 C231.8149,221.493193 231.364997,223.166988 232.012907,224.839608 C232.364726,225.747831 232.589499,226.154699 233.338334,226.8125 C234.344868,227.696837 235.296677,227.912741 235.296677,227.912741 C235.296677,227.912741 236.332483,227.896024 238.492462,227.912741 C240.818549,227.116295 241.883747,224.712199 241.883747,224.712199 C241.883747,224.712199 242.372473,223.60256 241.995584,221.740964 C241.716899,220.364036 240.72025,219.353343 240.72025,219.353343 L240.72025,219.353343 Z M244.332941,219.883042 C244.169364,219.359578 243.861764,219.087078 243.512667,218.949066 C242.946247,218.723976 242.235566,218.97506 241.722032,219.281205 C242.486531,220.294729 242.941209,221.558946 242.941209,222.929789 C242.941209,223.550452 242.847208,224.151205 242.673722,224.71491 C244.34051,222.94497 244.911872,221.745452 244.332941,219.883042 L244.332941,219.883042 Z M232.709072,218.447952 C233.284708,216.738042 234.470315,215.450843 235.913548,215.038584 C236.010438,214.445572 236.419608,214 236.909074,214 C237.400212,214 237.809,214.445572 237.90675,215.038584 C239.349124,215.450723 240.53473,216.739096 241.11039,218.447952 L232.709072,218.447952 L232.709072,218.447952 Z M237.327747,215.608524 C237.327747,215.441446 237.16331,215.070934 236.90375,215.073645 C236.545699,215.077289 236.479657,215.608524 236.479657,215.608524 C236.479657,215.608524 234.796657,215.591807 233.93534,217.748373 L239.87216,217.748373 C239.87216,217.748373 239.275823,215.959608 237.327747,215.608524 L237.327747,215.608524 Z" id="tea" sketch:type="MSShapeGroup"></path>
        </g>
    </g>
</svg>