<?xml version="1.0" encoding="UTF-8" standalone="no"?>
<svg width="16px" height="15px" viewBox="0 0 16 15" version="1.1" xmlns="http://www.w3.org/2000/svg" xmlns:xlink="http://www.w3.org/1999/xlink" xmlns:sketch="http://www.bohemiancoding.com/sketch/ns">
    <!-- Generator: Sketch 3.4 (15575) - http://www.bohemiancoding.com/sketch -->
    <title>wenquan</title>
    <desc>Created with Sketch.</desc>
    <defs></defs>
    <g id="Page-1-Copy" stroke="none" stroke-width="1" fill="none" fill-rule="evenodd" sketch:type="MSPage">
        <g id="icon" sketch:type="MSArtboardGroup" transform="translate(-116.000000, -216.000000)" stroke-linecap="round" stroke="#555555">
            <g id="wenquan" sketch:type="MSLayerGroup" transform="translate(117.000000, 216.000000)">
                <path d="M12.5244,6.37259259 C13.3115613,7.13481481 13.7740129,8.06711111 13.7740129,9.07407407 C13.7740129,11.6516296 10.7414323,13.7407407 6.99981935,13.7407407 C3.25865806,13.7407407 0.225625806,11.6516296 0.225625806,9.07407407 C0.225625806,7.87837037 0.878206452,6.78792593 1.95169032,5.96244444" id="Stroke-1" sketch:type="MSShapeGroup"></path>
                <path d="M4.18030968,0.392103704 C4.18030968,0.392103704 2.44024516,1.90980741 4.18030968,4.36965926 C5.92037419,6.82951111 4.18030968,8.29536296 4.18030968,8.29536296" id="Stroke-3" sketch:type="MSShapeGroup"></path>
                <path d="M6.01995484,0.392103704 C6.01995484,0.392103704 4.27989032,1.90980741 6.01995484,4.36965926 C7.76001935,6.82951111 6.01995484,8.29536296 6.01995484,8.29536296" id="Stroke-5" sketch:type="MSShapeGroup"></path>
                <path d="M7.91483226,0.392103704 C7.91483226,0.392103704 6.17476774,1.90980741 7.91483226,4.36965926 C9.65489677,6.82951111 7.91483226,8.29536296 7.91483226,8.29536296" id="Stroke-7" sketch:type="MSShapeGroup"></path>
                <path d="M9.72146452,0.392103704 C9.72146452,0.392103704 7.9814,1.90980741 9.72146452,4.36965926 C11.461529,6.82951111 9.72146452,8.29536296 9.72146452,8.29536296" id="Stroke-9" sketch:type="MSShapeGroup"></path>
            </g>
        </g>
    </g>
</svg>