<?xml version="1.0" encoding="UTF-8" standalone="no"?>
<svg width="17px" height="17px" viewBox="0 0 17 17" version="1.1" xmlns="http://www.w3.org/2000/svg" xmlns:xlink="http://www.w3.org/1999/xlink" xmlns:sketch="http://www.bohemiancoding.com/sketch/ns">
    <!-- Generator: Sketch 3.4 (15575) - http://www.bohemiancoding.com/sketch -->
    <title>wuyanfang</title>
    <desc>Created with Sketch.</desc>
    <defs></defs>
    <g id="Page-1-Copy" stroke="none" stroke-width="1" fill="none" fill-rule="evenodd" sketch:type="MSPage">
        <g id="icon" sketch:type="MSArtboardGroup" transform="translate(-228.000000, -511.000000)">
            <g id="wuyanfang" sketch:type="MSLayerGroup" transform="translate(225.000000, 508.000000)">
                <circle id="Oval-176" stroke="#555555" sketch:type="MSShapeGroup" transform="translate(11.500000, 11.500000) rotate(-315.000000) translate(-11.500000, -11.500000) " cx="11.5" cy="11.5" r="7.5"></circle>
                <path d="M7,7 L16.8994949,16.8994949" id="Line" stroke="#555555" stroke-linecap="square" sketch:type="MSShapeGroup"></path>
                <path d="M14.1796301,7.44551613 C13.8494065,7.34419355 13.5375081,7.24832258 13.4022317,7.06106452 C13.0102033,6.51783871 13.0201911,5.85619355 13.0580935,5.72525806 C13.1494634,5.45332258 13.0295244,5.14864516 12.7897886,5.04432258 C12.5495691,4.93970968 12.2800407,5.07554839 12.1877602,5.34787097 C12.0298333,5.81409677 12.0773821,6.8936129 12.6811748,7.73003226 C13.0056504,8.1793871 13.4999472,8.33122581 13.9359959,8.46506452 C14.293252,8.57480645 14.6305894,8.67851613 14.825565,8.9123871 C15.0439593,9.17448387 15.1057642,9.64512903 15.0145081,10.3513871 C14.9772886,10.6399355 15.1534553,10.9080968 15.4079878,10.9504194 C15.4308943,10.9542258 15.453687,10.9560968 15.4761382,10.9560968 C15.7035528,10.9560968 15.9025122,10.7669677 15.9365447,10.5043548 C16.0717073,9.45735484 15.9298577,8.69941935 15.5030285,8.18706452 C15.1276748,7.73670968 14.6240447,7.582 14.1796301,7.44551613 L14.1796301,7.44551613 Z" id="Fill-1" fill="#555555" sketch:type="MSShapeGroup"></path>
                <path d="M14.7001593,11.7692258 L6.29984066,11.7692258 C6.13421491,11.7692258 6,11.9368468 6,12.1436968 L6,14.3947319 C6,14.6015819 6.13428817,14.7692258 6.29984066,14.7692258 L14.7001593,14.7692258 C14.8657668,14.7692258 15,14.6015819 15,14.3947319 L15,12.1436968 C15,11.9368468 14.8657668,11.7692258 14.7001593,11.7692258 L14.7001593,11.7692258 Z M12.6270078,14.0201694 L6.75715672,14.0201694 C6.67437133,14.0201694 6.60726387,13.9363588 6.60726387,13.832991 L6.60726387,12.7054606 C6.60726387,12.6020699 6.67437133,12.5182594 6.75715672,12.5182594 L12.6270078,12.5182594 L12.6270078,14.0201694 L12.6270078,14.0201694 Z M14.4077547,13.832991 C14.4077547,13.9363588 14.3406473,14.0201694 14.2577886,14.0201694 L13.2267624,14.0201694 L13.2267624,12.5181679 L14.2577886,12.5181679 C14.3406473,12.5181679 14.4077547,12.6020699 14.4077547,12.7054606 L14.4077547,13.832991 L14.4077547,13.832991 Z" id="Fill-2" fill="#555555" sketch:type="MSShapeGroup" transform="translate(10.500000, 13.269226) rotate(-30.000000) translate(-10.500000, -13.269226) "></path>
            </g>
        </g>
    </g>
</svg>