<?xml version="1.0" encoding="UTF-8" standalone="no"?>
<svg width="13px" height="16px" viewBox="0 0 13 16" version="1.1" xmlns="http://www.w3.org/2000/svg" xmlns:xlink="http://www.w3.org/1999/xlink" xmlns:sketch="http://www.bohemiancoding.com/sketch/ns">
    <!-- Generator: Sketch 3.4 (15575) - http://www.bohemiancoding.com/sketch -->
    <title>wuzhangaishehsi</title>
    <desc>Created with Sketch.</desc>
    <defs></defs>
    <g id="Page-1-Copy" stroke="none" stroke-width="1" fill="none" fill-rule="evenodd" sketch:type="MSPage">
        <g id="icon" sketch:type="MSArtboardGroup" transform="translate(-229.000000, -340.000000)">
            <g id="wuzhangaishehsi" sketch:type="MSLayerGroup" transform="translate(230.000000, 341.000000)">
                <path d="M6.08333333,2.04166667 C6.08333333,3.16925 5.16925,4.08333333 4.04166667,4.08333333 C2.91408333,4.08333333 2,3.16925 2,2.04166667 C2,0.914083333 2.91408333,0 4.04166667,0 C5.16925,0 6.08333333,0.914083333 6.08333333,2.04166667 L6.08333333,2.04166667 Z" id="Page-1" stroke="#555555" sketch:type="MSShapeGroup"></path>
                <path d="M4.12035556,8.389975 L4.12035556,8.389975 C3.87502222,8.389975 3.67591111,8.18464167 3.67591111,7.93164167 L3.67591111,4.264975 C3.67591111,4.011975 3.87502222,3.80664167 4.12035556,3.80664167 L4.12035556,3.80664167 C4.36568889,3.80664167 4.5648,4.011975 4.5648,4.264975 L4.5648,7.93164167 C4.5648,8.18464167 4.36568889,8.389975 4.12035556,8.389975" id="Fill-3" fill="#555555" sketch:type="MSShapeGroup"></path>
                <g id="Group-7" transform="translate(9.333333, 10.666667)" fill="#555555" sketch:type="MSShapeGroup">
                    <path d="M0.564666667,1.67276667 L0.564666667,1.67276667 C0.442,1.45368333 0.514888889,1.17318333 0.727777778,1.04668333 L1.594,0.531516667 C1.80644444,0.405016667 2.07844444,0.480641667 2.20111111,0.699725 L2.20111111,0.699725 C2.32377778,0.918808333 2.25044444,1.19930833 2.038,1.32580833 L1.17177778,1.840975 C0.958888889,1.967475 0.687333333,1.89185 0.564666667,1.67276667" id="Fill-5"></path>
                </g>
                <path d="M3.69444444,8.01914167 L3.69444444,8.01914167 C3.69444444,7.74314167 3.89355556,7.51914167 4.13888889,7.51914167 L7.99266667,7.51914167 C8.238,7.51914167 8.43711111,7.74314167 8.43711111,8.01914167 L8.43711111,8.01914167 C8.43711111,8.29514167 8.238,8.51914167 7.99266667,8.51914167 L4.13888889,8.51914167 C3.89355556,8.51914167 3.69444444,8.29514167 3.69444444,8.01914167" id="Fill-8" fill="#555555" sketch:type="MSShapeGroup"></path>
                <path d="M7.80591111,7.61383333 L7.80591111,7.61383333 C8.01968889,7.48916667 8.2908,7.566625 8.41168889,7.78708333 L10.6583556,11.8850417 C10.7792444,12.1050417 10.7041333,12.3850833 10.4903556,12.5092917 L10.4903556,12.5092917 C10.2765778,12.6339583 10.0054667,12.5565 9.88457778,12.3360417 L7.63791111,8.23854167 C7.51702222,8.01808333 7.59213333,7.7385 7.80591111,7.61383333" id="Fill-10" fill="#555555" sketch:type="MSShapeGroup"></path>
                <path d="M8.70871111,10.0616542 C8.70871111,12.4784458 6.80915556,14.4373625 4.4656,14.4373625 C2.12204444,14.4373625 0.222044444,12.4784458 0.222044444,10.0616542 C0.222044444,7.6448625 2.12204444,5.68594583 4.4656,5.68594583" id="Stroke-12" stroke="#555555" stroke-linecap="round" sketch:type="MSShapeGroup"></path>
                <path id="Fill-14" fill="#555555" sketch:type="MSShapeGroup" d="M7.61804444,5.914975 L3.80782222,5.914975 C3.6856,5.914975 3.5856,5.81185 3.5856,5.68580833 C3.5856,5.55976667 3.6856,5.45664167 3.80782222,5.45664167 L7.61804444,5.45664167 C7.74026667,5.45664167 7.84026667,5.55976667 7.84026667,5.68580833 C7.84026667,5.81185 7.74026667,5.914975 7.61804444,5.914975"></path>
            </g>
        </g>
    </g>
</svg>