<?xml version="1.0" encoding="UTF-8" standalone="no"?>
<svg width="17px" height="16px" viewBox="0 0 17 16" version="1.1" xmlns="http://www.w3.org/2000/svg" xmlns:xlink="http://www.w3.org/1999/xlink" xmlns:sketch="http://www.bohemiancoding.com/sketch/ns">
    <!-- Generator: Sketch 3.4 (15575) - http://www.bohemiancoding.com/sketch -->
    <title>xiedaichongwu</title>
    <desc>Created with Sketch.</desc>
    <defs></defs>
    <g id="Page-1-Copy" stroke="none" stroke-width="1" fill="none" fill-rule="evenodd" sketch:type="MSPage">
        <g id="icon" sketch:type="MSArtboardGroup" transform="translate(-115.000000, -463.000000)" stroke-linecap="round" stroke="#555555">
            <g id="xiedaichongwu" sketch:type="MSLayerGroup" transform="translate(116.000000, 464.000000)">
                <path d="M4.77626786,5.31342857 C4.77626786,5.31342857 3.42573214,7.87896429 3.21894643,8.01128571 C3.01269643,8.14307143 2.18716071,8.65253571 2.11216071,8.5395 C2.03716071,8.42646429 1.54966071,6.63396429 0.967875,6.42664286 C0.386089286,6.21878571 0.142339286,3.89860714 0.329839286,3.78557143 C0.517875,3.672 3.50073214,0.635035714 4.00698214,0.502714286 C4.51376786,0.370392857 7.477875,0.144321429 7.984125,0.351642857 C8.49091071,0.5595 10.7232321,2.44575 10.7982321,2.84217857 C10.8732321,3.23807143 10.7607321,3.76628571 11.0232321,4.20021429 C11.2862679,4.63414286 13.0310893,6.29432143 13.3310893,6.38860714 C13.6310893,6.48289286 14.550375,6.31307143 14.681625,6.80378571 C14.812875,7.2945 14.662875,8.14307143 14.512875,8.25664286 C14.362875,8.36967857 13.0310893,9.99182143 12.6368036,10.0866429 C12.2430536,10.1809286 6.53555357,9.99235714 6.23983929,10.38825 C5.94358929,10.7841429 3.12144643,14.3659286 3.17769643,14.7323571" id="Stroke-1" sketch:type="MSShapeGroup"></path>
                <path d="M8.307,3.80657143 L8.307,4.76657143" id="Stroke-3" stroke-width="2" sketch:type="MSShapeGroup"></path>
            </g>
        </g>
    </g>
</svg>