<?xml version="1.0" encoding="UTF-8" standalone="no"?>
<svg width="17px" height="17px" viewBox="0 0 17 17" version="1.1" xmlns="http://www.w3.org/2000/svg" xmlns:xlink="http://www.w3.org/1999/xlink" xmlns:sketch="http://www.bohemiancoding.com/sketch/ns">
    <!-- Generator: Sketch 3.4 (15575) - http://www.bohemiancoding.com/sketch -->
    <title>xinglijicun</title>
    <desc>Created with Sketch.</desc>
    <defs></defs>
    <g id="Page-1-Copy" stroke="none" stroke-width="1" fill="none" fill-rule="evenodd" sketch:type="MSPage">
        <g id="icon" sketch:type="MSArtboardGroup" transform="translate(-169.000000, -511.000000)" stroke="#555555">
            <g id="xinglijicun" sketch:type="MSLayerGroup" transform="translate(170.000000, 512.000000)">
                <path d="M9.88636364,3.20242857 L5.11363636,3.20242857 L5.11363636,1.05957143 C5.11363636,0.665285714 5.41909091,0.345285714 5.79545455,0.345285714 L9.20454545,0.345285714 C9.58090909,0.345285714 9.88636364,0.665285714 9.88636364,1.05957143 L9.88636364,3.20242857 L9.88636364,3.20242857 Z" id="Stroke-1" sketch:type="MSShapeGroup"></path>
                <path d="M13.9772727,3.21428571 L1.02272727,3.21428571 C0.646363636,3.21428571 0.340909091,3.53428571 0.340909091,3.92857143 L0.340909091,12.5 C0.340909091,12.8942857 0.646363636,13.2142857 1.02272727,13.2142857 L3.03681818,13.2142857 C3.03681818,14.0035714 3.64772727,14.6428571 4.40045455,14.6428571 C5.15386364,14.6428571 5.76409091,14.0035714 5.76409091,13.2142857 L9.20590909,13.2142857 C9.21545455,13.9942857 9.82022727,14.6242857 10.5675,14.6242857 C11.3147727,14.6242857 11.9195455,13.9942857 11.9290909,13.2142857 L13.9772727,13.2142857 C14.3536364,13.2142857 14.6590909,12.8942857 14.6590909,12.5 L14.6590909,3.92857143 C14.6590909,3.53428571 14.3536364,3.21428571 13.9772727,3.21428571 L13.9772727,3.21428571 Z" id="Stroke-3" sketch:type="MSShapeGroup"></path>
                <path d="M5.11363636,5.39585714 L5.11363636,11.1101429" id="Stroke-5" stroke-linecap="round" sketch:type="MSShapeGroup"></path>
                <path d="M9.88636364,5.39585714 L9.88636364,11.1101429" id="Stroke-7" stroke-linecap="round" sketch:type="MSShapeGroup"></path>
            </g>
        </g>
    </g>
</svg>