<?xml version="1.0" encoding="UTF-8" standalone="no"?>
<svg width="15px" height="18px" viewBox="0 0 15 18" version="1.1" xmlns="http://www.w3.org/2000/svg" xmlns:xlink="http://www.w3.org/1999/xlink" xmlns:sketch="http://www.bohemiancoding.com/sketch/ns">
    <!-- Generator: Sketch 3.4 (15575) - http://www.bohemiancoding.com/sketch -->
    <title>xishi canting</title>
    <desc>Created with Sketch.</desc>
    <defs></defs>
    <g id="Page-1-Copy" stroke="none" stroke-width="1" fill="none" fill-rule="evenodd" sketch:type="MSPage">
        <g id="icon" sketch:type="MSArtboardGroup" transform="translate(-170.000000, -91.000000)">
            <g id="xishi-canting" sketch:type="MSLayerGroup" transform="translate(171.000000, 92.000000)">
                <path d="M10.8521682,4.60625455 L10.8521682,0.849648485 C10.8521682,0.64649697 10.6580349,0.481648485 10.4185272,0.481648485 L9.02685538,0.481648485 C8.78734769,0.481648485 8.59321436,0.64649697 8.59321436,0.849648485 L8.59321436,4.60625455 C8.59321436,4.75704242 8.48121436,4.88649697 8.31809641,4.94661818 C7.15099897,5.37910303 6.33426051,6.32892121 6.33426051,7.42710303 L6.33426051,15.3897697 C6.33426051,15.5929212 6.52896821,15.7577697 6.7684759,15.7577697 L12.677481,15.7577697 C12.9169887,15.7577697 13.1111221,15.5929212 13.1111221,15.3897697 L13.1111221,7.42710303 C13.1111221,6.32892121 12.2943836,5.37910303 11.1272862,4.94661818 C10.9641682,4.88649697 10.8521682,4.75704242 10.8521682,4.60625455 L10.8521682,4.60625455 Z" id="Stroke-1" stroke="#555555" sketch:type="MSShapeGroup"></path>
                <path d="M12.9816615,8.67032727 L6.33460513,8.67032727 L6.33460513,7.88072727 L12.9816615,7.88072727 L12.9816615,8.67032727 Z" id="Fill-3" fill="#555555" sketch:type="MSShapeGroup"></path>
                <path d="M12.9816615,14.4453576 L6.33460513,14.4453576 L6.33460513,13.6557576 L12.9816615,13.6557576 L12.9816615,14.4453576 Z" id="Fill-5" fill="#555555" sketch:type="MSShapeGroup"></path>
                <path d="M0.287179487,6.81386667 L0.287179487,10.3668364 C0.287179487,11.0756848 0.844882051,11.7384727 1.6673641,11.865503 C2.73567179,12.0308364 3.67532308,11.3307152 3.67532308,10.4536242 L3.67532308,6.81386667 C3.67532308,6.79689697 3.65924103,6.78283636 3.63913846,6.78283636 L0.323364103,6.78283636 C0.303261538,6.78283636 0.287179487,6.79689697 0.287179487,6.81386667 L0.287179487,6.81386667 Z" id="Stroke-7" stroke="#555555" sketch:type="MSShapeGroup"></path>
                <path d="M2.30547692,15.7575758 L1.6576,15.7575758 L1.6576,11.8899394 L2.30547692,11.8899394 L2.30547692,15.7575758 Z" id="Fill-8" fill="#555555" sketch:type="MSShapeGroup"></path>
            </g>
        </g>
    </g>
</svg>