<?xml version="1.0" encoding="UTF-8" standalone="no"?>
<svg width="15px" height="17px" viewBox="0 0 15 17" version="1.1" xmlns="http://www.w3.org/2000/svg" xmlns:xlink="http://www.w3.org/1999/xlink" xmlns:sketch="http://www.bohemiancoding.com/sketch/ns">
    <!-- Generator: Sketch 3.4 (15575) - http://www.bohemiancoding.com/sketch -->
    <title>xiyifuwu</title>
    <desc>Created with Sketch.</desc>
    <defs></defs>
    <g id="Page-1-Copy" stroke="none" stroke-width="1" fill="none" fill-rule="evenodd" sketch:type="MSPage">
        <g id="icon" sketch:type="MSArtboardGroup" transform="translate(-116.000000, -421.000000)">
            <g id="xiyifuwu" sketch:type="MSLayerGroup" transform="translate(117.000000, 422.000000)">
                <path d="M10.930816,14.7376762 L10.104016,14.7382 C10.026536,14.7382 9.955296,14.6947238 9.919416,14.625581 L9.521616,13.8561048 C9.278776,13.6151524 8.952216,13.4805333 8.611616,13.4805333 L4.513496,13.4805333 C4.201496,13.4805333 3.900416,13.5936762 3.664336,13.7995333 L3.132376,14.636581 C3.094416,14.6962952 3.028896,14.7324381 2.958176,14.7329619 L2.068976,14.7376762 C0.788216,14.7376762 0.259896,13.6816762 0.259896,12.3915333 L0.259896,0.594819048 C0.259896,0.30672381 0.493896,0.0710095238 0.779896,0.0710095238 L12.219896,0.0710095238 C12.505896,0.0710095238 12.739896,0.30672381 12.739896,0.594819048 L12.739896,12.9142952 C12.739896,13.9168667 11.926096,14.7371524 10.930816,14.7376762 L10.930816,14.7376762 Z" id="Stroke-1" stroke="#555555" stroke-linecap="round" sketch:type="MSShapeGroup"></path>
                <path d="M12.74,2.79942857 L0.26,2.79942857 L0.26,2.27561905 L12.74,2.27561905 L12.74,2.79942857 Z" id="Fill-3" fill="#555555" sketch:type="MSShapeGroup"></path>
                <path d="M2.81684,0.0709047619 L3.33684,0.0709047619 L3.33684,2.79890476 L2.81684,2.79890476 L2.81684,0.0709047619 Z" id="Fill-5" fill="#555555" sketch:type="MSShapeGroup"></path>
                <path d="M11.43844,1.58261905 L10.39844,1.58261905 L10.39844,1.05880952 L11.43844,1.05880952 L11.43844,1.58261905 Z" id="Fill-6" fill="#555555" sketch:type="MSShapeGroup"></path>
                <path d="M9.635652,7.77535714 C9.635652,9.5112619 8.238932,10.9182143 6.515652,10.9182143 C4.792372,10.9182143 3.395652,9.5112619 3.395652,7.77535714 C3.395652,6.03945238 4.792372,4.6325 6.515652,4.6325 C8.238932,4.6325 9.635652,6.03945238 9.635652,7.77535714 L9.635652,7.77535714 Z" id="Stroke-7" stroke="#555555" sketch:type="MSShapeGroup"></path>
                <path d="M3.459144,7.9591619 C3.459144,7.9591619 4.753424,6.15201905 6.454864,7.71035238 C8.156304,9.26868571 9.635704,7.9591619 9.635704,7.9591619" id="Stroke-8" stroke="#555555" stroke-linecap="round" sketch:type="MSShapeGroup"></path>
            </g>
        </g>
    </g>
</svg>