<?xml version="1.0" encoding="UTF-8" standalone="no"?>
<svg width="18px" height="12px" viewBox="0 0 18 12" version="1.1" xmlns="http://www.w3.org/2000/svg" xmlns:xlink="http://www.w3.org/1999/xlink" xmlns:sketch="http://www.bohemiancoding.com/sketch/ns">
    <!-- Generator: Sketch 3.4 (15575) - http://www.bohemiancoding.com/sketch -->
    <title>yunyifuwu</title>
    <desc>Created with Sketch.</desc>
    <defs></defs>
    <g id="Page-1-Copy" stroke="none" stroke-width="1" fill="none" fill-rule="evenodd" sketch:type="MSPage">
        <g id="icon" sketch:type="MSArtboardGroup" transform="translate(-169.000000, -429.000000)" fill="#555555">
            <g id="yunyifuwu" sketch:type="MSLayerGroup" transform="translate(169.000000, 429.000000)">
                <g id="熨衣服务" sketch:type="MSShapeGroup">
                    <g id="Group-3">
                        <path d="M1.17894,9.97408421 C0.94914,9.62418947 0.57474,8.89534737 0.57474,8.22524211 L13.80174,8.22524211 C13.97454,8.22524211 14.08974,8.1084 14.08974,7.93345263 C14.08974,7.75850526 13.97454,7.64229474 13.80174,7.64229474 L0.60414,7.64229474 C0.66114,7.11745263 0.80514,6.85534737 0.97734,6.56355789 C1.20774,6.15555789 1.46634,5.68882105 1.46634,4.72692632 C1.46634,3.91092632 0.94914,3.18208421 0.71874,2.89092632 C0.60414,2.74503158 0.57474,2.48292632 0.57474,2.10397895 L0.57474,1.22924211 C0.57474,1.05429474 0.68994,0.937452632 0.86274,0.937452632 L9.48894,0.937452632 C11.41554,0.937452632 12.91074,1.87029474 14.08974,3.26987368 L15.58494,5.57261053 C16.30374,6.94250526 16.87854,8.48734737 17.33874,9.97408421 L1.17894,9.97408421 Z M9.48894,0.354505263 L0.57474,0.354505263 C0.25854,0.354505263 -6e-05,0.617242105 -6e-05,0.937452632 L-6e-05,2.10397895 C-6e-05,2.51197895 0.02874,2.94903158 0.28734,3.26987368 C0.51774,3.56103158 0.89154,4.14397895 0.89154,4.72692632 C0.89154,6.4764 -6e-05,6.12650526 -6e-05,8.22524211 C-6e-05,9.36208421 0.86274,10.5570316 0.86274,10.5570316 L17.71254,10.5570316 C17.88534,10.5570316 17.99994,10.4111368 17.99994,10.2658737 L17.99994,10.1780842 C16.61994,5.71850526 14.34834,0.354505263 9.48894,0.354505263 L9.48894,0.354505263 Z" id="Fill-1"></path>
                    </g>
                    <path d="M8.91378,5.6016 C8.91378,5.28075789 8.65518,5.01865263 8.33898,5.01865263 L6.32598,5.01865263 C6.00978,5.01865263 5.75058,5.28075789 5.75058,5.6016 L3.45018,5.6016 C3.27798,5.6016 3.16278,5.48475789 3.16278,5.31044211 L3.16278,3.26981053 C3.16278,3.09486316 3.27798,2.97802105 3.45018,2.97802105 L9.20118,2.97802105 C10.46658,2.97802105 11.61678,4.46475789 12.19158,5.6016 L8.91378,5.6016 Z M12.91038,5.8056 C12.36438,4.40665263 10.89798,2.39507368 9.20118,2.39507368 L3.45018,2.39507368 C2.96178,2.39507368 2.58798,2.77402105 2.58798,3.26981053 L2.58798,5.31044211 C2.58798,5.8056 2.96178,6.18454737 3.45018,6.18454737 L6.32598,6.18454737 L8.33898,6.18454737 L12.65178,6.18454737 C12.73818,6.18454737 12.82458,6.12644211 12.88158,6.06833684 C12.93918,5.98054737 12.93918,5.89338947 12.91038,5.8056 L12.91038,5.8056 Z" id="Fill-4"></path>
                    <path d="M17.8275,11.5578947 C17.8275,11.412 17.6835,11.2667368 17.5401,11.2667368 L0.8625,11.2667368 C0.7191,11.2667368 0.5751,11.412 0.5751,11.5578947 C0.5751,11.7037895 0.7191,11.8496842 0.8625,11.8496842 L17.5401,11.8496842 C17.6835,11.8496842 17.8275,11.7037895 17.8275,11.5578947" id="Fill-6"></path>
                </g>
                <g id="熨衣服务" sketch:type="MSShapeGroup">
                    <g id="Group-3">
                        <path d="M1.17894,9.97408421 C0.94914,9.62418947 0.57474,8.89534737 0.57474,8.22524211 L13.80174,8.22524211 C13.97454,8.22524211 14.08974,8.1084 14.08974,7.93345263 C14.08974,7.75850526 13.97454,7.64229474 13.80174,7.64229474 L0.60414,7.64229474 C0.66114,7.11745263 0.80514,6.85534737 0.97734,6.56355789 C1.20774,6.15555789 1.46634,5.68882105 1.46634,4.72692632 C1.46634,3.91092632 0.94914,3.18208421 0.71874,2.89092632 C0.60414,2.74503158 0.57474,2.48292632 0.57474,2.10397895 L0.57474,1.22924211 C0.57474,1.05429474 0.68994,0.937452632 0.86274,0.937452632 L9.48894,0.937452632 C11.41554,0.937452632 12.91074,1.87029474 14.08974,3.26987368 L15.58494,5.57261053 C16.30374,6.94250526 16.87854,8.48734737 17.33874,9.97408421 L1.17894,9.97408421 Z M9.48894,0.354505263 L0.57474,0.354505263 C0.25854,0.354505263 -6e-05,0.617242105 -6e-05,0.937452632 L-6e-05,2.10397895 C-6e-05,2.51197895 0.02874,2.94903158 0.28734,3.26987368 C0.51774,3.56103158 0.89154,4.14397895 0.89154,4.72692632 C0.89154,6.4764 -6e-05,6.12650526 -6e-05,8.22524211 C-6e-05,9.36208421 0.86274,10.5570316 0.86274,10.5570316 L17.71254,10.5570316 C17.88534,10.5570316 17.99994,10.4111368 17.99994,10.2658737 L17.99994,10.1780842 C16.61994,5.71850526 14.34834,0.354505263 9.48894,0.354505263 L9.48894,0.354505263 Z" id="Fill-1"></path>
                    </g>
                    <path d="M8.91378,5.6016 C8.91378,5.28075789 8.65518,5.01865263 8.33898,5.01865263 L6.32598,5.01865263 C6.00978,5.01865263 5.75058,5.28075789 5.75058,5.6016 L3.45018,5.6016 C3.27798,5.6016 3.16278,5.48475789 3.16278,5.31044211 L3.16278,3.26981053 C3.16278,3.09486316 3.27798,2.97802105 3.45018,2.97802105 L9.20118,2.97802105 C10.46658,2.97802105 11.61678,4.46475789 12.19158,5.6016 L8.91378,5.6016 Z M12.91038,5.8056 C12.36438,4.40665263 10.89798,2.39507368 9.20118,2.39507368 L3.45018,2.39507368 C2.96178,2.39507368 2.58798,2.77402105 2.58798,3.26981053 L2.58798,5.31044211 C2.58798,5.8056 2.96178,6.18454737 3.45018,6.18454737 L6.32598,6.18454737 L8.33898,6.18454737 L12.65178,6.18454737 C12.73818,6.18454737 12.82458,6.12644211 12.88158,6.06833684 C12.93918,5.98054737 12.93918,5.89338947 12.91038,5.8056 L12.91038,5.8056 Z" id="Fill-4"></path>
                    <path d="M17.8275,11.5578947 C17.8275,11.412 17.6835,11.2667368 17.5401,11.2667368 L0.8625,11.2667368 C0.7191,11.2667368 0.5751,11.412 0.5751,11.5578947 C0.5751,11.7037895 0.7191,11.8496842 0.8625,11.8496842 L17.5401,11.8496842 C17.6835,11.8496842 17.8275,11.7037895 17.8275,11.5578947" id="Fill-6"></path>
                </g>
            </g>
        </g>
    </g>
</svg>