<?xml version="1.0" encoding="UTF-8" standalone="no"?>
<svg width="17px" height="16px" viewBox="0 0 17 16" version="1.1" xmlns="http://www.w3.org/2000/svg" xmlns:xlink="http://www.w3.org/1999/xlink" xmlns:sketch="http://www.bohemiancoding.com/sketch/ns">
    <!-- Generator: Sketch 3.4 (15575) - http://www.bohemiancoding.com/sketch -->
    <title>zhongshicanting</title>
    <desc>Created with Sketch.</desc>
    <defs></defs>
    <g id="Page-1-Copy" stroke="none" stroke-width="1" fill="none" fill-rule="evenodd" sketch:type="MSPage">
        <g id="icon" sketch:type="MSArtboardGroup" transform="translate(-115.000000, -93.000000)">
            <g id="zhongshicanting" sketch:type="MSLayerGroup" transform="translate(116.000000, 93.000000)">
                <path d="M10.0889067,15.7192982 L5.55557333,15.7192982 C5.40837333,15.7192982 5.28890667,15.5935439 5.28890667,15.4385965 L5.28890667,15.4385965 C5.28890667,15.2836491 5.40837333,15.1578947 5.55557333,15.1578947 L10.0889067,15.1578947 C10.2361067,15.1578947 10.3555733,15.2836491 10.3555733,15.4385965 L10.3555733,15.4385965 C10.3555733,15.5935439 10.2361067,15.7192982 10.0889067,15.7192982" id="Fill-1" fill="#555555" sketch:type="MSShapeGroup"></path>
                <path d="M0.266666667,7.25159298 L0.266666667,8.84373333 C0.266666667,12.1621895 2.8464,14.8776982 5.99946667,14.8776982 L9.6448,14.8776982 C12.7978667,14.8776982 15.3776,12.1621895 15.3776,8.84373333 L15.3776,7.25159298 C15.3776,7.12303158 15.2784,7.01804912 15.1562667,7.01804912 L0.488533333,7.01804912 C0.365866667,7.01804912 0.266666667,7.12303158 0.266666667,7.25159298 L0.266666667,7.25159298 Z" id="Stroke-3" stroke="#555555" sketch:type="MSShapeGroup"></path>
                <path d="M2.88144,0.655550877 C2.88144,0.655550877 1.60890667,1.67281404 2.88144,3.32221754 C4.15397333,4.97105965 2.88144,5.95407719 2.88144,5.95407719" id="Stroke-5" stroke="#555555" stroke-linecap="round" sketch:type="MSShapeGroup"></path>
                <path d="M4.22666667,0.655550877 C4.22666667,0.655550877 2.95413333,1.67281404 4.22666667,3.32221754 C5.4992,4.97105965 4.22666667,5.95407719 4.22666667,5.95407719" id="Stroke-7" stroke="#555555" stroke-linecap="round" sketch:type="MSShapeGroup"></path>
                <path d="M5.61226667,0.655550877 C5.61226667,0.655550877 4.33973333,1.67281404 5.61226667,3.32221754 C6.8848,4.97105965 5.61226667,5.95407719 5.61226667,5.95407719" id="Stroke-9" stroke="#555555" stroke-linecap="round" sketch:type="MSShapeGroup"></path>
                <path d="M6.7888,3.31059649 L15.2890667,3.31059649 L15.2890667,2.46849123 L6.7888,2.46849123 L6.7888,3.31059649 Z" id="Fill-11" fill="#555555" sketch:type="MSShapeGroup"></path>
                <path d="M1.88266667,2.46849123 L0.355733333,2.46849123 L0.355733333,3.02989474 L1.88266667,3.02989474 L1.88266667,2.46849123 Z" id="Fill-13" fill="#555555" sketch:type="MSShapeGroup"></path>
                <path d="M1.88266667,4.15326316 L0.355733333,4.15326316 L0.355733333,4.71466667 L1.88266667,4.71466667 L1.88266667,4.15326316 Z" id="Fill-14" fill="#555555" sketch:type="MSShapeGroup"></path>
                <path d="M6.7888,4.99536842 L15.2890667,4.99536842 L15.2890667,4.15326316 L6.7888,4.15326316 L6.7888,4.99536842 Z" id="Fill-15" fill="#555555" sketch:type="MSShapeGroup"></path>
                <path d="M15.2890667,9.20533333 L0.266666667,9.20533333 L0.266666667,8.64392982 L15.2890667,8.64392982 L15.2890667,9.20533333 Z" id="Fill-16" fill="#555555" sketch:type="MSShapeGroup"></path>
            </g>
        </g>
    </g>
</svg>