<?xml version="1.0" encoding="UTF-8" standalone="no"?>
<svg width="23px" height="14px" viewBox="0 0 23 14" version="1.1" xmlns="http://www.w3.org/2000/svg" xmlns:xlink="http://www.w3.org/1999/xlink" xmlns:sketch="http://www.bohemiancoding.com/sketch/ns">
    <!-- Generator: Sketch 3.4 (15575) - http://www.bohemiancoding.com/sketch -->
    <title>健身房</title>
    <desc>Created with Sketch.</desc>
    <defs>
        <path id="path-1" d="M0,0.399368421 L21.354,0.399368421 L21.354,13.2631579 L0,13.2631579 L0,0.399368421 Z"></path>
    </defs>
    <g id="Page-1-Copy" stroke="none" stroke-width="1" fill="none" fill-rule="evenodd" sketch:type="MSPage">
        <g id="icon" sketch:type="MSArtboardGroup" transform="translate(-236.000000, -184.000000)">
            <g id="健身房" sketch:type="MSLayerGroup" transform="translate(237.000000, 184.000000)">
                <path d="M3,12.5569684 L3,12.5569684 C2.26333333,12.5569684 1.66666667,11.8974947 1.66666667,11.0832842 L1.66666667,2.24117895 C1.66666667,1.42696842 2.26333333,0.767494737 3,0.767494737 L3,0.767494737 C3.73666667,0.767494737 4.33333333,1.42696842 4.33333333,2.24117895 L4.33333333,11.0832842 C4.33333333,11.8974947 3.73666667,12.5569684 3,12.5569684 L3,12.5569684 Z" id="Stroke-1" stroke="#555555" sketch:type="MSShapeGroup"></path>
                <path d="M1,10.3464421 L1,10.3464421 C0.632,10.3464421 0.333333333,10.0163368 0.333333333,9.6096 L0.333333333,3.71486316 C0.333333333,3.30812632 0.632,2.97802105 1,2.97802105 L1,2.97802105 C1.368,2.97802105 1.66666667,3.30812632 1.66666667,3.71486316 L1.66666667,9.6096 C1.66666667,10.0163368 1.368,10.3464421 1,10.3464421 L1,10.3464421 Z" id="Stroke-3" stroke="#555555" sketch:type="MSShapeGroup"></path>
                <path d="M18.3542,12.8947368 L18.3542,12.8947368 C19.0908667,12.8947368 19.6875333,12.2352632 19.6875333,11.4210526 L19.6875333,2.57894737 C19.6875333,1.76473684 19.0908667,1.10526316 18.3542,1.10526316 L18.3542,1.10526316 C17.6175333,1.10526316 17.0208667,1.76473684 17.0208667,2.57894737 L17.0208667,11.4210526 C17.0208667,12.2352632 17.6175333,12.8947368 18.3542,12.8947368 L18.3542,12.8947368 Z" id="Stroke-5" stroke="#555555" sketch:type="MSShapeGroup"></path>
                <path d="M20.3542,10.6842105 L20.3542,10.6842105 C20.7222,10.6842105 21.0208667,10.3541053 21.0208667,9.94736842 L21.0208667,4.05263158 C21.0208667,3.64589474 20.7222,3.31578947 20.3542,3.31578947 L20.3542,3.31578947 C19.9862,3.31578947 19.6875333,3.64589474 19.6875333,4.05263158 L19.6875333,9.94736842 C19.6875333,10.3541053 19.9862,10.6842105 20.3542,10.6842105 L20.3542,10.6842105 Z" id="Stroke-7" stroke="#555555" sketch:type="MSShapeGroup"></path>
                <mask id="mask-2" sketch:name="Clip 10" fill="white">
                    <use xlink:href="#path-1"></use>
                </mask>
                <g id="Clip-10"></g>
                <path d="M16.6873333,5.86378947 L4.52066667,5.86378947 L4.52066667,5.12694737 L16.6873333,5.12694737 L16.6873333,5.86378947 Z" id="Fill-9" fill="#555555" sketch:type="MSShapeGroup" mask="url(#mask-2)"></path>
                <path d="M16.6873333,8.07431579 L4.52066667,8.07431579 L4.52066667,7.33747368 L16.6873333,7.33747368 L16.6873333,8.07431579 Z" id="Fill-11" fill="#555555" sketch:type="MSShapeGroup" mask="url(#mask-2)"></path>
            </g>
        </g>
    </g>
</svg>