<?xml version="1.0" encoding="UTF-8" standalone="no"?>
<svg width="18px" height="18px" viewBox="0 0 18 18" version="1.1" xmlns="http://www.w3.org/2000/svg" xmlns:xlink="http://www.w3.org/1999/xlink" xmlns:sketch="http://www.bohemiancoding.com/sketch/ns">
    <!-- Generator: Sketch 3.4 (15575) - http://www.bohemiancoding.com/sketch -->
    <title>分享</title>
    <desc>Created with Sketch.</desc>
    <defs></defs>
    <g id="Page-1-Copy" stroke="none" stroke-width="1" fill="none" fill-rule="evenodd" sketch:type="MSPage">
        <g id="首页（下拉）" sketch:type="MSArtboardGroup" transform="translate(-249.000000, -344.000000)" fill="#333333">
            <g id="下拉" sketch:type="MSLayerGroup" transform="translate(0.000000, -3.000000)">
                <g id="分享-+-iconfont-fenxiang-2" transform="translate(249.000000, 347.000000)" sketch:type="MSShapeGroup">
                    <g id="分享">
                        <path d="M16.1842171,13.9891684 C16.1842171,15.4823189 15.0068415,16.810898 13.5791341,16.810898 L3.69072439,16.810898 C2.26303902,16.810898 1.09696829,15.4823189 1.09696829,13.9891684 L1.09696829,4.18093622 C1.09696829,2.68776276 2.26303902,1.50107143 3.69072439,1.50107143 L7.3188439,1.50107143 L7.3188439,0.334997449 L3.69072439,0.334997449 C1.65156585,0.334997449 0,2.04823469 0,4.18093622 L0,13.9891684 C0,16.1217551 1.65156585,17.9770638 3.69072439,17.9770638 L13.5791341,17.9770638 C15.6182927,17.9770638 17.2990976,16.1217551 17.2990976,13.9891684 L17.2990976,8.4601148 L16.1842171,8.4601148 L16.1842171,13.9891684 L16.1842171,13.9891684 Z" id="Fill-1"></path>
                        <path d="M17.931139,1.2504949 C17.861861,1.0866352 17.7240732,0.965295918 17.5577268,0.921971939 L14.1343463,0.0316836735 C13.8380049,-0.0452755102 13.5363512,0.143885204 13.4624415,0.454637755 C13.3886195,0.765482143 13.5696293,1.08 13.8668268,1.15739541 L15.5325512,1.59056633 C11.3852195,3.43053827 9.30147805,6.28698214 8.26961707,8.47232908 C7.01470976,11.1302908 7.0002878,13.3584107 7.0002878,13.4520383 C7.0002878,13.7723878 7.24853415,14.0319413 7.55481951,14.0319413 C7.86101707,14.0319413 8.10926341,13.7723878 8.10926341,13.4520383 C8.10926341,13.3736556 8.20736341,5.92206888 16.2518707,2.53377551 L15.3280317,4.32261735 C15.1824512,4.60432653 15.2829439,4.9562449 15.552439,5.10844133 C15.6361171,5.15580612 15.7264244,5.17821429 15.8153488,5.17821429 C16.0125585,5.17821429 16.2035122,5.06798724 16.3037634,4.87372959 L17.9116902,1.76044133 C17.9930634,1.60278061 18.0002634,1.41451531 17.931139,1.2504949 L17.931139,1.2504949 Z" id="Fill-2"></path>
                    </g>
                </g>
            </g>
        </g>
    </g>
</svg>