<?xml version="1.0" encoding="UTF-8" standalone="no"?>
<svg width="20px" height="20px" viewBox="0 0 20 20" version="1.1" xmlns="http://www.w3.org/2000/svg" xmlns:xlink="http://www.w3.org/1999/xlink" xmlns:sketch="http://www.bohemiancoding.com/sketch/ns">
    <!-- Generator: Sketch 3.4 (15575) - http://www.bohemiancoding.com/sketch -->
    <title>商务中心</title>
    <desc>Created with Sketch.</desc>
    <defs></defs>
    <g id="Page-1-Copy" stroke="none" stroke-width="1" fill="none" fill-rule="evenodd" sketch:type="MSPage">
        <g id="首页（下拉）" sketch:type="MSArtboardGroup" transform="translate(-248.000000, -297.000000)" stroke-linecap="round" stroke="#333333">
            <g id="下拉" sketch:type="MSLayerGroup" transform="translate(0.000000, -3.000000)">
                <g id="商务中心-+-商务中心" transform="translate(249.000000, 301.000000)" sketch:type="MSShapeGroup">
                    <g id="商务中心">
                        <path d="M17,17.5909091 L1,17.5909091 C0.633333333,17.5909091 0.333333333,17.2227273 0.333333333,16.7727273 L0.333333333,5.31818182 C0.333333333,4.86818182 0.633333333,4.5 1,4.5 L17,4.5 C17.3666667,4.5 17.6666667,4.86818182 17.6666667,5.31818182 L17.6666667,16.7727273 C17.6666667,17.2227273 17.3666667,17.5909091 17,17.5909091 L17,17.5909091 Z" id="Stroke-1"></path>
                        <path d="M12.9752667,4.23564545 L5.17393333,4.23564545 C5.11993333,4.23564545 5.07593333,4.18164545 5.07593333,4.11619091 L5.07593333,0.799281818 C5.07593333,0.439281818 5.31593333,0.144736364 5.60926667,0.144736364 L12.5426,0.144736364 C12.8359333,0.144736364 13.0759333,0.439281818 13.0759333,0.799281818 L13.0759333,4.11128182 C13.0759333,4.18000909 13.0306,4.23564545 12.9752667,4.23564545 L12.9752667,4.23564545 Z" id="Stroke-3"></path>
                        <path d="M11.4762667,4.5 L6.67626667,4.5 C6.5296,4.5 6.4096,4.35272727 6.4096,4.17272727 L6.4096,2.07081818 C6.4096,1.89081818 6.5296,1.74354545 6.67626667,1.74354545 L11.4762667,1.74354545 C11.6229333,1.74354545 11.7429333,1.89081818 11.7429333,2.07081818 L11.7429333,4.17272727 C11.7429333,4.35272727 11.6229333,4.5 11.4762667,4.5 L11.4762667,4.5 Z" id="Stroke-5"></path>
                        <path d="M13.0758667,9.42275455 L17.6665333,9.42275455" id="Stroke-7"></path>
                        <path d="M6.40913333,9.42275455 L11.7424667,9.42275455" id="Stroke-9"></path>
                        <path d="M0.333333333,9.42275455 L5.076,9.42275455" id="Stroke-11"></path>
                        <path d="M6.14293333,11.0182091 L5.34293333,11.0182091 C5.19626667,11.0182091 5.07626667,10.8709364 5.07626667,10.6909364 L5.07626667,8.07275455 C5.07626667,7.89275455 5.19626667,7.74548182 5.34293333,7.74548182 L6.14293333,7.74548182 C6.2896,7.74548182 6.4096,7.89275455 6.4096,8.07275455 L6.4096,10.6909364 C6.4096,10.8709364 6.2896,11.0182091 6.14293333,11.0182091 L6.14293333,11.0182091 Z" id="Stroke-13"></path>
                        <path d="M12.8096,11.0182091 L12.0096,11.0182091 C11.8629333,11.0182091 11.7429333,10.8709364 11.7429333,10.6909364 L11.7429333,8.07275455 C11.7429333,7.89275455 11.8629333,7.74548182 12.0096,7.74548182 L12.8096,7.74548182 C12.9562667,7.74548182 13.0762667,7.89275455 13.0762667,8.07275455 L13.0762667,10.6909364 C13.0762667,10.8709364 12.9562667,11.0182091 12.8096,11.0182091 L12.8096,11.0182091 Z" id="Stroke-15"></path>
                    </g>
                </g>
            </g>
        </g>
    </g>
</svg>