<?xml version="1.0" encoding="UTF-8" standalone="no"?>
<svg width="18px" height="18px" viewBox="0 0 18 18" version="1.1" xmlns="http://www.w3.org/2000/svg" xmlns:xlink="http://www.w3.org/1999/xlink" xmlns:sketch="http://www.bohemiancoding.com/sketch/ns">
    <!-- Generator: Sketch 3.4 (15575) - http://www.bohemiancoding.com/sketch -->
    <title>场地租赁</title>
    <desc>Created with Sketch.</desc>
    <defs></defs>
    <g id="Page-1-Copy" stroke="none" stroke-width="1" fill="none" fill-rule="evenodd" sketch:type="MSPage">
        <g id="首页（下拉）" sketch:type="MSArtboardGroup" transform="translate(-249.000000, -253.000000)" fill="#333333">
            <g id="下拉" sketch:type="MSLayerGroup" transform="translate(0.000000, -3.000000)">
                <g id="场地租赁-+-iconfont-yanchuchangdi" transform="translate(249.000000, 256.000000)" sketch:type="MSShapeGroup">
                    <g id="场地租赁">
                        <path d="M17.9446966,15.7229086 L16.6112135,12.3470178 L16.6112135,1.56903807 C16.6112135,0.850911168 16.1935506,0.0118096447 15.0159775,0.0118096447 L3.23770787,0.0118096447 C2.67793258,0.0118096447 1.73964045,0.203025381 1.73964045,1.48426904 L1.73964045,12.2662462 L0.0483595506,15.7023731 C0.0466067416,15.7064848 0.047752809,15.7105964 0.046,15.7146853 C0.0184269663,15.7749213 0,15.8404112 0,15.9111777 L0,17.5093629 C0,17.7678503 0.205932584,17.9771802 0.460224719,17.9771802 L17.5253708,17.9771802 C17.7790562,17.9771802 17.9849888,17.7678503 17.9849888,17.5093629 L17.9849888,15.9111777 C17.9849888,15.8439061 17.9700674,15.7807234 17.9446966,15.7229086 L17.9446966,15.7229086 Z M13.3154831,0.947467005 L15.0159775,0.947467005 C15.3306742,0.947467005 15.6913708,1.01821066 15.6913708,1.56903807 L15.6913708,11.9142411 C14.7203371,11.9218249 14.1116629,11.9206827 13.7474607,11.9183528 C13.8913258,10.8061218 14.4257303,8.80739086 14.651236,8.02724619 C14.6967191,7.86995178 14.657573,7.69977411 14.5482697,7.57877665 C13.4586517,6.37357614 13.2878427,2.72517259 13.3154831,0.947467005 L13.3154831,0.947467005 Z M2.66011236,1.48426904 C2.66011236,1.14162944 2.68714607,0.947467005 3.23770787,0.947467005 L5.22813483,0.947467005 C5.25631461,2.72455584 5.08602247,6.37241117 3.99534831,7.57877665 C3.88606742,7.69977411 3.84692135,7.86995178 3.89238202,8.02724619 C4.1172809,8.80739086 4.65229213,10.8049569 4.79608989,11.917736 C4.39229213,11.9206827 3.70997753,11.9224645 2.66011236,11.9148807 L2.66011236,1.48426904 L2.66011236,1.48426904 Z M2.48175281,12.8481168 C3.12719101,12.8540102 3.64896629,12.8563173 4.05107865,12.8563173 C4.94049438,12.8563173 5.28449438,12.846335 5.30521348,12.8458096 C5.55373034,12.8387513 5.75220225,12.631203 5.75220225,12.3779695 C5.75220225,11.3388122 5.06530337,8.79855076 4.84269663,8.00209645 C6.10429213,6.28638579 6.16642697,2.32926396 6.14746067,0.947467005 L12.3955506,0.947467005 C12.3765843,2.32864721 12.4387191,6.28702538 13.7003146,8.0027132 C13.4777079,8.79916751 12.790809,11.3388122 12.790809,12.3785863 C12.790809,12.6294213 12.9857753,12.8358046 13.2331461,12.8458096 C13.2481573,12.846335 13.5035955,12.8557005 14.3376854,12.8557005 C14.7059326,12.8557005 15.1948764,12.8540102 15.8173258,12.8487335 L16.8425169,15.4433376 L1.20408989,15.4433376 L2.48175281,12.8481168 L2.48175281,12.8481168 Z M0.92047191,16.3789949 L17.0645169,16.3789949 L17.0645169,17.0415228 L0.92047191,17.0415228 L0.92047191,16.3789949 Z" id="Fill-2"></path>
                    </g>
                </g>
            </g>
        </g>
    </g>
</svg>