<?xml version="1.0" encoding="UTF-8" standalone="no"?>
<svg width="20px" height="22px" viewBox="0 0 20 22" version="1.1" xmlns="http://www.w3.org/2000/svg" xmlns:xlink="http://www.w3.org/1999/xlink" xmlns:sketch="http://www.bohemiancoding.com/sketch/ns">
    <!-- Generator: Sketch 3.4 (15575) - http://www.bohemiancoding.com/sketch -->
    <title>大堂取款机</title>
    <desc>Created with Sketch.</desc>
    <defs>
        <path id="path-1" d="M0,0 L20,0 L20,20 L0,20"></path>
        <path id="path-3" d="M0,0 L20,0 L20,20 L0,20 L0,0 Z"></path>
    </defs>
    <g id="Page-1-Copy" stroke="none" stroke-width="1" fill="none" fill-rule="evenodd" sketch:type="MSPage">
        <g id="icon" sketch:type="MSArtboardGroup" transform="translate(-234.000000, -505.000000)">
            <g id="大堂取款机" sketch:type="MSLayerGroup" transform="translate(234.000000, 506.000000)">
                <path d="M18.0972,19.6 L2.0972,19.6 L2.0972,1.2 C2.0972,0.76 2.4572,0.4 2.8972,0.4 L17.2972,0.4 C17.7372,0.4 18.0972,0.76 18.0972,1.2 L18.0972,19.6 L18.0972,19.6 Z" id="Stroke-1" stroke="#555555" sketch:type="MSShapeGroup"></path>
                <g id="Group-5">
                    <mask id="mask-2" sketch:name="Clip 4" fill="white">
                        <use xlink:href="#path-1"></use>
                    </mask>
                    <g id="Clip-4"></g>
                    <path d="M0.4,19.6 L19.6,19.6" id="Stroke-3" stroke="#555555" stroke-linecap="round" sketch:type="MSShapeGroup" mask="url(#mask-2)"></path>
                </g>
                <path d="M10.92,10.00504 L4.52,10.00504 C4.08,10.00504 3.72,9.64504 3.72,9.20504 L3.72,2.80504 C3.72,2.36504 4.08,2.00504 4.52,2.00504 L10.92,2.00504 C11.36,2.00504 11.72,2.36504 11.72,2.80504 L11.72,9.20504 C11.72,9.64504 11.36,10.00504 10.92,10.00504 L10.92,10.00504 Z" id="Stroke-6" stroke="#555555" stroke-linecap="round" sketch:type="MSShapeGroup"></path>
                <path d="M13.35,4.4 L16.55,4.4" id="Stroke-8" stroke="#555555" stroke-linecap="round" sketch:type="MSShapeGroup"></path>
                <mask id="mask-4" sketch:name="Clip 11" fill="white">
                    <use xlink:href="#path-3"></use>
                </mask>
                <g id="Clip-11"></g>
                <path d="M5.6696,12.0352 L4.0696,12.0352 L4.0696,11.2352 L5.6696,11.2352 L5.6696,12.0352 Z" id="Fill-10" fill="#555555" sketch:type="MSShapeGroup" mask="url(#mask-4)"></path>
                <path d="M5.6696,13.6352 L4.0696,13.6352 L4.0696,12.8352 L5.6696,12.8352 L5.6696,13.6352 Z" id="Fill-12" fill="#555555" sketch:type="MSShapeGroup" mask="url(#mask-4)"></path>
                <path d="M5.6696,15.2352 L4.0696,15.2352 L4.0696,14.4352 L5.6696,14.4352 L5.6696,15.2352 Z" id="Fill-13" fill="#555555" sketch:type="MSShapeGroup" mask="url(#mask-4)"></path>
                <path d="M8.8696,12.0352 L7.2696,12.0352 L7.2696,11.2352 L8.8696,11.2352 L8.8696,12.0352 Z" id="Fill-14" fill="#555555" sketch:type="MSShapeGroup" mask="url(#mask-4)"></path>
                <path d="M8.8696,13.6352 L7.2696,13.6352 L7.2696,12.8352 L8.8696,12.8352 L8.8696,13.6352 Z" id="Fill-15" fill="#555555" sketch:type="MSShapeGroup" mask="url(#mask-4)"></path>
                <path d="M8.8696,15.2352 L7.2696,15.2352 L7.2696,14.4352 L8.8696,14.4352 L8.8696,15.2352 Z" id="Fill-16" fill="#555555" sketch:type="MSShapeGroup" mask="url(#mask-4)"></path>
                <path d="M12.0696,12.0352 L10.4696,12.0352 L10.4696,11.2352 L12.0696,11.2352 L12.0696,12.0352 Z" id="Fill-17" fill="#555555" sketch:type="MSShapeGroup" mask="url(#mask-4)"></path>
                <path d="M12.0696,13.6352 L10.4696,13.6352 L10.4696,12.8352 L12.0696,12.8352 L12.0696,13.6352 Z" id="Fill-18" fill="#555555" sketch:type="MSShapeGroup" mask="url(#mask-4)"></path>
                <path d="M12.0696,15.2352 L10.4696,15.2352 L10.4696,14.4352 L12.0696,14.4352 L12.0696,15.2352 Z" id="Fill-19" fill="#555555" sketch:type="MSShapeGroup" mask="url(#mask-4)"></path>
            </g>
        </g>
    </g>
</svg>