<?xml version="1.0" encoding="UTF-8" standalone="no"?>
<svg width="18px" height="24px" viewBox="0 0 18 24" version="1.1" xmlns="http://www.w3.org/2000/svg" xmlns:xlink="http://www.w3.org/1999/xlink" xmlns:sketch="http://www.bohemiancoding.com/sketch/ns">
    <!-- Generator: Sketch 3.4 (15575) - http://www.bohemiancoding.com/sketch -->
    <title>安全出口</title>
    <desc>Created with Sketch.</desc>
    <defs></defs>
    <g id="Page-1-Copy" stroke="none" stroke-width="1" fill="none" fill-rule="evenodd" sketch:type="MSPage">
        <g id="icon" sketch:type="MSArtboardGroup" transform="translate(-178.000000, -283.000000)" fill="#555555">
            <g id="安全出口" sketch:type="MSLayerGroup" transform="translate(178.000000, 283.000000)">
                <path d="M17.9806694,0.0083141655 L17.9806694,19.8210042 L14.1665914,19.8210042 L14.1665914,23.9663731 C13.9892895,23.924432 13.8709035,23.9029902 13.7571376,23.8685554 C9.27964682,22.5151641 4.80348665,21.1583394 0.323408624,19.8123198 C0.0717412731,19.7367181 -0.000295687885,19.6363759 -5.14085693e-14,19.4016942 C0.00779876797,13.5334418 0.00665297741,7.66518934 0.0069486653,1.79693689 C0.00705954825,1.2082805 0.0069486653,0.619590463 0.0069486653,0.0083141655 L17.9806694,0.0083141655 L17.9806694,0.0083141655 Z M13.0824517,22.6570435 C13.0896591,22.5244881 13.0981971,22.4425919 13.0981971,22.3607966 C13.0988994,16.6069229 13.0971992,10.8530827 13.1054045,5.09934362 C13.1057002,4.85584292 13.0095277,4.76038149 12.7690226,4.69107433 C8.98528953,3.60080785 5.20399589,2.5030014 1.42185216,1.40798878 C1.31932238,1.37826648 1.21350308,1.35790182 1.06506776,1.32265919 L1.06506776,1.66990182 C1.06506776,7.35133801 1.06665708,13.0327405 1.05974538,18.7141431 C1.05944969,18.9500365 1.13655031,19.0499411 1.38792197,19.1253072 C4.2421232,19.9798149 7.09129774,20.8482917 9.94220945,21.7117868 C10.9732361,22.0240561 12.0055195,22.3329257 13.0824517,22.6570435 L13.0824517,22.6570435 Z M3.58695277,0.972387097 C3.58839425,0.988678822 3.58998357,1.00486957 3.59142505,1.02116129 C3.67632444,1.04785414 3.7604846,1.07626367 3.84597536,1.10097055 C7.15165503,2.05767181 10.4564846,3.01726788 13.7655277,3.96447686 C14.0591828,4.04862833 14.1680329,4.15476017 14.1671828,4.45295933 C14.1541725,9.10825245 14.1580903,13.7635456 14.1580903,18.4189397 L14.1580903,18.841683 L16.9185955,18.841683 L16.9185955,0.972521739 C12.4593265,0.972387097 8.02312115,0.972387097 3.58695277,0.972387097 L3.58695277,0.972387097 Z" id="Fill-1" sketch:type="MSShapeGroup"></path>
                <path d="M9.8453347,9.93899579 L11.4070842,9.93899579 L11.4070842,10.8757027 C11.2404641,10.8870126 11.0864107,10.8973801 10.9092567,10.9093633 L10.9092567,14.3704797 C11.0617207,14.3833717 11.2152197,14.3962637 11.4001725,14.4118822 L11.4001725,15.3418906 L9.84548255,15.3418906 C9.8453347,13.5411837 9.8453347,11.7484881 9.8453347,9.93899579 L9.8453347,9.93899579 Z" id="Fill-2" sketch:type="MSShapeGroup"></path>
            </g>
        </g>
    </g>
</svg>