<?xml version="1.0" encoding="UTF-8" standalone="no"?>
<svg width="18px" height="16px" viewBox="0 0 18 16" version="1.1" xmlns="http://www.w3.org/2000/svg" xmlns:xlink="http://www.w3.org/1999/xlink" xmlns:sketch="http://www.bohemiancoding.com/sketch/ns">
    <!-- Generator: Sketch 3.4 (15575) - http://www.bohemiancoding.com/sketch -->
    <title>客房服务</title>
    <desc>Created with Sketch.</desc>
    <defs></defs>
    <g id="Page-1-Copy" stroke="none" stroke-width="1" fill="none" fill-rule="evenodd" sketch:type="MSPage">
        <g id="首页（下拉）" sketch:type="MSArtboardGroup" transform="translate(-249.000000, -167.000000)" fill="#333333">
            <g id="下拉" sketch:type="MSLayerGroup" transform="translate(0.000000, -3.000000)">
                <g id="客房服务-+-iconfont-bedroom" transform="translate(249.000000, 170.000000)" sketch:type="MSShapeGroup">
                    <path d="M16.7128935,5.58112078 L16.7128935,1.48862157 C16.7128935,0.666504502 16.1372463,0 15.4271994,0 L2.57147296,0 C1.86131311,0 1.28566586,0.666504502 1.28566586,1.48862157 L1.28566586,5.58112078 C0.57564725,5.58112078 0,6.24762528 0,7.06987316 L0,15.6265691 C0,15.8326462 0.143212697,16 0.321084562,16 L0.643609726,16 C0.821481591,16 0.964694288,15.8326462 0.964694288,15.6265691 L0.964694288,13.7696514 L17.0339781,13.7696514 L17.0339781,15.6265691 C17.0339781,15.8326462 17.1785184,16 17.3565033,16 L17.6774748,16 C17.8554597,16 18,15.8326462 18,15.6265691 L18,7.06987316 C17.9985594,6.24762528 17.4230251,5.58112078 16.7128935,5.58112078 L16.7128935,5.58112078 Z M2.2503884,1.78305304 C2.2503884,1.4139981 2.5381414,1.11682594 2.89244453,1.11682594 L15.1061149,1.11682594 C15.460418,1.11682594 15.748171,1.4154926 15.748171,1.78305304 L15.748171,5.11682594 L14.4625051,5.11682594 L14.4625051,3.11682594 C14.4625051,2.7492655 14.1747239,2.45074535 13.8203078,2.45074535 L10.2857789,2.45074535 C9.92995038,2.45074535 9.64360973,2.7492655 9.64360973,3.11682594 L9.64360973,5.11682594 L8.35791562,5.11682594 L8.35791562,3.11682594 C8.35791562,2.7492655 8.07004962,2.45074535 7.71430589,2.45074535 L4.17825163,2.45074535 C3.8239485,2.45074535 3.53605426,2.7492655 3.53605426,3.11682594 L3.53605426,5.11682594 L2.2503884,5.11682594 L2.2503884,1.78305304 L2.2503884,1.78305304 Z M14.1413923,3.57731864 L14.1413923,5.97734125 L9.96325369,5.97734125 L9.96325369,3.57731864 C9.96325369,3.24537537 10.1714629,2.97734125 10.4274662,2.97734125 L13.6772081,2.97734125 C13.9331831,2.97734125 14.1413923,3.24537537 14.1413923,3.57731864 L14.1413923,3.57731864 Z M8.03539045,3.57731864 L8.03539045,5.97734125 L3.85713882,5.97734125 L3.85713882,3.57731864 C3.85713882,3.24537537 4.0653763,2.97734125 4.32135134,2.97734125 L7.57109319,2.97734125 C7.82706824,2.97734125 8.03539045,3.24537537 8.03539045,3.57731864 L8.03539045,3.57731864 Z M0.964694288,11.5357052 L17.0339781,11.5357052 L17.0339781,12.5357052 L0.964694288,12.5357052 L0.964694288,11.5357052 Z M17.0339781,10.6981102 L0.964694288,10.6981102 L0.964694288,7.49694344 C0.964694288,7.05612669 1.2524473,6.69811024 1.60675042,6.69811024 L16.3903684,6.69811024 C16.7460839,6.69811024 17.0325375,7.05612669 17.0325375,7.49694344 L17.0325375,10.6981102 L17.0339781,10.6981102 Z" id="客房服务"></path>
                </g>
            </g>
        </g>
    </g>
</svg>