<?xml version="1.0" encoding="UTF-8" standalone="no"?>
<svg width="22px" height="21px" viewBox="0 0 22 21" version="1.1" xmlns="http://www.w3.org/2000/svg" xmlns:xlink="http://www.w3.org/1999/xlink" xmlns:sketch="http://www.bohemiancoding.com/sketch/ns">
    <!-- Generator: Sketch 3.4 (15575) - http://www.bohemiancoding.com/sketch -->
    <title>iconfont-feijichang</title>
    <desc>Created with Sketch.</desc>
    <defs></defs>
    <g id="Page-1-Copy" stroke="none" stroke-width="1" fill="none" fill-rule="evenodd" sketch:type="MSPage">
        <g id="icon" sketch:type="MSArtboardGroup" transform="translate(-117.000000, -605.000000)" fill="#555555">
            <path d="M130.742216,625.984484 C130.695619,625.984484 130.648932,625.977153 130.603877,625.962149 L128.387873,625.227319 C128.167136,625.154175 128.050242,624.923288 128.126589,624.711811 C128.202936,624.500361 128.443932,624.388257 128.664669,624.461516 L130.319191,625.010187 L130.319191,624.388143 L128.971572,623.213507 C128.864644,623.120272 128.814814,622.981172 128.839373,622.844743 C128.87461,622.65006 128.891636,622.483878 128.891636,622.336793 C128.891636,622.328353 128.891992,622.319942 128.892555,622.311502 L129.152564,618.331363 C129.161492,618.195957 129.24039,618.07385 129.362979,618.005905 C129.485538,617.937961 129.635356,617.9333 129.762246,617.993487 L137.161038,621.499606 L137.161038,620.028384 L129.440839,613.553792 C129.349186,613.476754 129.296449,613.365644 129.296449,613.24888 L129.296449,608.349429 C129.296449,607.840797 129.068682,607.177237 128.716102,606.658943 C128.349284,606.119706 127.907364,605.810447 127.503589,605.810447 C127.099814,605.810447 126.657775,606.119706 126.290958,606.658829 C125.938407,607.177237 125.71061,607.840797 125.71061,608.349429 L125.71061,613.248766 C125.71061,613.365644 125.657992,613.476754 125.56625,613.553678 L117.845932,620.028384 L117.845932,621.494719 L125.109055,617.994595 C125.235322,617.933755 125.385021,617.937421 125.507966,618.004229 C125.631,618.071179 125.710847,618.19249 125.721021,618.327583 L126.04314,622.634516 C126.043941,622.644177 126.044297,622.653839 126.044297,622.663472 C126.044297,622.734969 126.053106,622.811552 126.062479,622.892824 L126.065949,622.923116 C126.080572,623.0521 126.029941,623.180089 125.929479,623.267215 L124.637949,624.38857 L124.637949,625.00743 L125.985449,624.553984 C126.367216,624.404227 127.204547,624.32952 127.741352,625.090663 C127.872157,625.276168 127.821169,625.528026 127.627691,625.653344 C127.434064,625.778548 127.171178,625.729955 127.040373,625.544451 C126.919178,625.372614 126.770992,625.282704 126.587004,625.269604 C126.441131,625.259175 126.319699,625.29947 126.300924,625.306119 C126.291195,625.310353 126.288763,625.310893 126.277284,625.314786 L124.35525,625.961609 C124.225809,626.005115 124.082369,625.985905 123.970458,625.90989 C123.858517,625.833961 123.792017,625.710632 123.792017,625.579318 L123.792017,624.208976 C123.792017,624.094655 123.84253,623.985648 123.930949,623.908838 L125.203822,622.803681 C125.200797,622.763386 125.198839,622.721869 125.198364,622.679016 L124.922517,618.991712 L117.613034,622.514171 C117.481873,622.577341 117.326034,622.570919 117.201013,622.497092 C117.07611,622.423379 117,622.292832 117,622.152198 L117,619.84467 C117,619.727792 117.052589,619.616682 117.14436,619.539758 L124.864678,613.065051 L124.864678,608.349429 C124.864678,607.684505 125.139636,606.867181 125.582356,606.21638 C126.115898,605.432049 126.79822,605 127.503589,605 C128.208839,605 128.891161,605.432049 129.424733,606.21638 C129.867424,606.867181 130.1425,607.684505 130.1425,608.349429 L130.1425,613.065051 L137.862581,619.539758 C137.954352,619.616682 138.006941,619.727792 138.006941,619.844556 L138.006941,622.152198 C138.006941,622.292292 137.931424,622.422498 137.807203,622.49641 C137.682983,622.57035 137.527619,622.577455 137.396576,622.515392 L129.957119,618.98995 L129.737568,622.350007 C129.736975,622.477882 129.727246,622.613317 129.707996,622.75972 L131.026754,623.909264 C131.114936,623.986074 131.165093,624.094968 131.165093,624.209089 L131.165093,625.579318 C131.165093,625.710405 131.098949,625.833392 130.987483,625.909322 C130.914962,625.958824 130.828975,625.984484 130.742216,625.984484 L130.742216,625.984484 Z" id="iconfont-feijichang" sketch:type="MSShapeGroup"></path>
        </g>
    </g>
</svg>