<?xml version="1.0" encoding="UTF-8" standalone="no"?>
<svg width="22px" height="21px" viewBox="0 0 22 21" version="1.1" xmlns="http://www.w3.org/2000/svg" xmlns:xlink="http://www.w3.org/1999/xlink" xmlns:sketch="http://www.bohemiancoding.com/sketch/ns">
    <!-- Generator: Sketch 3.4 (15575) - http://www.bohemiancoding.com/sketch -->
    <title>携带宠物</title>
    <desc>Created with Sketch.</desc>
    <defs></defs>
    <g id="Page-1-Copy" stroke="none" stroke-width="1" fill="none" fill-rule="evenodd" sketch:type="MSPage">
        <g id="icon" sketch:type="MSArtboardGroup" transform="translate(-116.000000, -505.000000)" stroke-linecap="round" stroke="#555555">
            <g id="携带宠物" sketch:type="MSLayerGroup" transform="translate(117.000000, 506.000000)">
                <path d="M6.36835714,7.08457143 C6.36835714,7.08457143 4.56764286,10.5052857 4.29192857,10.6817143 C4.01692857,10.8574286 2.91621429,11.5367143 2.81621429,11.386 C2.71621429,11.2352857 2.06621429,8.84528571 1.2905,8.56885714 C0.514785714,8.29171429 0.189785714,5.19814286 0.439785714,5.04742857 C0.6905,4.896 4.66764286,0.846714286 5.34264286,0.670285714 C6.01835714,0.493857143 9.9705,0.192428571 10.6455,0.468857143 C11.3212143,0.746 14.2976429,3.261 14.3976429,3.78957143 C14.4976429,4.31742857 14.3476429,5.02171429 14.6976429,5.60028571 C15.0483571,6.17885714 17.3747857,8.39242857 17.7747857,8.51814286 C18.1747857,8.64385714 19.4005,8.41742857 19.5755,9.07171429 C19.7505,9.726 19.5505,10.8574286 19.3505,11.0088571 C19.1505,11.1595714 17.3747857,13.3224286 16.8490714,13.4488571 C16.3240714,13.5745714 8.71407143,13.3231429 8.31978571,13.851 C7.92478571,14.3788571 4.16192857,19.1545714 4.23692857,19.6431429" id="Stroke-1" sketch:type="MSShapeGroup"></path>
                <path d="M11.076,5.07542857 L11.076,6.35542857" id="Stroke-3" stroke-width="2" sketch:type="MSShapeGroup"></path>
            </g>
        </g>
    </g>
</svg>