<?xml version="1.0" encoding="UTF-8" standalone="no"?>
<svg width="22px" height="22px" viewBox="0 0 22 22" version="1.1" xmlns="http://www.w3.org/2000/svg" xmlns:xlink="http://www.w3.org/1999/xlink" xmlns:sketch="http://www.bohemiancoding.com/sketch/ns">
    <!-- Generator: Sketch 3.4 (15575) - http://www.bohemiancoding.com/sketch -->
    <title>无烟房</title>
    <desc>Created with Sketch.</desc>
    <defs></defs>
    <g id="Page-1-Copy" stroke="none" stroke-width="1" fill="none" fill-rule="evenodd" sketch:type="MSPage">
        <g id="icon" sketch:type="MSArtboardGroup" transform="translate(-233.000000, -561.000000)">
            <g id="无烟房" sketch:type="MSLayerGroup" transform="translate(229.000000, 557.000000)">
                <circle id="Oval-176" stroke="#555555" sketch:type="MSShapeGroup" transform="translate(15.000000, 15.000000) rotate(-315.000000) translate(-15.000000, -15.000000) " cx="15" cy="15" r="10"></circle>
                <path d="M8,8 L21.4350288,21.4350288" id="Line" stroke="#555555" stroke-linecap="square" sketch:type="MSShapeGroup"></path>
                <path d="M20.1796301,9.44551613 C19.8494065,9.34419355 19.5375081,9.24832258 19.4022317,9.06106452 C19.0102033,8.51783871 19.0201911,7.85619355 19.0580935,7.72525806 C19.1494634,7.45332258 19.0295244,7.14864516 18.7897886,7.04432258 C18.5495691,6.93970968 18.2800407,7.07554839 18.1877602,7.34787097 C18.0298333,7.81409677 18.0773821,8.8936129 18.6811748,9.73003226 C19.0056504,10.1793871 19.4999472,10.3312258 19.9359959,10.4650645 C20.293252,10.5748065 20.6305894,10.6785161 20.825565,10.9123871 C21.0439593,11.1744839 21.1057642,11.645129 21.0145081,12.3513871 C20.9772886,12.6399355 21.1534553,12.9080968 21.4079878,12.9504194 C21.4308943,12.9542258 21.453687,12.9560968 21.4761382,12.9560968 C21.7035528,12.9560968 21.9025122,12.7669677 21.9365447,12.5043548 C22.0717073,11.4573548 21.9298577,10.6994194 21.5030285,10.1870645 C21.1276748,9.73670968 20.6240447,9.582 20.1796301,9.44551613 L20.1796301,9.44551613 Z" id="Fill-1" fill="#555555" sketch:type="MSShapeGroup"></path>
                <path d="M21.5168293,14.7692258 L8.46584146,14.7692258 C8.20852033,14.7692258 8,15.0056129 8,15.2973226 L8,18.4718387 C8,18.7635484 8.20863415,18.9999677 8.46584146,18.9999677 L21.5168293,18.9999677 C21.774122,18.9999677 21.9826707,18.7635484 21.9826707,18.4718387 L21.9826707,15.2973226 C21.9826707,15.0056129 21.774122,14.7692258 21.5168293,14.7692258 L21.5168293,14.7692258 Z M18.2959187,17.9436129 L9.17634146,17.9436129 C9.04772358,17.9436129 8.94346341,17.8254194 8.94346341,17.6796452 L8.94346341,16.0895484 C8.94346341,15.9437419 9.04772358,15.8255484 9.17634146,15.8255484 L18.2959187,15.8255484 L18.2959187,17.9436129 L18.2959187,17.9436129 Z M21.0625407,17.6796452 C21.0625407,17.8254194 20.9582805,17.9436129 20.8295488,17.9436129 L19.2277154,17.9436129 L19.2277154,15.8254194 L20.8295488,15.8254194 C20.9582805,15.8254194 21.0625407,15.9437419 21.0625407,16.0895484 L21.0625407,17.6796452 L21.0625407,17.6796452 Z" id="Fill-2" fill="#555555" sketch:type="MSShapeGroup" transform="translate(14.991335, 16.884597) rotate(-30.000000) translate(-14.991335, -16.884597) "></path>
            </g>
        </g>
    </g>
</svg>