<?xml version="1.0" encoding="UTF-8" standalone="no"?>
<svg width="19px" height="25px" viewBox="0 0 19 25" version="1.1" xmlns="http://www.w3.org/2000/svg" xmlns:xlink="http://www.w3.org/1999/xlink" xmlns:sketch="http://www.bohemiancoding.com/sketch/ns">
    <!-- Generator: Sketch 3.4 (15575) - http://www.bohemiancoding.com/sketch -->
    <title>棋牌</title>
    <desc>Created with Sketch.</desc>
    <defs></defs>
    <g id="Page-1-Copy" stroke="none" stroke-width="1" fill="none" fill-rule="evenodd" sketch:type="MSPage">
        <g id="icon" sketch:type="MSArtboardGroup" transform="translate(-238.000000, -284.000000)">
            <g id="棋牌" sketch:type="MSLayerGroup" transform="translate(239.000000, 284.000000)">
                <path d="M12.6,20.5019586 L0.704347826,20.5019586 C0.531391304,20.5019586 0.391304348,20.3538207 0.391304348,20.1709241 L0.391304348,0.970924138 C0.391304348,0.788027586 0.531391304,0.639889655 0.704347826,0.639889655 L12.6,0.639889655 C12.7729565,0.639889655 12.9130435,0.788027586 12.9130435,0.970924138 L12.9130435,20.1709241 C12.9130435,20.3538207 12.7729565,20.5019586 12.6,20.5019586 L12.6,20.5019586 Z" id="Stroke-1" stroke="#555555" sketch:type="MSShapeGroup"></path>
                <path d="M8.60337391,8.73384828 C8.07433043,8.1744 7.20876522,8.1744 6.68050435,8.73384828 L6.65233043,8.76364138 L6.62415652,8.73384828 C6.09511304,8.1744 5.22954783,8.1744 4.70128696,8.73384828 L4.70128696,8.73384828 C4.17224348,9.29329655 4.17224348,10.2086069 4.70128696,10.7672276 L6.64763478,12.8262621 L6.65076522,12.8229517 L6.65546087,12.8279172 L8.60337391,10.7672276 C9.13241739,10.2086069 9.13241739,9.29329655 8.60337391,8.73384828" id="Fill-3" fill="#555555" sketch:type="MSShapeGroup"></path>
                <path d="M14.5852435,3.72413793 L17.1091565,3.72413793 C17.282113,3.72413793 17.4222,3.87227586 17.4222,4.05517241 L17.4222,23.2551724 C17.4222,23.438069 17.282113,23.5862069 17.1091565,23.5862069 L5.21350435,23.5862069 C5.04054783,23.5862069 4.90046087,23.438069 4.90046087,23.2551724 L4.90046087,22.2364138" id="Stroke-5" stroke="#555555" stroke-linecap="round" sketch:type="MSShapeGroup"></path>
            </g>
        </g>
    </g>
</svg>