<?xml version="1.0" encoding="UTF-8" standalone="no"?>
<svg width="22px" height="21px" viewBox="0 0 22 21" version="1.1" xmlns="http://www.w3.org/2000/svg" xmlns:xlink="http://www.w3.org/1999/xlink" xmlns:sketch="http://www.bohemiancoding.com/sketch/ns">
    <!-- Generator: Sketch 3.4 (15575) - http://www.bohemiancoding.com/sketch -->
    <title>温泉</title>
    <desc>Created with Sketch.</desc>
    <defs></defs>
    <g id="Page-1-Copy" stroke="none" stroke-width="1" fill="none" fill-rule="evenodd" sketch:type="MSPage">
        <g id="icon" sketch:type="MSArtboardGroup" transform="translate(-115.000000, -217.000000)" stroke-linecap="round" stroke="#555555">
            <g id="温泉" sketch:type="MSLayerGroup" transform="translate(116.000000, 217.000000)">
                <path d="M17.892,9.1037037 C19.0165161,10.1925926 19.6771613,11.5244444 19.6771613,12.962963 C19.6771613,16.6451852 15.3449032,19.6296296 9.99974194,19.6296296 C4.65522581,19.6296296 0.322322581,16.6451852 0.322322581,12.962963 C0.322322581,11.2548148 1.25458065,9.69703704 2.78812903,8.51777778" id="Stroke-1" sketch:type="MSShapeGroup"></path>
                <path d="M5.97187097,0.560148148 C5.97187097,0.560148148 3.48606452,2.7282963 5.97187097,6.24237037 C8.45767742,9.75644444 5.97187097,11.8505185 5.97187097,11.8505185" id="Stroke-3" sketch:type="MSShapeGroup"></path>
                <path d="M8.59993548,0.560148148 C8.59993548,0.560148148 6.11412903,2.7282963 8.59993548,6.24237037 C11.0857419,9.75644444 8.59993548,11.8505185 8.59993548,11.8505185" id="Stroke-5" sketch:type="MSShapeGroup"></path>
                <path d="M11.3069032,0.560148148 C11.3069032,0.560148148 8.82109677,2.7282963 11.3069032,6.24237037 C13.7927097,9.75644444 11.3069032,11.8505185 11.3069032,11.8505185" id="Stroke-7" sketch:type="MSShapeGroup"></path>
                <path d="M13.8878065,0.560148148 C13.8878065,0.560148148 11.402,2.7282963 13.8878065,6.24237037 C16.3736129,9.75644444 13.8878065,11.8505185 13.8878065,11.8505185" id="Stroke-9" sketch:type="MSShapeGroup"></path>
            </g>
        </g>
    </g>
</svg>