<?xml version="1.0" encoding="UTF-8" standalone="no"?>
<svg width="18px" height="24px" viewBox="0 0 18 24" version="1.1" xmlns="http://www.w3.org/2000/svg" xmlns:xlink="http://www.w3.org/1999/xlink" xmlns:sketch="http://www.bohemiancoding.com/sketch/ns">
    <!-- Generator: Sketch 3.4 (15575) - http://www.bohemiancoding.com/sketch -->
    <title>灭火器</title>
    <desc>Created with Sketch.</desc>
    <defs>
        <path id="path-1" d="M0,0.332 L17.5509474,0.332 L17.5509474,24 L0,24 L0,0.332 Z"></path>
    </defs>
    <g id="Page-1-Copy" stroke="none" stroke-width="1" fill="none" fill-rule="evenodd" sketch:type="MSPage">
        <g id="icon" sketch:type="MSArtboardGroup" transform="translate(-117.000000, -289.000000)">
            <g id="灭火器" sketch:type="MSLayerGroup" transform="translate(117.000000, 289.000000)">
                <path d="M16.6978421,9.03 L6.27868421,9.03 C5.96415789,9.03 5.78605263,8.7252 5.97836842,8.5148 L9.37278947,4.7996 C9.44478947,4.7212 9.55563158,4.6748 9.67310526,4.6748 L12.7331053,4.6748 C12.8411053,4.6748 12.9434211,4.7132 13.0144737,4.7804 L16.9792105,8.4956 C17.199,8.702 17.0256316,9.03 16.6978421,9.03 L16.6978421,9.03 Z" id="Stroke-1" stroke="#555555" sketch:type="MSShapeGroup"></path>
                <mask id="mask-2" sketch:name="Clip 4" fill="white">
                    <use xlink:href="#path-1"></use>
                </mask>
                <g id="Clip-4"></g>
                <path d="M15.8892632,7.64 L7.08631579,7.64 L7.08631579,7.3064 L15.8892632,7.3064 L15.8892632,7.64 Z" id="Fill-3" fill="#555555" sketch:type="MSShapeGroup" mask="url(#mask-2)"></path>
                <path d="M16.9825263,22.1768 L5.80357895,22.1768 L5.80357895,21.8432 L16.9825263,21.8432 L16.9825263,22.1768 Z" id="Fill-5" fill="#555555" sketch:type="MSShapeGroup" mask="url(#mask-2)"></path>
                <path d="M16.6986,23.6 L6.27754737,23.6 C6.06817895,23.6 5.8986,23.4568 5.8986,23.28 L5.8986,9.228 L17.0775474,9.228 L17.0775474,23.28 C17.0775474,23.4568 16.9079684,23.6 16.6986,23.6 L16.6986,23.6 Z" id="Stroke-6" stroke="#555555" sketch:type="MSShapeGroup" mask="url(#mask-2)"></path>
                <path d="M12.4157368,4.73168 L9.95636842,4.73168 C9.747,4.73168 9.57742105,4.58848 9.57742105,4.41168 L9.57742105,1.05168 C9.57742105,0.87488 9.747,0.73168 9.95636842,0.73168 L12.4157368,0.73168 C12.6251053,0.73168 12.7946842,0.87488 12.7946842,1.05168 L12.7946842,4.41168 C12.7946842,4.58848 12.6251053,4.73168 12.4157368,4.73168 L12.4157368,4.73168 Z" id="Stroke-7" stroke="#555555" stroke-linecap="round" sketch:type="MSShapeGroup" mask="url(#mask-2)"></path>
                <path d="M14.8709368,2.33664 L12.9762,2.33664 C12.7147263,2.33664 12.5025158,2.15744 12.5025158,1.93664 C12.5025158,1.71584 12.7147263,1.53664 12.9762,1.53664 L14.8709368,1.53664 C15.1324105,1.53664 15.3446211,1.71584 15.3446211,1.93664 C15.3446211,2.15744 15.1324105,2.33664 14.8709368,2.33664" id="Fill-8" fill="#555555" sketch:type="MSShapeGroup" mask="url(#mask-2)"></path>
                <path d="M14.2585579,3.58024 L12.9189789,2.44904 C12.7342421,2.29304 12.7342421,2.03944 12.9189789,1.88344 L12.9189789,1.88344 C13.1037158,1.72664 13.4040316,1.72664 13.5887684,1.88344 L14.9283474,3.01464 C15.1130842,3.17064 15.1130842,3.42424 14.9283474,3.58024 L14.9283474,3.58024 C14.7436105,3.73624 14.4432947,3.73624 14.2585579,3.58024" id="Fill-9" fill="#555555" sketch:type="MSShapeGroup" mask="url(#mask-2)"></path>
                <path d="M9.57751579,2.33664 C9.57751579,2.33664 -1.33711579,-1.76336 0.735726316,16.73664" id="Stroke-10" stroke="#555555" stroke-linecap="round" sketch:type="MSShapeGroup" mask="url(#mask-2)"></path>
                <path d="M1.26397895,20.03504 L1.26397895,20.03504 C1.00629474,20.06784 0.763768421,19.91664 0.724926316,19.69904 L0.539242105,18.51664 C0.5004,18.29904 0.679452632,18.09424 0.937136842,18.06144 L0.937136842,18.06144 C1.19482105,18.02864 1.43734737,18.18064 1.47618947,18.39744 L1.66187368,19.57984 C1.70071579,19.79744 1.52166316,20.00224 1.26397895,20.03504" id="Fill-11" fill="#555555" sketch:type="MSShapeGroup" mask="url(#mask-2)"></path>
            </g>
        </g>
    </g>
</svg>