<?xml version="1.0" encoding="UTF-8" standalone="no"?>
<svg width="24px" height="16px" viewBox="0 0 24 16" version="1.1" xmlns="http://www.w3.org/2000/svg" xmlns:xlink="http://www.w3.org/1999/xlink" xmlns:sketch="http://www.bohemiancoding.com/sketch/ns">
    <!-- Generator: Sketch 3.4 (15575) - http://www.bohemiancoding.com/sketch -->
    <title>熨衣服务 + 熨衣服务</title>
    <desc>Created with Sketch.</desc>
    <defs>
        <path id="path-1" d="M0,0.473263158 L24,0.473263158 L24,16 L0,16 L0,0.473263158 Z"></path>
        <path id="path-3" d="M0,0.473263158 L24,0.473263158 L24,16 L0,16 L0,0.473263158 Z"></path>
    </defs>
    <g id="Page-1-Copy" stroke="none" stroke-width="1" fill="none" fill-rule="evenodd" sketch:type="MSPage">
        <g id="icon" sketch:type="MSArtboardGroup" transform="translate(-171.000000, -463.000000)">
            <g id="熨衣服务-+-熨衣服务" sketch:type="MSLayerGroup" transform="translate(171.000000, 463.000000)">
                <g id="熨衣服务">
                    <g id="Group-3">
                        <mask id="mask-2" sketch:name="Clip 2" fill="white">
                            <use xlink:href="#path-1"></use>
                        </mask>
                        <g id="Clip-2"></g>
                        <path d="M1.57192,13.2987789 C1.26552,12.8322526 0.76632,11.8604632 0.76632,10.9669895 L18.40232,10.9669895 C18.63272,10.9669895 18.78632,10.8112 18.78632,10.5779368 C18.78632,10.3446737 18.63272,10.1897263 18.40232,10.1897263 L0.80552,10.1897263 C0.88152,9.48993684 1.07352,9.14046316 1.30312,8.75141053 C1.61032,8.20741053 1.95512,7.58509474 1.95512,6.30256842 C1.95512,5.21456842 1.26552,4.24277895 0.95832,3.85456842 C0.80552,3.66004211 0.76632,3.31056842 0.76632,2.80530526 L0.76632,1.63898947 C0.76632,1.40572632 0.91992,1.24993684 1.15032,1.24993684 L12.65192,1.24993684 C15.22072,1.24993684 17.21432,2.49372632 18.78632,4.35983158 L20.77992,7.43014737 C21.73832,9.25667368 22.50472,11.3164632 23.11832,13.2987789 L1.57192,13.2987789 Z M12.65192,0.472673684 L0.76632,0.472673684 C0.34472,0.472673684 -8e-05,0.822989474 -8e-05,1.24993684 L-8e-05,2.80530526 C-8e-05,3.34930526 0.03832,3.93204211 0.38312,4.35983158 C0.69032,4.74804211 1.18872,5.52530526 1.18872,6.30256842 C1.18872,8.6352 -8e-05,8.16867368 -8e-05,10.9669895 C-8e-05,12.4827789 1.15032,14.0760421 1.15032,14.0760421 L23.61672,14.0760421 C23.84712,14.0760421 23.99992,13.8815158 23.99992,13.6878316 L23.99992,13.5707789 C22.15992,7.62467368 19.13112,0.472673684 12.65192,0.472673684 L12.65192,0.472673684 Z" id="Fill-1" fill="#555555" sketch:type="MSShapeGroup" mask="url(#mask-2)"></path>
                    </g>
                    <path d="M11.88504,7.4688 C11.88504,7.04101053 11.54024,6.69153684 11.11864,6.69153684 L8.43464,6.69153684 C8.01304,6.69153684 7.66744,7.04101053 7.66744,7.4688 L4.60024,7.4688 C4.37064,7.4688 4.21704,7.31301053 4.21704,7.08058947 L4.21704,4.35974737 C4.21704,4.12648421 4.37064,3.97069474 4.60024,3.97069474 L12.26824,3.97069474 C13.95544,3.97069474 15.48904,5.95301053 16.25544,7.4688 L11.88504,7.4688 Z M17.21384,7.7408 C16.48584,5.87553684 14.53064,3.19343158 12.26824,3.19343158 L4.60024,3.19343158 C3.94904,3.19343158 3.45064,3.69869474 3.45064,4.35974737 L3.45064,7.08058947 C3.45064,7.7408 3.94904,8.24606316 4.60024,8.24606316 L8.43464,8.24606316 L11.11864,8.24606316 L16.86904,8.24606316 C16.98424,8.24606316 17.09944,8.16858947 17.17544,8.09111579 C17.25224,7.97406316 17.25224,7.85785263 17.21384,7.7408 L17.21384,7.7408 Z" id="Fill-4" fill="#555555" sketch:type="MSShapeGroup"></path>
                    <path d="M23.77,15.4105263 C23.77,15.216 23.578,15.0223158 23.3868,15.0223158 L1.15,15.0223158 C0.9588,15.0223158 0.7668,15.216 0.7668,15.4105263 C0.7668,15.6050526 0.9588,15.7995789 1.15,15.7995789 L23.3868,15.7995789 C23.578,15.7995789 23.77,15.6050526 23.77,15.4105263" id="Fill-6" fill="#555555" sketch:type="MSShapeGroup"></path>
                </g>
                <g id="熨衣服务">
                    <g id="Group-3">
                        <mask id="mask-4" sketch:name="Clip 2" fill="white">
                            <use xlink:href="#path-3"></use>
                        </mask>
                        <g id="Clip-2"></g>
                        <path d="M1.57192,13.2987789 C1.26552,12.8322526 0.76632,11.8604632 0.76632,10.9669895 L18.40232,10.9669895 C18.63272,10.9669895 18.78632,10.8112 18.78632,10.5779368 C18.78632,10.3446737 18.63272,10.1897263 18.40232,10.1897263 L0.80552,10.1897263 C0.88152,9.48993684 1.07352,9.14046316 1.30312,8.75141053 C1.61032,8.20741053 1.95512,7.58509474 1.95512,6.30256842 C1.95512,5.21456842 1.26552,4.24277895 0.95832,3.85456842 C0.80552,3.66004211 0.76632,3.31056842 0.76632,2.80530526 L0.76632,1.63898947 C0.76632,1.40572632 0.91992,1.24993684 1.15032,1.24993684 L12.65192,1.24993684 C15.22072,1.24993684 17.21432,2.49372632 18.78632,4.35983158 L20.77992,7.43014737 C21.73832,9.25667368 22.50472,11.3164632 23.11832,13.2987789 L1.57192,13.2987789 Z M12.65192,0.472673684 L0.76632,0.472673684 C0.34472,0.472673684 -8e-05,0.822989474 -8e-05,1.24993684 L-8e-05,2.80530526 C-8e-05,3.34930526 0.03832,3.93204211 0.38312,4.35983158 C0.69032,4.74804211 1.18872,5.52530526 1.18872,6.30256842 C1.18872,8.6352 -8e-05,8.16867368 -8e-05,10.9669895 C-8e-05,12.4827789 1.15032,14.0760421 1.15032,14.0760421 L23.61672,14.0760421 C23.84712,14.0760421 23.99992,13.8815158 23.99992,13.6878316 L23.99992,13.5707789 C22.15992,7.62467368 19.13112,0.472673684 12.65192,0.472673684 L12.65192,0.472673684 Z" id="Fill-1" fill="#555555" sketch:type="MSShapeGroup" mask="url(#mask-4)"></path>
                    </g>
                    <path d="M11.88504,7.4688 C11.88504,7.04101053 11.54024,6.69153684 11.11864,6.69153684 L8.43464,6.69153684 C8.01304,6.69153684 7.66744,7.04101053 7.66744,7.4688 L4.60024,7.4688 C4.37064,7.4688 4.21704,7.31301053 4.21704,7.08058947 L4.21704,4.35974737 C4.21704,4.12648421 4.37064,3.97069474 4.60024,3.97069474 L12.26824,3.97069474 C13.95544,3.97069474 15.48904,5.95301053 16.25544,7.4688 L11.88504,7.4688 Z M17.21384,7.7408 C16.48584,5.87553684 14.53064,3.19343158 12.26824,3.19343158 L4.60024,3.19343158 C3.94904,3.19343158 3.45064,3.69869474 3.45064,4.35974737 L3.45064,7.08058947 C3.45064,7.7408 3.94904,8.24606316 4.60024,8.24606316 L8.43464,8.24606316 L11.11864,8.24606316 L16.86904,8.24606316 C16.98424,8.24606316 17.09944,8.16858947 17.17544,8.09111579 C17.25224,7.97406316 17.25224,7.85785263 17.21384,7.7408 L17.21384,7.7408 Z" id="Fill-4" fill="#555555" sketch:type="MSShapeGroup"></path>
                    <path d="M23.77,15.4105263 C23.77,15.216 23.578,15.0223158 23.3868,15.0223158 L1.15,15.0223158 C0.9588,15.0223158 0.7668,15.216 0.7668,15.4105263 C0.7668,15.6050526 0.9588,15.7995789 1.15,15.7995789 L23.3868,15.7995789 C23.578,15.7995789 23.77,15.6050526 23.77,15.4105263" id="Fill-6" fill="#555555" sketch:type="MSShapeGroup"></path>
                </g>
            </g>
        </g>
    </g>
</svg>