<?xml version="1.0" encoding="UTF-8" standalone="no"?>
<svg width="19px" height="16px" viewBox="0 0 19 16" version="1.1" xmlns="http://www.w3.org/2000/svg" xmlns:xlink="http://www.w3.org/1999/xlink" xmlns:sketch="http://www.bohemiancoding.com/sketch/ns">
    <!-- Generator: Sketch 3.4 (15575) - http://www.bohemiancoding.com/sketch -->
    <title>礼宾服务</title>
    <desc>Created with Sketch.</desc>
    <defs></defs>
    <g id="Page-1-Copy" stroke="none" stroke-width="1" fill="none" fill-rule="evenodd" sketch:type="MSPage">
        <g id="首页（下拉）" sketch:type="MSArtboardGroup" transform="translate(-249.000000, -210.000000)" fill="#333333">
            <g id="下拉" sketch:type="MSLayerGroup" transform="translate(0.000000, -3.000000)">
                <g id="礼宾服务-+-iconfont-fuwu-2" transform="translate(249.000000, 213.000000)" sketch:type="MSShapeGroup">
                    <g id="礼宾服务">
                        <path d="M9.16035377,15.9782593 L9.47602655,15.6781593 C9.71543416,15.4520843 15.3375526,10.1252343 16.5061817,8.80138431 C17.7494003,7.39543431 19.0859194,3.87473431 16.7145399,1.71165931 C15.7344412,0.81868431 14.6606105,0.38040931 13.4835526,0.42775931 C11.3437106,0.50460931 9.74468099,2.17083431 9.67783473,2.24190931 L5.0686415,6.78733431 L5.70384601,7.40578431 L10.3243368,2.84895931 C10.4544497,2.71273431 13.2962155,-0.20601569 16.1039363,2.35490931 C18.0283622,4.10930931 16.8745089,7.04425931 15.8292395,8.22648431 C14.8409913,9.34485931 10.3971239,13.5804843 9.1692903,14.7483593 C7.93856251,13.5506093 3.44511258,9.16925931 2.48364855,8.17063431 C1.77220426,7.43108431 -0.373172325,4.81398431 1.93740313,2.19620931 C2.68962034,1.34445931 3.61709002,0.90138431 4.69508437,0.87893431 C6.02187986,0.86008431 7.2998037,1.51388431 7.94145673,2.18195931 L8.59400116,1.58155931 C7.87290948,0.83030931 6.43613374,-0.0460656904 4.67594192,0.0018843096 C3.35437633,0.0286343096 2.17196167,0.58878431 1.26056251,1.62160931 C-0.965826768,4.14465931 0.0960970681,6.97033431 1.83349058,8.77298431 C2.95383191,9.93683431 8.60997013,15.4410343 8.84935236,15.6744343 L9.16035377,15.9782593 L9.16035377,15.9782593 Z" id="iconfont-fuwu-2"></path>
                        <path d="M9.16035377,15.9782593 L9.47602655,15.6781593 C9.71543416,15.4520843 15.3375526,10.1252343 16.5061817,8.80138431 C17.7494003,7.39543431 19.0859194,3.87473431 16.7145399,1.71165931 C15.7344412,0.81868431 14.6606105,0.38040931 13.4835526,0.42775931 C11.3437106,0.50460931 9.74468099,2.17083431 9.67783473,2.24190931 L5.0686415,6.78733431 L5.70384601,7.40578431 L10.3243368,2.84895931 C10.4544497,2.71273431 13.2962155,-0.20601569 16.1039363,2.35490931 C18.0283622,4.10930931 16.8745089,7.04425931 15.8292395,8.22648431 C14.8409913,9.34485931 10.3971239,13.5804843 9.1692903,14.7483593 C7.93856251,13.5506093 3.44511258,9.16925931 2.48364855,8.17063431 C1.77220426,7.43108431 -0.373172325,4.81398431 1.93740313,2.19620931 C2.68962034,1.34445931 3.61709002,0.90138431 4.69508437,0.87893431 C6.02187986,0.86008431 7.2998037,1.51388431 7.94145673,2.18195931 L8.59400116,1.58155931 C7.87290948,0.83030931 6.43613374,-0.0460656904 4.67594192,0.0018843096 C3.35437633,0.0286343096 2.17196167,0.58878431 1.26056251,1.62160931 C-0.965826768,4.14465931 0.0960970681,6.97033431 1.83349058,8.77298431 C2.95383191,9.93683431 8.60997013,15.4410343 8.84935236,15.6744343 L9.16035377,15.9782593 L9.16035377,15.9782593 Z" id="iconfont-fuwu-2"></path>
                    </g>
                </g>
            </g>
        </g>
    </g>
</svg>