<?xml version="1.0" encoding="UTF-8" standalone="no"?>
<svg width="25px" height="16px" viewBox="0 0 25 16" version="1.1" xmlns="http://www.w3.org/2000/svg" xmlns:xlink="http://www.w3.org/1999/xlink" xmlns:sketch="http://www.bohemiancoding.com/sketch/ns">
    <!-- Generator: Sketch 3.4 (15575) - http://www.bohemiancoding.com/sketch -->
    <title>空调</title>
    <desc>Created with Sketch.</desc>
    <defs>
        <path id="path-1" d="M0,0 L23,0 L23,14 L0,14 L0,0 Z"></path>
    </defs>
    <g id="Page-1-Copy" stroke="none" stroke-width="1" fill="none" fill-rule="evenodd" sketch:type="MSPage">
        <g id="icon" sketch:type="MSArtboardGroup" transform="translate(-114.000000, -150.000000)">
            <g id="空调" sketch:type="MSLayerGroup" transform="translate(115.000000, 151.000000)">
                <path d="M22.353125,13.5882353 L0.646875,13.5882353 C0.48803125,13.5882353 0.359375,13.4408235 0.359375,13.2588235 L0.359375,0.741176471 C0.359375,0.559176471 0.48803125,0.411764706 0.646875,0.411764706 L22.353125,0.411764706 C22.5119688,0.411764706 22.640625,0.559176471 22.640625,0.741176471 L22.640625,13.2588235 C22.640625,13.4408235 22.5119688,13.5882353 22.353125,13.5882353 L22.353125,13.5882353 Z" id="Stroke-1" stroke="#555555" stroke-linecap="round" sketch:type="MSShapeGroup"></path>
                <mask id="mask-2" sketch:name="Clip 4" fill="white">
                    <use xlink:href="#path-1"></use>
                </mask>
                <g id="Clip-4"></g>
                <path d="M22.5055,9.88482353 L0.34428125,9.88482353 L0.34428125,9.06129412 L22.5055,9.06129412 L22.5055,9.88482353 Z" id="Fill-3" fill="#555555" sketch:type="MSShapeGroup" mask="url(#mask-2)"></path>
                <path d="M22.5055,11.5318824 L0.34428125,11.5318824 L0.34428125,10.7083529 L22.5055,10.7083529 L22.5055,11.5318824 Z" id="Fill-5" fill="#555555" sketch:type="MSShapeGroup" mask="url(#mask-2)"></path>
                <path d="M22.5055,13.1789412 L0.34428125,13.1789412 L0.34428125,12.3554118 L22.5055,12.3554118 L22.5055,13.1789412 Z" id="Fill-6" fill="#555555" sketch:type="MSShapeGroup" mask="url(#mask-2)"></path>
                <path d="M11.1978375,7.54912941 L2.4290875,7.54912941 C2.27024375,7.54912941 2.1415875,7.40171765 2.1415875,7.21971765 L2.1415875,2.93736471 C2.1415875,2.75536471 2.27024375,2.60795294 2.4290875,2.60795294 L11.1978375,2.60795294 C11.3566812,2.60795294 11.4853375,2.75536471 11.4853375,2.93736471 L11.4853375,7.21971765 C11.4853375,7.40171765 11.3566812,7.54912941 11.1978375,7.54912941 L11.1978375,7.54912941 Z" id="Stroke-7" stroke="#555555" sketch:type="MSShapeGroup" mask="url(#mask-2)"></path>
                <path d="M20.730475,5.1156 L19.149225,5.1156 C18.9903813,5.1156 18.861725,4.96818824 18.861725,4.78618824 L18.861725,2.97442353 C18.861725,2.79242353 18.9903813,2.64501176 19.149225,2.64501176 L20.730475,2.64501176 C20.8893188,2.64501176 21.017975,2.79242353 21.017975,2.97442353 L21.017975,4.78618824 C21.017975,4.96818824 20.8893188,5.1156 20.730475,5.1156 L20.730475,5.1156 Z" id="Stroke-9" stroke="#555555" sketch:type="MSShapeGroup" mask="url(#mask-2)"></path>
            </g>
        </g>
    </g>
</svg>