<?xml version="1.0" encoding="UTF-8" standalone="no"?>
<svg width="22px" height="22px" viewBox="0 0 22 22" version="1.1" xmlns="http://www.w3.org/2000/svg" xmlns:xlink="http://www.w3.org/1999/xlink" xmlns:sketch="http://www.bohemiancoding.com/sketch/ns">
    <!-- Generator: Sketch 3.4 (15575) - http://www.bohemiancoding.com/sketch -->
    <title>行李寄存</title>
    <desc>Created with Sketch.</desc>
    <defs></defs>
    <g id="Page-1-Copy" stroke="none" stroke-width="1" fill="none" fill-rule="evenodd" sketch:type="MSPage">
        <g id="icon" sketch:type="MSArtboardGroup" transform="translate(-172.000000, -561.000000)" stroke="#555555">
            <g id="行李寄存" sketch:type="MSLayerGroup" transform="translate(173.000000, 562.000000)">
                <path d="M13.1818182,4.26990476 L6.81818182,4.26990476 L6.81818182,1.4127619 C6.81818182,0.887047619 7.22545455,0.460380952 7.72727273,0.460380952 L12.2727273,0.460380952 C12.7745455,0.460380952 13.1818182,0.887047619 13.1818182,1.4127619 L13.1818182,4.26990476 L13.1818182,4.26990476 Z" id="Stroke-1" sketch:type="MSShapeGroup"></path>
                <path d="M18.6363636,4.28571429 L1.36363636,4.28571429 C0.861818182,4.28571429 0.454545455,4.71238095 0.454545455,5.23809524 L0.454545455,16.6666667 C0.454545455,17.192381 0.861818182,17.6190476 1.36363636,17.6190476 L4.04909091,17.6190476 C4.04909091,18.6714286 4.86363636,19.5238095 5.86727273,19.5238095 C6.87181818,19.5238095 7.68545455,18.6714286 7.68545455,17.6190476 L12.2745455,17.6190476 C12.2872727,18.6590476 13.0936364,19.4990476 14.09,19.4990476 C15.0863636,19.4990476 15.8927273,18.6590476 15.9054545,17.6190476 L18.6363636,17.6190476 C19.1381818,17.6190476 19.5454545,17.192381 19.5454545,16.6666667 L19.5454545,5.23809524 C19.5454545,4.71238095 19.1381818,4.28571429 18.6363636,4.28571429 L18.6363636,4.28571429 Z" id="Stroke-3" sketch:type="MSShapeGroup"></path>
                <path d="M6.81818182,7.19447619 L6.81818182,14.8135238" id="Stroke-5" stroke-linecap="round" sketch:type="MSShapeGroup"></path>
                <path d="M13.1818182,7.19447619 L13.1818182,14.8135238" id="Stroke-7" stroke-linecap="round" sketch:type="MSShapeGroup"></path>
            </g>
        </g>
    </g>
</svg>