<?xml version="1.0" encoding="UTF-8" standalone="no"?>
<svg width="18px" height="25px" viewBox="0 0 18 25" version="1.1" xmlns="http://www.w3.org/2000/svg" xmlns:xlink="http://www.w3.org/1999/xlink" xmlns:sketch="http://www.bohemiancoding.com/sketch/ns">
    <!-- Generator: Sketch 3.4 (15575) - http://www.bohemiancoding.com/sketch -->
    <title>酒吧</title>
    <desc>Created with Sketch.</desc>
    <defs></defs>
    <g id="Page-1-Copy" stroke="none" stroke-width="1" fill="none" fill-rule="evenodd" sketch:type="MSPage">
        <g id="icon" sketch:type="MSArtboardGroup" transform="translate(-178.000000, -326.000000)">
            <g id="酒吧" sketch:type="MSLayerGroup" transform="translate(178.000000, 326.000000)">
                <path d="M16.0459579,5.85111429 L0.851115789,5.92225714 C0.535642105,5.92311429 0.360378947,6.25311429 0.556484211,6.47768571 L7.59258947,14.5194 L7.59258947,23.2288286 C7.59258947,23.4182571 7.76216842,23.5716857 7.97153684,23.5716857 L9.10837895,23.5716857 C9.31774737,23.5716857 9.48732632,23.4182571 9.48732632,23.2288286 L9.48732632,14.4491143 L16.3481684,6.40311429 C16.5404842,6.17768571 16.3614316,5.8494 16.0459579,5.85111429 L16.0459579,5.85111429 Z" id="Stroke-1" stroke="#555555" stroke-linecap="round" sketch:type="MSShapeGroup"></path>
                <path d="M12.7137789,24 L4.18746316,24 C3.92598947,24 3.71377895,23.808 3.71377895,23.5714286 L3.71377895,23.5714286 C3.71377895,23.3348571 3.92598947,23.1428571 4.18746316,23.1428571 L12.7137789,23.1428571 C12.9752526,23.1428571 13.1874632,23.3348571 13.1874632,23.5714286 L13.1874632,23.5714286 C13.1874632,23.808 12.9752526,24 12.7137789,24" id="Fill-3" fill="#555555" sketch:type="MSShapeGroup"></path>
                <path d="M17.4461684,1.10305714 L12.0234316,6.00934286 C11.8386947,6.17648571 11.5383789,6.17648571 11.3536421,6.00934286 L11.3536421,6.00934286 C11.1689053,5.84134286 11.1689053,5.57048571 11.3536421,5.40334286 L16.7763789,0.497057143 C16.9611158,0.329914286 17.2614316,0.329914286 17.4461684,0.497057143 L17.4461684,0.497057143 C17.6309053,0.6642 17.6309053,0.935914286 17.4461684,1.10305714" id="Fill-5" fill="#555555" sketch:type="MSShapeGroup"></path>
                <path d="M16.2376105,2.81245714 C16.2376105,3.52217143 15.6009789,4.09817143 14.8165579,4.09817143 C14.0321368,4.09817143 13.3955053,3.52217143 13.3955053,2.81245714 C13.3955053,2.10274286 14.0321368,1.52674286 14.8165579,1.52674286 C15.6009789,1.52674286 16.2376105,2.10274286 16.2376105,2.81245714" id="Fill-7" fill="#555555" sketch:type="MSShapeGroup"></path>
            </g>
        </g>
    </g>
</svg>