<?xml version="1.0" encoding="UTF-8" standalone="no"?>
<svg width="18px" height="18px" viewBox="0 0 18 18" version="1.1" xmlns="http://www.w3.org/2000/svg" xmlns:xlink="http://www.w3.org/1999/xlink" xmlns:sketch="http://www.bohemiancoding.com/sketch/ns">
    <!-- Generator: Sketch 3.4 (15575) - http://www.bohemiancoding.com/sketch -->
    <title>餐饮服务</title>
    <desc>Created with Sketch.</desc>
    <defs></defs>
    <g id="Page-1-Copy" stroke="none" stroke-width="1" fill="none" fill-rule="evenodd" sketch:type="MSPage">
        <g id="首页（下拉）" sketch:type="MSArtboardGroup" transform="translate(-249.000000, -77.000000)" fill="#272636">
            <g id="下拉" sketch:type="MSLayerGroup" transform="translate(0.000000, -3.000000)">
                <g id="餐饮服务-+-餐饮服务" transform="translate(249.000000, 80.000000)" sketch:type="MSShapeGroup">
                    <g id="餐饮服务">
                        <path id="Fill-1" d="M17.5002119,9.19373394 C17.4962744,9.21520984 17.4900869,9.23311733 17.4838994,9.23901011 C17.5230494,9.3879664 17.5124744,9.25269445 17.5002119,9.19373394 L17.5002119,9.19373394 Z"></path>
                        <path d="M17.9624909,0.391981651 C17.8905732,0.124926606 17.616814,-0.0338807339 17.3500244,0.037733945 L2.87467683,3.92823853 C2.60799695,3.9999633 2.44956402,4.27453211 2.52150915,4.54202752 C2.5929878,4.80963303 2.86674695,4.96841284 3.13339939,4.89682569 L3.49655488,4.79909174 L3.49655488,7.47817431 L0.499472561,7.47817431 C0.223271341,7.47817431 0,7.70212844 0,7.97917431 L0,8.9812844 C0,8.99933945 0.00847865854,9.0143945 0.00996036585,9.03137615 C0.00803963415,9.09847706 0,9.16417431 0,9.23179817 C0,14.0743211 3.91371037,18 8.74146951,18 C13.5692287,18 17.482939,14.0738807 17.482939,9.23179817 C17.482939,9.15759633 17.4848872,9.16469725 17.487439,9.19373394 C17.4953689,9.04687156 17.482939,8.52737615 17.482939,8.4802844 L17.482939,7.97917431 C17.482939,7.70212844 17.2601067,7.47817431 16.9833567,7.47817431 L12.487747,7.47817431 L12.487747,2.46781651 C12.487747,2.43922018 12.4768262,2.41469725 12.4717774,2.38706422 L17.6083628,1.00673394 C17.875564,0.935119266 18.0334482,0.660550459 17.9624909,0.391981651 L17.9624909,0.391981651 Z M11.4897622,2.65166972 L11.4897622,7.47817431 L10.4907073,7.47817431 L10.4907073,2.96881651 C10.4907073,2.95279817 10.4827774,2.93870642 10.480747,2.92268807 L11.4897622,2.65166972 L11.4897622,2.65166972 Z M9.4917622,3.18825688 L9.4917622,7.47817431 L8.49270732,7.47817431 L8.49270732,3.46981651 C8.49270732,3.46585321 8.4902378,3.46186239 8.4902378,3.45778899 L9.4917622,3.18825688 L9.4917622,3.18825688 Z M6.49467988,3.99393578 L7.49365244,3.72536697 L7.49365244,7.47817431 L6.49467988,7.47817431 L6.49467988,3.99393578 L6.49467988,3.99393578 Z M4.49657012,4.53107339 L5.495625,4.26250459 L5.495625,7.47817431 L4.49657012,7.47817431 L4.49657012,4.53107339 L4.49657012,4.53107339 Z M16.4468963,8.4802844 C16.4714543,8.72777064 16.4848445,8.9782844 16.4848445,9.23179817 C16.4848445,13.5211651 13.018747,16.9978899 8.74242988,16.9978899 C4.46614024,16.9978899 1.00001524,13.5211651 1.00001524,9.23179817 C1.00001524,8.9782844 1.01395427,8.72777064 1.03796341,8.4802844 L16.4468963,8.4802844 L16.4468963,8.4802844 Z" id="Fill-2"></path>
                    </g>
                </g>
            </g>
        </g>
    </g>
</svg>