<?xml version="1.0" encoding="UTF-8" standalone="no"?>
<svg width="18px" height="18px" viewBox="0 0 18 18" version="1.1" xmlns="http://www.w3.org/2000/svg" xmlns:xlink="http://www.w3.org/1999/xlink" xmlns:sketch="http://www.bohemiancoding.com/sketch/ns">
    <!-- Generator: Sketch 3.4 (15575) - http://www.bohemiancoding.com/sketch -->
    <title>我的兔友</title>
    <desc>Created with Sketch.</desc>
    <defs></defs>
    <g id="Page-1" stroke="none" stroke-width="1" fill="none" fill-rule="evenodd" sketch:type="MSPage">
        <g id="个人中心（未登录）" sketch:type="MSArtboardGroup" transform="translate(-16.000000, -419.000000)" fill="#FF5054">
            <g id="我的兔友" sketch:type="MSLayerGroup" transform="translate(0.000000, 403.000000)">
                <path d="M21.7866581,23.7126193 C18.3309498,23.7126193 16.545837,26.0462184 16.2256919,28.8571828 C15.900097,31.6683218 15.0093572,34 21.7866581,34 C28.5639241,34 27.6749661,31.6683218 27.3458077,28.8571828 C27.0256627,26.0462184 25.2405848,23.7126193 21.7866581,23.7126193 L21.7866581,23.7126193 Z M33.8029286,28.2135361 C33.5149937,25.7529119 31.9284519,23.7126193 28.857309,23.7126193 C28.1632537,23.7126193 27.5551737,23.8288522 27.013121,24.0183244 C28.1471486,25.1734937 28.9074059,26.7471783 29.1238287,28.6533561 L29.204354,29.2720658 C29.3438149,30.3235405 29.5048307,31.5609251 29.0934002,32.7090044 C34.8458107,32.651831 34.0873351,30.6400377 33.8029286,28.2135361 L33.8029286,28.2135361 Z M21.7866581,22.4286787 C23.5646442,22.4286787 25.0044935,20.9890741 25.0044935,19.2134487 C25.0044935,17.4396046 23.5646442,16 21.7866581,16 C20.0123054,16 18.5741329,17.4396046 18.5741329,19.2134487 C18.5741329,20.9890741 20.0123054,22.4286787 21.7866581,22.4286787 L21.7866581,22.4286787 Z M28.857309,22.4286787 C30.2792716,22.4286787 31.431186,21.2770718 31.431186,19.8572701 C31.431186,18.4409958 30.2774899,17.2857218 28.857309,17.2857218 C27.437128,17.2857218 26.2852136,18.4409958 26.2852136,19.8572701 C26.2869953,21.2770718 27.437128,22.4286787 28.857309,22.4286787 L28.857309,22.4286787 Z" sketch:type="MSShapeGroup"></path>
            </g>
        </g>
    </g>
</svg>