<?xml version="1.0" encoding="UTF-8" standalone="no"?>
<svg width="20px" height="20px" viewBox="0 0 20 20" version="1.1" xmlns="http://www.w3.org/2000/svg" xmlns:xlink="http://www.w3.org/1999/xlink" xmlns:sketch="http://www.bohemiancoding.com/sketch/ns">
    <!-- Generator: Sketch 3.5.2 (25235) - http://www.bohemiancoding.com/sketch -->
    <title>iconfont-duigou</title>
    <desc>Created with Sketch.</desc>
    <defs>
        <path d="M10.7642497,0.0285714286 C15.8432441,0.410844637 19.8637122,4.58236286 20,9.72041248 L20,10.259587 L20,10.259587 C19.8569621,15.6520923 15.435463,19.9792857 10.0021429,19.9792857 C4.7921765,19.9792857 0.512947531,16.0015746 0.0428571429,10.9209585 L0.0428571429,9.05903487 C0.489809504,4.22841988 4.38015414,0.394302036 9.23994105,0.0285714286 L10.7642497,0.0285714286 L10.7642497,0.0285714286 Z M15.7385714,7.39857143 L9.27,13.8592857 L9.27,13.86 C8.97142857,14.1578571 8.51714286,14.2042857 8.17,13.9992857 C8.10571429,13.9614286 8.045,13.915 7.99,13.86 L7.98928571,13.8592857 L4.265,10.14 C3.91142857,9.78642857 3.91142857,9.21428571 4.265,8.86071429 C4.61857143,8.50785714 5.19214286,8.50785714 5.545,8.86071429 L8.63,11.9414286 L14.4585714,6.12 C14.8121429,5.76642857 15.3857143,5.76642857 15.7385714,6.12 C16.0921429,6.47285714 16.0921429,7.04571429 15.7385714,7.39857143 L15.7385714,7.39857143 Z" id="path-1"></path>
    </defs>
    <g id="Page-1" stroke="none" stroke-width="1" fill="none" fill-rule="evenodd" sketch:type="MSPage">
        <g id="常用旅客信息－删除" sketch:type="MSArtboardGroup" transform="translate(-16.000000, -92.000000)">
            <g id="iconfont-duigou" sketch:type="MSLayerGroup" transform="translate(16.000000, 92.000000)">
                <mask id="mask-2" sketch:name="Clip 2" fill="white">
                    <use xlink:href="#path-1"></use>
                </mask>
                <g id="Clip-2"></g>
                <path d="M0.0428571429,0.0285714286 L20.0142857,0.0285714286 L20.0142857,20 L0.0428571429,20 L0.0428571429,0.0285714286 Z" id="Fill-1" fill="#009AF1" sketch:type="MSShapeGroup" mask="url(#mask-2)"></path>
            </g>
        </g>
    </g>
</svg>