<?xml version="1.0" encoding="UTF-8" standalone="no"?>
<svg width="20px" height="20px" viewBox="0 0 20 20" version="1.1" xmlns="http://www.w3.org/2000/svg" xmlns:xlink="http://www.w3.org/1999/xlink" xmlns:sketch="http://www.bohemiancoding.com/sketch/ns">
    <!-- Generator: Sketch 3.5.2 (25235) - http://www.bohemiancoding.com/sketch -->
    <title>iconfont-tianjia</title>
    <desc>Created with Sketch.</desc>
    <defs></defs>
    <g id="Page-1" stroke="none" stroke-width="1" fill="none" fill-rule="evenodd" sketch:type="MSPage">
        <g id="常用旅客信息" sketch:type="MSArtboardGroup" transform="translate(-109.000000, -86.000000)" fill="#2296F0">
            <g id="iconfont-tianjia" sketch:type="MSLayerGroup" transform="translate(109.000000, 86.000000)">
                <path d="M10.0074413,0.0100865266 C4.47987639,0.0100865266 0,4.48996292 0,10.0175278 C0,15.5450927 4.47987639,20.0247713 10.0074413,20.0247713 C15.5350062,20.0247713 20.0148826,15.5450927 20.0148826,10.0175278 C20.0148826,4.48996292 15.5350062,0.0100865266 10.0074413,0.0100865266 L10.0074413,0.0100865266 Z M10.0074413,19.2241038 C4.93105068,19.2241038 0.800568603,15.0939184 0.800568603,10.0175278 C0.800568603,4.94103832 4.93105068,0.81065513 10.0074413,0.81065513 C15.0838319,0.81065513 19.2142151,4.94103832 19.2142151,10.0175278 C19.2142151,15.0939184 15.0838319,19.2241038 10.0074413,19.2241038 L10.0074413,19.2241038 Z" id="Fill-1" sketch:type="MSShapeGroup"></path>
                <path d="M10.4077132,4.0131026 L9.60714462,4.0131026 L9.60714462,9.61723115 L4.02956737,9.61723115 L4.02956737,10.4177998 L9.60714462,10.4177998 L9.60714462,15.995377 L10.4077132,15.995377 L10.4077132,10.4177998 L16.0118665,10.4177998 L16.0118665,9.61723115 L10.4077132,9.61723115 L10.4077132,4.0131026 Z" id="Fill-2" sketch:type="MSShapeGroup"></path>
            </g>
        </g>
    </g>
</svg>