<?xml version="1.0" encoding="UTF-8" standalone="no"?>
<svg width="16px" height="18px" viewBox="0 0 16 18" version="1.1" xmlns="http://www.w3.org/2000/svg" xmlns:xlink="http://www.w3.org/1999/xlink" xmlns:sketch="http://www.bohemiancoding.com/sketch/ns">
    <!-- Generator: Sketch 3.4 (15575) - http://www.bohemiancoding.com/sketch -->
    <title>我的资产</title>
    <desc>Created with Sketch.</desc>
    <defs></defs>
    <g id="Page-1" stroke="none" stroke-width="1" fill="none" fill-rule="evenodd" sketch:type="MSPage">
        <g id="个人中心（未登录）" sketch:type="MSArtboardGroup" transform="translate(-17.000000, -266.000000)" fill="#FC8215">
            <g id="我的资产" sketch:type="MSLayerGroup" transform="translate(0.000000, 250.000000)">
                <path d="M24.9751681,33.9866974 C19.3567257,33.9866974 17,31.9770691 17,27.8468921 C17,24.4253258 19.6723894,20.8546355 22.9119646,19.7281753 L27.0383982,19.7281753 C30.2781858,20.8547417 32.9503628,24.4253258 32.9503628,27.8468921 C32.9503628,31.9770691 30.5936372,33.9866974 24.9751681,33.9866974 L24.9751681,33.9866974 Z M27.1854513,27.1999806 L27.1854513,27.1986266 C27.5582743,27.196662 27.8598673,26.8937417 27.8598673,26.5206001 C27.8598673,26.1470603 27.5582743,25.844432 27.1854513,25.8421488 L27.1854513,25.8405027 L25.8174779,25.8405027 C25.8201858,25.8252638 25.8157257,25.8116709 25.8170531,25.796432 L27.4201416,24.157662 C27.6816991,23.8630249 27.5486372,23.6193346 27.284292,23.3522815 C27.0183805,23.0837948 26.5837522,23.027485 26.3687876,23.261432 L24.9902212,24.7309541 L23.5012124,23.241839 C23.3127699,23.0536089 22.946292,23.115016 22.6824513,23.378724 C22.4184248,23.6428833 22.3573363,24.0097859 22.5456726,24.198016 L24.0684779,25.7206089 C24.0399646,25.7570072 24.0215929,25.7974673 24.0104956,25.8405027 L22.7727699,25.8405027 L22.7727699,25.8418567 L22.7692655,25.8418567 C22.3944513,25.8418567 22.0904956,26.1453877 22.0904956,26.5206001 C22.0904956,26.8950957 22.3944513,27.1992638 22.7692655,27.1992638 C22.7704867,27.1992638 22.7716283,27.1986266 22.7727699,27.1986266 L22.7727699,27.1999806 L24.1294602,27.1999806 L24.1294602,27.8760426 L22.7727699,27.8760426 L22.7727699,27.8780072 L22.7692655,27.8780072 C22.3944513,27.8780072 22.0904956,28.1816443 22.0904956,28.5567505 C22.0904956,28.9312461 22.3944513,29.2355204 22.7692655,29.2355204 C22.7704867,29.2355204 22.7716283,29.2348833 22.7727699,29.2348833 L22.7727699,29.2355204 L24.1294602,29.2355204 L24.1294602,29.9189364 L24.1434513,29.9189364 C24.132885,29.9719275 24.1267522,30.0272019 24.1267522,30.0839364 C24.1267522,30.5525735 24.5066372,30.9323523 24.9751681,30.9323523 C25.4438319,30.9323523 25.8235841,30.5525735 25.8235841,30.0839364 C25.8235841,30.0272019 25.8174779,29.9719275 25.8069115,29.9189364 L25.8147699,29.9189364 L25.8147699,29.2355204 L27.1854513,29.2348833 C27.5582743,29.2324939 27.8598673,28.9298921 27.8598673,28.5567505 C27.8598673,28.1832107 27.5582743,27.8807151 27.1854513,27.8783258 L27.1854513,27.8760426 L25.8147699,27.8760426 L25.8147699,27.1999806 L27.1854513,27.1999806 L27.1854513,27.1999806 Z M28.1991858,17.0181399 L28.0565929,17.1965204 C28.0533805,17.199839 28.0512035,17.2037682 28.0480973,17.2070868 L26.8417788,18.715078 L22.7692655,18.715078 L21.5652301,17.2096886 C21.5563097,17.2010868 21.5504956,17.1904939 21.5422124,17.1811753 L21.4118584,17.0181399 L21.4348761,16.9721045 C21.4237788,16.9303169 21.4089381,16.8895647 21.4089381,16.8445381 C21.4089381,16.628432 21.5448938,16.4458036 21.7350885,16.371547 L21.751177,16.3393966 C21.751177,16.3393966 23.4193894,16.0056797 24.8055221,16.000078 C26.2561416,15.9940514 27.8598673,16.3393966 27.8598673,16.3393966 L27.876354,16.3718656 C28.0654071,16.446839 28.200115,16.6291488 28.200115,16.844432 C28.200115,16.8889275 28.1854867,16.9283258 28.1749204,16.9691045 L28.1991858,17.0181399 L28.1991858,17.0181399 Z" sketch:type="MSShapeGroup"></path>
            </g>
        </g>
    </g>
</svg>