<?xml version="1.0" encoding="UTF-8" standalone="no"?>
<svg width="16px" height="18px" viewBox="0 0 16 18" version="1.1" xmlns="http://www.w3.org/2000/svg" xmlns:xlink="http://www.w3.org/1999/xlink" xmlns:sketch="http://www.bohemiancoding.com/sketch/ns">
    <!-- Generator: Sketch 3.4 (15575) - http://www.bohemiancoding.com/sketch -->
    <title>Fill 2</title>
    <desc>Created with Sketch.</desc>
    <defs></defs>
    <g id="Page-1" stroke="none" stroke-width="1" fill="none" fill-rule="evenodd" sketch:type="MSPage">
        <g id="个人中心（未登录）" sketch:type="MSArtboardGroup" transform="translate(-17.000000, -215.000000)" fill="#2F9FF7">
            <g id="我的订单" sketch:type="MSLayerGroup" transform="translate(0.000000, 199.000000)">
                <g transform="translate(17.000000, 16.000000)" id="Fill-2" sketch:type="MSShapeGroup">
                    <path d="M13.9105175,0.629656707 L12.0292867,0.629656707 C12.0483916,0.732902098 12.0594406,0.837377622 12.0594406,0.943111888 C12.0600839,1.73674825 11.4970629,2.5177686 10.8274685,2.5177686 L5.04797203,2.5177686 C4.3433007,2.5177686 3.77960839,1.73674825 3.77960839,0.943111888 C3.78027972,0.837377622 3.7913007,0.732902098 3.81043357,0.629656707 L1.90646154,0.629656707 C0.375972028,0.629656707 0,1.51704069 0,2.79712333 L0,15.4775111 C0,16.8527146 0.538461538,17.6223204 2.02206993,17.6223204 L13.7947972,17.6223204 C15.2785175,17.6223204 15.9996643,17.0188684 15.9996643,15.4781977 L15.9996643,2.79712333 C15.9997762,1.51704069 15.3246154,0.629656707 13.9105175,0.629656707 L13.9105175,0.629656707 Z M9.80844755,0.000286077559 L6.03071329,0.000286077559 C5.5673007,0.000286077559 5.1968951,0.421907184 5.1968951,0.943111888 C5.1968951,1.46543229 5.56797203,1.88839797 6.03071329,1.88839797 L9.83183217,1.88839797 C10.2718601,1.88839797 10.6429091,1.46543229 10.6429091,0.943111888 C10.6429091,0.421907184 10.2723916,0.000286077559 9.80844755,0.000286077559 L9.80844755,0.000286077559 Z M11.9777063,13.149555 L3.79686713,13.149555 C3.4953007,13.149555 3.19437762,12.7713032 3.19437762,12.4623109 C3.19437762,12.1545486 3.4492028,11.8908137 3.75065734,11.8908137 L11.9081119,11.8908137 C12.2095664,11.8908137 12.4643916,12.1306325 12.4872168,12.4623109 C12.4872168,12.7713032 12.2791608,13.149555 11.9777063,13.149555 L11.9777063,13.149555 Z M12.0109371,9.79206294 L3.8300979,9.79206294 C3.52853147,9.79206294 3.33653147,9.46038462 3.33653147,9.15130642 C3.33653147,8.84231405 3.59135664,8.53332168 3.89281119,8.53332168 L12.0502657,8.53332168 C12.3518322,8.53332168 12.6065455,8.8196281 12.6293706,9.15130642 C12.6293706,9.46027018 12.3118322,9.79206294 12.0109371,9.79206294 L12.0109371,9.79206294 Z M12.0109371,6.34371265 L3.8300979,6.34371265 C3.52853147,6.34371265 3.33653147,6.01203433 3.33653147,5.70307057 C3.33653147,5.39407819 3.59135664,5.08497139 3.89281119,5.08497139 L12.0502657,5.08497139 C12.3518322,5.08497139 12.6065455,5.37139224 12.6293706,5.70307057 C12.6293706,6.01203433 12.3118322,6.34371265 12.0109371,6.34371265 L12.0109371,6.34371265 Z"></path>
                </g>
            </g>
        </g>
    </g>
</svg>