<?xml version="1.0" encoding="UTF-8" standalone="no"?>
<svg width="18px" height="18px" viewBox="0 0 18 18" version="1.1" xmlns="http://www.w3.org/2000/svg" xmlns:xlink="http://www.w3.org/1999/xlink" xmlns:sketch="http://www.bohemiancoding.com/sketch/ns">
    <!-- Generator: Sketch 3.4 (15575) - http://www.bohemiancoding.com/sketch -->
    <title>设置</title>
    <desc>Created with Sketch.</desc>
    <defs></defs>
    <g id="Page-1" stroke="none" stroke-width="1" fill="none" fill-rule="evenodd" sketch:type="MSPage">
        <g id="个人中心（未登录）" sketch:type="MSArtboardGroup" transform="translate(-16.000000, -470.000000)" fill="#2296F0">
            <g id="设置" sketch:type="MSLayerGroup" transform="translate(0.000000, 454.000000)">
                <path d="M33.092318,23.0695063 L31.5104268,23.0695063 C31.3612803,22.7481423 31.1498494,22.0797322 30.879272,21.603523 L31.9965272,20.517749 C32.3493724,20.1649038 32.3497741,19.6099665 31.9972301,19.2577238 L30.7217908,17.9900418 C30.3696485,17.6378745 29.7986192,17.6417155 29.4457741,17.9942594 L28.3907782,19.1131715 C27.915272,18.8428954 27.2468619,18.633046 26.9254979,18.4839749 L26.9254979,16.9022845 C26.9254979,16.4036318 26.3972218,16 25.8994477,16 L24.0958326,16 C23.5977824,16 23.0695063,16.4036318 23.0695063,16.9022845 L23.0695063,18.4842762 C22.7481423,18.6333473 22.0800335,18.8448536 21.6038243,19.1150293 L20.517749,17.9977741 C20.1649038,17.6449289 19.6095649,17.6449289 19.2577238,17.9970962 L17.9900418,19.2728117 C17.6381757,19.6246778 17.6414142,20.1957071 17.9942594,20.5488285 L19.1134728,21.6038243 C18.8428954,22.0800335 18.6333473,22.7481423 18.4842762,23.0695063 L16.9026862,23.0695063 C16.4036318,23.0695063 16,23.5977824 16,24.0954561 L16,25.8991464 C16,26.3969456 16.4036318,26.9254979 16.9026862,26.9254979 L18.4845774,26.9254979 C18.6337238,27.2468619 18.8454561,27.9148703 19.115431,28.3911799 L17.9980753,29.4776318 C17.6452301,29.8303766 17.6452301,30.3850377 17.9974728,30.7372803 L19.2728117,32.0052636 C19.6246778,32.3571297 20.1960084,32.35359 20.5488285,32.0007448 L21.6038243,30.8815314 C22.0800335,31.1518075 22.7481423,31.3615565 23.0695063,31.510728 L23.0695063,33.0926946 C23.0695063,33.5913724 23.5977824,33.9950042 24.0954561,33.9950042 L25.8991464,33.9950042 C26.3969456,33.9950042 26.9254979,33.5913724 26.9254979,33.092318 L26.9254979,31.5104268 C27.2468619,31.3612803 27.9148703,31.1495481 28.3914812,30.879272 L29.4776318,31.9965272 C29.8303766,32.3493724 30.3850377,32.3493724 30.7372803,31.9972301 L32.0052636,30.7217908 C32.3571297,30.3696485 32.35359,29.7986192 32.0007448,29.4457741 L30.8815314,28.3907782 C31.1518075,27.9145941 31.3615565,27.2468619 31.510728,26.9254979 L33.0926946,26.9254979 C33.5913724,26.9254979 33.9950042,26.3972218 33.9950042,25.8994477 L33.9950042,24.0958326 C33.9950042,23.5977824 33.5913724,23.0695063 33.092318,23.0695063 L33.092318,23.0695063 Z M24.9974393,29.0550711 C22.7561757,29.0550711 20.9393305,27.2382259 20.9393305,24.9971632 C20.9393305,22.7557741 22.7561757,20.9389289 24.9974393,20.9389289 C27.2391046,20.9389289 29.0556736,22.7557741 29.0556736,24.9971632 C29.0556736,27.2382259 27.2391046,29.0550711 24.9974393,29.0550711 L24.9974393,29.0550711 Z" sketch:type="MSShapeGroup"></path>
            </g>
        </g>
    </g>
</svg>