<?xml version="1.0" encoding="UTF-8" standalone="no"?>
<svg width="16px" height="18px" viewBox="0 0 16 18" version="1.1" xmlns="http://www.w3.org/2000/svg" xmlns:xlink="http://www.w3.org/1999/xlink" xmlns:sketch="http://www.bohemiancoding.com/sketch/ns">
    <!-- Generator: Sketch 3.4 (15575) - http://www.bohemiancoding.com/sketch -->
    <title>常用旅客</title>
    <desc>Created with Sketch.</desc>
    <defs></defs>
    <g id="Page-1" stroke="none" stroke-width="1" fill="none" fill-rule="evenodd" sketch:type="MSPage">
        <g id="个人中心（未登录）" sketch:type="MSArtboardGroup" transform="translate(-17.000000, -368.000000)" fill="#2F9FF6">
            <g id="常用旅客" sketch:type="MSLayerGroup" transform="translate(0.000000, 352.000000)">
                <path d="M28.9999756,20.0554653 L28.9999756,18.0246733 C28.9999756,16.9084158 28.1049745,16 27.0000122,16 L22.9999878,16 C21.8870177,16 21.0000244,16.906396 21.0000244,18.0246733 L21.0000244,20.0554653 L18.9940259,20.0554653 C17.8950011,20.0554653 17,20.9628713 17,22.0831485 L17,31.9723168 C17,33.099703 17.8930284,34 18.9940259,34 L31.0059741,34 C32.1049989,34 33,33.0925941 33,31.9723168 L33,22.0831485 C33,20.9547525 32.1069911,20.0554653 31.0059741,20.0554653 L28.9999756,20.0554653 Z M21.0000244,21.9904397 C21.0000244,21.7113751 21.2319538,21.4851485 21.5000153,21.4851485 L21.5000153,21.4851485 C21.7761526,21.4851485 22.0000061,21.7167603 22.0000061,21.9904397 L22.0000061,32.0689662 C22.0000061,32.3480308 21.7680768,32.5742574 21.5000153,32.5742574 L21.5000153,32.5742574 C21.2238779,32.5742574 21.0000244,32.3426456 21.0000244,32.0689662 L21.0000244,21.9904397 Z M22.0000061,18.0256832 C22.0000061,17.4670495 22.453034,17.0138416 22.997019,17.0138416 L27.002981,17.0138416 C27.5539777,17.0138416 27.9999939,17.4660396 27.9999939,18.0256832 L27.9999939,20.0554653 L22.0000061,20.0554653 L22.0000061,18.0256832 L22.0000061,18.0256832 Z M27.9999939,21.9904397 C27.9999939,21.7113751 28.2319232,21.4851485 28.4999847,21.4851485 L28.4999847,21.4851485 C28.7761221,21.4851485 28.9999756,21.7167603 28.9999756,21.9904397 L28.9999756,32.0689662 C28.9999756,32.3480308 28.7680462,32.5742574 28.4999847,32.5742574 L28.4999847,32.5742574 C28.2238474,32.5742574 27.9999939,32.3426456 27.9999939,32.0689662 L27.9999939,21.9904397 Z" sketch:type="MSShapeGroup"></path>
            </g>
        </g>
    </g>
</svg>