<?xml version="1.0" encoding="UTF-8" standalone="no"?>
<svg width="22px" height="22px" viewBox="0 0 22 22" version="1.1" xmlns="http://www.w3.org/2000/svg" xmlns:xlink="http://www.w3.org/1999/xlink" xmlns:sketch="http://www.bohemiancoding.com/sketch/ns">
    <!-- Generator: Sketch 3.4 (15575) - http://www.bohemiancoding.com/sketch -->
    <title>24xiaoshiqiantai</title>
    <desc>Created with Sketch.</desc>
    <defs></defs>
    <g id="Page-1-Copy" stroke="none" stroke-width="1" fill="none" fill-rule="evenodd" sketch:type="MSPage">
        <g id="icon" sketch:type="MSArtboardGroup" transform="translate(-233.000000, -460.000000)" stroke="#555555">
            <g id="24xiaoshiqiantai" sketch:type="MSLayerGroup" transform="translate(234.000000, 461.000000)">
                <path d="M12.0689655,2.48568 C12.0689655,3.81128 11.1427586,4.88568 10,4.88568 C8.85724138,4.88568 7.93103448,3.81128 7.93103448,2.48568 C7.93103448,1.16008 8.85724138,0.08568 10,0.08568 C11.1427586,0.08568 12.0689655,1.16008 12.0689655,2.48568 L12.0689655,2.48568 Z" id="Stroke-1" sketch:type="MSShapeGroup"></path>
                <path d="M5.17241379,9.74 C5.17241379,7.5312 7.3337931,5.74 10,5.74 C12.6662069,5.74 14.8275862,7.5312 14.8275862,9.74" id="Stroke-3" stroke-linecap="round" sketch:type="MSShapeGroup"></path>
                <path d="M19.3793103,10.12 L0.620689655,10.12 C0.468275862,10.12 0.344827586,10.2632 0.344827586,10.44 L0.344827586,12.2 C0.344827586,12.3768 0.468275862,12.52 0.620689655,12.52 L1.72413793,12.52 L1.72413793,19.28 C1.72413793,19.4568 1.84758621,19.6 2,19.6 L18,19.6 C18.1524138,19.6 18.2758621,19.4568 18.2758621,19.28 L18.2758621,12.52 L19.3793103,12.52 C19.5317241,12.52 19.6551724,12.3768 19.6551724,12.2 L19.6551724,10.44 C19.6551724,10.2632 19.5317241,10.12 19.3793103,10.12 L19.3793103,10.12 Z" id="Stroke-5" stroke-linecap="round" sketch:type="MSShapeGroup"></path>
            </g>
        </g>
    </g>
</svg>