<?xml version="1.0" encoding="UTF-8" standalone="no"?>
<svg width="22px" height="20px" viewBox="0 0 22 20" version="1.1" xmlns="http://www.w3.org/2000/svg" xmlns:xlink="http://www.w3.org/1999/xlink" xmlns:sketch="http://www.bohemiancoding.com/sketch/ns">
    <!-- Generator: Sketch 3.4 (15575) - http://www.bohemiancoding.com/sketch -->
    <title>chuifengji</title>
    <desc>Created with Sketch.</desc>
    <defs></defs>
    <g id="Page-1-Copy" stroke="none" stroke-width="1" fill="none" fill-rule="evenodd" sketch:type="MSPage">
        <g id="icon" sketch:type="MSArtboardGroup" transform="translate(-115.000000, -332.000000)">
            <g id="chuifengji" sketch:type="MSLayerGroup" transform="translate(115.000000, 333.000000)">
                <g id="Group-3" transform="translate(0.000000, 3.000000)" fill="#555555" sketch:type="MSShapeGroup">
                    <path d="M2.26441875,1.597416 L0.62335625,1.597416 C0.28029375,1.597416 -0.00020625,1.303656 -0.00020625,0.945096 L-0.00020625,0.809736 C-0.00020625,0.451176 0.28029375,0.157416 0.62335625,0.157416 L2.26441875,0.157416 C2.60679375,0.157416 2.88729375,0.451176 2.88729375,0.809736 L2.88729375,0.945096 C2.88729375,1.303656 2.60679375,1.597416 2.26441875,1.597416" id="Fill-1"></path>
                </g>
                <g id="Group-6" transform="translate(0.000000, 5.000000)" fill="#555555" sketch:type="MSShapeGroup">
                    <path d="M2.26441875,1.757416 L0.62335625,1.757416 C0.28029375,1.757416 -0.00020625,1.463656 -0.00020625,1.105096 L-0.00020625,0.969736 C-0.00020625,0.611176 0.28029375,0.317416 0.62335625,0.317416 L2.26441875,0.317416 C2.60679375,0.317416 2.88729375,0.611176 2.88729375,0.969736 L2.88729375,1.105096 C2.88729375,1.463656 2.60679375,1.757416 2.26441875,1.757416" id="Fill-4"></path>
                </g>
                <path d="M18.2135937,4.957416 C18.2135937,6.150456 17.2902812,7.117416 16.1510937,7.117416 C15.0119062,7.117416 14.0885937,6.150456 14.0885937,4.957416 C14.0885937,3.764376 15.0119062,2.797416 16.1510937,2.797416 C17.2902812,2.797416 18.2135937,3.764376 18.2135937,4.957416 L18.2135937,4.957416 Z" id="Stroke-7" stroke="#555555" sketch:type="MSShapeGroup"></path>
                <path d="M21.0166688,5.02956 C21.0166688,2.46132 18.9679188,0.35964 16.4633563,0.35964 L13.9354188,0.35964 C13.6858563,0.35964 13.4459188,0.39564 13.2066688,0.43596 L13.2073563,0.43596 L5.69916875,1.84572 C5.65173125,1.85436 5.60154375,1.86084 5.55616875,1.87308 L5.45304375,1.91196 C4.29048125,2.27916 3.82916875,3.52332 3.82916875,5.00652 C3.82916875,6.48324 4.29735625,7.72308 5.45304375,8.09604 L12.3486688,9.47124 C12.8649813,10.97028 13.6019813,13.35276 13.6019813,14.74524 C13.6019813,16.01676 12.9866688,16.79868 12.4868563,17.2242 C12.3026063,17.38188 12.4291063,17.63964 12.6944813,17.63964 L16.1278563,17.63964 C16.9122938,17.63964 17.5489188,17.11764 17.5489188,16.47252 L17.5489188,9.549 C19.5309813,9.045 21.0166688,7.2126 21.0166688,5.02956 L21.0166688,5.02956 Z" id="Stroke-9" stroke="#555555" sketch:type="MSShapeGroup"></path>
            </g>
        </g>
    </g>
</svg>