<?xml version="1.0" encoding="UTF-8" standalone="no"?>
<svg width="20px" height="14px" viewBox="0 0 20 14" version="1.1" xmlns="http://www.w3.org/2000/svg" xmlns:xlink="http://www.w3.org/1999/xlink" xmlns:sketch="http://www.bohemiancoding.com/sketch/ns">
    <!-- Generator: Sketch 3.4 (15575) - http://www.bohemiancoding.com/sketch -->
    <title>coffe</title>
    <desc>Created with Sketch.</desc>
    <defs></defs>
    <g id="Page-1-Copy" stroke="none" stroke-width="1" fill="none" fill-rule="evenodd" sketch:type="MSPage">
        <g id="icon" sketch:type="MSArtboardGroup" transform="translate(-238.000000, -85.000000)" fill="#555555">
            <g id="coffe" sketch:type="MSLayerGroup" transform="translate(238.000000, 85.000000)">
                <path d="M19.6475329,2.89316901 C18.9658553,1.92266667 17.4658224,1.91277465 16.1496382,1.97541315 C16.1705921,1.15509859 16.0676645,0.711338028 15.8029605,0.409516432 C15.4584868,0.0168262911 14.9577303,0.0168262911 14.5158224,0.0168262911 L2.77240132,0.0168262911 C2.33065789,0.0168262911 1.83003289,0.0168262911 1.48552632,0.409516432 C1.17546053,0.763197183 1.08733553,1.31120188 1.16055921,2.43179343 C1.22598684,3.43414085 1.42463816,4.97220188 1.69819079,7.03569014 C1.96276316,9.03230047 2.48996711,10.2696901 3.35743421,10.9297934 C4.16605263,11.5451033 5.09842105,11.5451033 6.00006579,11.5451033 L11.2880263,11.5451033 C12.1899342,11.5451033 13.1226974,11.5451033 13.9311842,10.9297934 C14.5488487,10.459939 14.9938158,9.69700469 15.2947697,8.57592019 C16.3817105,8.57246948 17.1391776,8.54009859 17.7665132,8.24202347 C18.5791118,7.85587324 19.0323026,7.09422066 19.4997697,5.99071831 C20.0885197,4.60323944 20.1368421,3.58998122 19.6475329,2.89316901 L19.6475329,2.89316901 Z M13.2786842,10.0736573 C12.7591776,10.4689437 12.0775,10.4689437 11.2881579,10.4689437 L6.00019737,10.4689437 C5.21098684,10.4689437 4.52957237,10.4689437 4.01006579,10.0736573 C3.39434211,9.60511737 2.98736842,8.5652723 2.76611842,6.89447418 C2.50822368,4.94946009 2.30572368,3.38458216 2.23901316,2.41473709 C2.17065789,1.42096714 2.25638158,1.18014085 2.29171053,1.12469953 C2.36815789,1.09298592 2.62963816,1.09298592 2.77240132,1.09298592 L14.5158224,1.09298592 C14.6587171,1.09298592 14.9204605,1.09298592 14.9967763,1.12469953 C15.0321382,1.18014085 15.1180921,1.42083568 15.0497368,2.41473709 C14.9830263,3.3856338 14.7894079,4.88386385 14.5232895,6.89434272 C14.4804934,7.21670423 14.430625,7.51530516 14.3739803,7.79116432 C14.3355592,7.86510798 14.3134539,7.94907512 14.3134539,8.03830047 C14.3134539,8.0457277 14.3142105,8.05305634 14.3146053,8.06038498 C14.0779276,9.06260094 13.7358553,9.72589202 13.2786842,10.0736573 L13.2786842,10.0736573 Z M18.5080592,5.57094836 C18.0722039,6.59971831 17.7458224,7.06020657 17.3039145,7.27023944 C16.9120066,7.45651174 16.3594737,7.49193897 15.5224671,7.49861033 C15.5470066,7.34891549 15.57,7.19501408 15.5910855,7.03555869 C15.8127303,5.36130986 15.9851645,4.03288732 16.0773026,3.05646948 C17.1134868,3.00408451 18.39125,2.97789202 18.7656908,3.51130516 C19.0170066,3.86906103 18.9279605,4.58128638 18.5080592,5.57094836 L18.5080592,5.57094836 Z" id="Fill-1" sketch:type="MSShapeGroup"></path>
                <path d="M16.7507566,12.9238404 L0.538519737,12.9238404 C0.241184211,12.9238404 0,13.1647981 0,13.4619859 C0,13.7590423 0.241184211,14 0.538519737,14 L16.7507566,14 C17.0482237,14 17.2894079,13.7590423 17.2894079,13.4619859 C17.2894079,13.1647981 17.0482237,12.9238404 16.7507566,12.9238404 L16.7507566,12.9238404 Z" id="Fill-2" sketch:type="MSShapeGroup"></path>
            </g>
        </g>
    </g>
</svg>