<?xml version="1.0" encoding="UTF-8" standalone="no"?>
<svg width="18px" height="20px" viewBox="0 0 18 20" version="1.1" xmlns="http://www.w3.org/2000/svg" xmlns:xlink="http://www.w3.org/1999/xlink" xmlns:sketch="http://www.bohemiancoding.com/sketch/ns">
    <!-- Generator: Sketch 3.4 (15575) - http://www.bohemiancoding.com/sketch -->
    <title>jiedaiwaibin</title>
    <desc>Created with Sketch.</desc>
    <defs></defs>
    <g id="Page-1-Copy" stroke="none" stroke-width="1" fill="none" fill-rule="evenodd" sketch:type="MSPage">
        <g id="icon" sketch:type="MSArtboardGroup" transform="translate(-172.000000, -505.000000)" fill="#272636">
            <g id="jiedaiwaibin" sketch:type="MSLayerGroup" transform="translate(172.000000, 505.000000)">
                <path d="M17.3488406,13.8596111 C16.9774783,13.2960278 16.4608116,12.8085 15.8135072,12.4105 C15.0207246,11.9230833 14.0283188,11.5697778 12.8637971,11.3605833 C12.7409275,11.3384444 12.6150435,11.3798056 12.532029,11.4694167 C12.4490435,11.5589444 12.4211884,11.6837222 12.4586667,11.7979722 L13.3727246,14.5884444 L10.5627246,13.0777222 C10.3913043,12.9855833 10.1743768,13.0440833 10.0782319,13.2083611 C9.982,13.3726389 10.0430145,13.5805278 10.2144348,13.67275 L10.6921449,13.9295 C10.6848986,13.9412222 10.6782029,13.95325 10.6723188,13.9660556 L8.72385507,18.2315833 L6.86173913,14.1551944 L7.75895652,13.67275 C7.93037681,13.5805278 7.9913913,13.37275 7.89527536,13.2083611 C7.79901449,13.0440833 7.58208696,12.9855833 7.41066667,13.0778333 L4.60066667,14.5884444 L5.51484058,11.7979722 C5.5522029,11.6837222 5.52434783,11.5589444 5.44136232,11.4694167 C5.35834783,11.3798056 5.23246377,11.3384444 5.1095942,11.3605833 C3.94507246,11.5697778 2.95278261,11.9230833 2.16,12.4105 C1.51257971,12.8085 0.996028986,13.2960278 0.624666667,13.8596111 C0.00408695652,14.8013333 -0.00113043478,15.6418333 0.000115942029,15.7293056 L0.000115942029,19.6310833 C0.000115942029,19.8194722 0.15942029,19.97225 0.355971014,19.97225 C0.552521739,19.97225 0.711942029,19.8194722 0.711942029,19.6310833 L0.711942029,15.7264722 C0.711942029,15.7234444 0.711942029,15.7221389 0.711855072,15.7191944 C0.71173913,15.7120556 0.706173913,14.9929722 1.24953623,14.1893611 C1.89742029,13.23125 3.06692754,12.5336667 4.65205797,12.154 L3.65275362,15.2044444 C3.60904348,15.3378056 3.65478261,15.4833056 3.768,15.5714167 C3.88133333,15.6595278 4.03918841,15.6725556 4.16643478,15.6040833 L6.23776812,14.4905833 L8.39776812,19.2188889 C8.45449275,19.343 8.58243478,19.4231944 8.72385507,19.4231944 C8.86527536,19.4231944 8.99321739,19.343 9.04994203,19.2188889 L11.3135072,14.2635833 L13.8069565,15.6040833 C13.9342029,15.6725556 14.0921739,15.6596389 14.2055072,15.5714167 C14.3187246,15.4833056 14.3643478,15.3379167 14.3206377,15.2044444 L13.3213333,12.154 C14.9065797,12.5336667 16.076087,13.23125 16.7238551,14.1893611 C17.2672174,14.9929722 17.2616522,15.7119444 17.2615362,15.7173611 C17.2615362,15.7203889 17.2614493,15.7234444 17.2614493,15.7264722 L17.2614493,19.6310833 C17.2614493,19.8194722 17.4208696,19.9721389 17.6174203,19.9721389 C17.813971,19.9721389 17.9733913,19.8194722 17.9733913,19.6310833 L17.9733913,15.7291944 C17.9746377,15.6417222 17.9694203,14.8013333 17.3488406,13.8596111 L17.3488406,13.8596111 Z" id="Fill-1" sketch:type="MSShapeGroup"></path>
                <path d="M3.56884058,9.70955556 C3.62023188,9.84994444 3.75782609,9.93775 3.90466667,9.93775 C3.94382609,9.93775 3.9835942,9.93155556 4.02252174,9.91841667 C4.208,9.85602778 4.30571014,9.66136111 4.2406087,9.48363889 C4.23628986,9.47180556 3.80368116,8.28441667 3.48371014,6.94316667 C2.94101449,4.6695 3.15782609,3.84486111 3.33524638,3.55569444 C4.11594203,2.28377778 5.08762319,0.700861111 9.38110145,0.700861111 C11.1348406,0.700861111 12.4947826,1.27008333 13.4230145,2.39269444 C14.1866957,3.31652778 14.3975362,4.31241667 14.4144058,4.61830556 C14.484029,5.88630556 14.4035362,7.43427778 13.2787536,9.29994444 C13.1803768,9.46313889 13.2386667,9.67177778 13.4088406,9.76597222 C13.5790435,9.86025 13.7967536,9.80438889 13.8951594,9.64130556 C15.1129855,7.62122222 15.2004058,5.95044444 15.1252174,4.58238889 C15.1002029,4.12697222 14.8289275,2.99469444 13.9808696,1.96908333 C13.5015942,1.38933333 12.910087,0.930138889 12.2230435,0.604416667 C11.4030725,0.215722222 10.4468986,0.0186944444 9.38110145,0.0186944444 C7.34794203,0.0186944444 5.8157971,0.355916667 4.69713043,1.04961111 C3.72872464,1.64997222 3.21014493,2.41397222 2.72168116,3.20977778 C2.30492754,3.88880556 2.32756522,5.16169444 2.79110145,7.10113889 C3.12034783,8.47897222 3.55072464,9.65997222 3.56884058,9.70955556 L3.56884058,9.70955556 Z" id="Fill-2" sketch:type="MSShapeGroup"></path>
                <path d="M10.0297681,2.46236111 C9.8382029,2.42038889 9.64730435,2.53538889 9.6035942,2.719 C9.25666667,4.17547222 8.3235942,5.08358333 6.83037681,5.41788889 C5.678,5.67591667 4.60542029,5.48655556 4.58571014,5.48297222 C4.39289855,5.44727778 4.20605797,5.56805556 4.16869565,5.75283333 C4.13121739,5.93783333 4.25724638,6.11688889 4.45017391,6.15280556 C4.4684058,6.15616667 4.64095652,6.18730556 4.91713043,6.21075 C4.95356522,6.47494444 5.12147826,7.54602778 5.57904348,8.63261111 C6.29698551,10.3379167 7.38452174,11.2392778 8.72397101,11.2392778 C9.48484058,11.2392778 10.1732464,10.9342778 10.769913,10.3328056 C11.222029,9.87719444 11.6209275,9.24925 11.9558551,8.46638889 C12.3614203,7.51780556 12.5731304,6.58063889 12.6615652,6.11838889 C12.6983768,6.11927778 12.7355072,6.11980556 12.7731014,6.11980556 C12.8286957,6.11980556 12.8854203,6.11883333 12.9426957,6.11677778 C13.1391594,6.10994444 13.2926957,5.95183333 13.2855652,5.76358333 C13.2783188,5.57533333 13.114029,5.42775 12.9168986,5.43502778 C12.0244638,5.46627778 11.2597391,5.21594444 10.6437971,4.69141667 C10.1783188,4.29505556 9.97214493,3.87980556 9.96750725,3.87025 C9.96365217,3.86244444 9.95936232,3.85494444 9.95504348,3.84755556 C10.0946667,3.55816667 10.2111594,3.23416667 10.2976812,2.87088889 C10.3413623,2.68719444 10.2214783,2.50436111 10.0297681,2.46236111 L10.0297681,2.46236111 Z M10.1443478,5.17861111 C10.5289855,5.51216667 11.1224058,5.88727778 11.9508696,6.04419444 C11.7377681,7.11719444 10.8856522,10.557 8.72397101,10.557 C6.46353623,10.557 5.76947826,7.04091667 5.6404058,6.23558333 C6.03295652,6.23005556 6.49185507,6.19208333 6.96886957,6.08736111 C7.81713043,5.90116667 8.82892754,5.47505556 9.54597101,4.52194444 C9.67968116,4.70922222 9.87602899,4.94577778 10.1443478,5.17861111 L10.1443478,5.17861111 Z" id="Fill-3" sketch:type="MSShapeGroup"></path>
            </g>
        </g>
    </g>
</svg>