<?xml version="1.0" encoding="UTF-8" standalone="no"?>
<svg width="21px" height="20px" viewBox="0 0 21 20" version="1.1" xmlns="http://www.w3.org/2000/svg" xmlns:xlink="http://www.w3.org/1999/xlink" xmlns:sketch="http://www.bohemiancoding.com/sketch/ns">
    <!-- Generator: Sketch 3.4 (15575) - http://www.bohemiancoding.com/sketch -->
    <title>lanqiu</title>
    <desc>Created with Sketch.</desc>
    <defs></defs>
    <g id="Page-1-Copy" stroke="none" stroke-width="1" fill="none" fill-rule="evenodd" sketch:type="MSPage">
        <g id="icon" sketch:type="MSArtboardGroup" transform="translate(-177.000000, -249.000000)" fill="#555555">
            <path d="M187.07314,268.967311 C181.733348,269.072976 177.013555,264.685031 177.000026,259.013045 C176.987466,253.508555 181.513036,248.976499 187.04058,249.000092 C192.430511,249.022786 197.010164,253.322751 197.026912,258.979746 C197.04314,264.716983 192.311583,269.008071 187.07314,268.967311 L187.07314,268.967311 Z M190.64878,258.15491 C190.525389,258.204409 190.463209,258.226689 190.403313,258.254496 C189.171583,258.820921 187.893729,258.94776 186.567362,258.675049 C185.141099,258.381439 183.876393,257.711663 182.626497,257.005826 C181.824732,256.552872 181.042517,256.058606 180.213832,255.660713 C179.40013,255.269004 178.662829,255.657052 178.454524,256.529245 C178.32141,257.088693 178.191895,257.656465 178.139057,258.227622 C177.965113,260.136776 178.373832,261.925964 179.38622,263.558606 C179.522587,263.778157 179.806566,264.003753 180.05013,264.041681 C180.697327,264.141646 181.3784,264.25567 182.01314,264.155152 C183.24449,263.962855 184.473936,263.691525 185.668261,263.33529 C187.67532,262.736879 189.505562,261.740299 191.265009,260.617536 C191.355839,260.55909 191.457085,260.378572 191.42923,260.297052 C191.188365,259.585584 190.918296,258.882579 190.64878,258.15491 L190.64878,258.15491 Z M190.411306,257.70099 C189.589092,255.853529 188.572137,254.16472 187.255908,252.659988 C186.599403,251.908693 185.8975,251.209867 184.987154,250.761888 C184.649369,250.594738 184.310649,250.489625 183.918158,250.643822 C182.506773,251.199228 181.2884,252.028244 180.289126,253.16624 C179.77968,253.746966 179.318504,254.366724 179.069784,254.993874 C179.561652,255.086447 180.063106,255.104928 180.500649,255.281024 C181.083348,255.515394 181.625355,255.856741 182.168158,256.179504 C183.674178,257.075325 185.182068,257.968278 186.953002,258.239643 C188.134178,258.421266 189.287535,258.339746 190.411306,257.70099 L190.411306,257.70099 Z M191.653729,260.95567 C191.49885,261.040403 191.411514,261.081163 191.331791,261.132561 C189.857258,262.087587 188.295562,262.868451 186.656047,263.497363 C185.302621,264.017121 183.926531,264.46548 182.47622,264.589487 C181.70968,264.655325 180.933036,264.600161 180.1484,264.600161 C180.169369,264.657225 180.176808,264.700264 180.199092,264.732251 C180.238019,264.786897 180.286289,264.838295 180.332621,264.888762 C182.196843,266.898019 184.490684,267.903926 187.243729,267.872907 C187.585701,267.86776 187.839922,267.771422 188.024559,267.511145 C188.326254,267.085031 188.610234,266.645031 188.895562,266.207864 C189.738607,264.913321 190.602414,263.635394 191.829576,262.655912 C191.908919,262.59156 191.99705,262.453529 191.980303,262.369211 C191.893106,261.914358 191.775389,261.464202 191.653729,260.95567 L191.653729,260.95567 Z M185.292344,250.242821 C187.983902,252.061163 189.450407,254.726171 190.858019,257.451387 C191.961376,256.685377 192.404455,255.665031 192.310753,254.39871 C192.229126,253.302371 191.812414,252.315912 191.268642,251.379332 C191.179576,251.22472 191.029265,251.076016 190.870995,250.993978 C189.648158,250.355774 188.32532,250.104789 186.961791,250.089418 C186.405043,250.08251 185.848711,250.188036 185.292344,250.242821 L185.292344,250.242821 Z M191.908919,260.170213 C192.443348,259.738054 192.944559,259.370765 193.399126,258.954772 C194.075597,258.336534 194.91404,257.660644 195.270338,256.790869 C195.702725,255.73491 194.665735,254.462648 194.104386,253.641473 C193.569023,252.858192 192.865632,252.224686 192.001652,251.635981 C193.0066,253.989314 193.406151,256.177225 191.04968,257.909073 C191.331791,258.651836 191.609126,259.381819 191.908919,260.170213 L191.908919,260.170213 Z M195.667985,257.076119 C194.762379,258.49346 193.530476,259.565204 192.200753,260.542924 C192.130718,260.594323 192.09449,260.761093 192.115874,260.857846 C192.222102,261.338192 192.352552,261.812872 192.438365,262.148727 C192.455943,262.217259 194.389196,262.578088 194.674109,263.391836 C195.399818,262.906482 195.700407,261.185308 195.803832,260.373978 C196.100926,258.056672 195.755147,257.13833 195.667985,257.076119 L195.667985,257.076119 Z M192.188296,263.165826 C192.133417,263.15194 189.589507,266.055498 188.529403,267.691802 C188.619438,267.699228 188.671479,267.714081 188.71878,267.704375 C189.68885,267.528831 190.590407,267.16289 191.459784,266.707104 C191.87269,266.4908 192.18359,266.206897 192.186427,265.703477 C192.19103,264.858123 192.188296,264.012527 192.188296,263.165826 L192.188296,263.165826 Z M192.638815,265.747864 C192.685562,265.768796 192.731929,265.790109 192.778434,265.811422 C193.132448,265.436188 193.492379,265.067138 193.839057,264.684064 C194.386497,264.079194 194.389196,263.828071 193.873417,263.193632 C193.813002,263.118606 193.751756,263.041681 193.678504,262.980023 C193.346808,262.699919 192.985251,262.613701 192.638261,262.783719 C192.638815,263.804444 192.638815,264.776223 192.638815,265.747864 L192.638815,265.747864 Z" id="lanqiu" sketch:type="MSShapeGroup"></path>
        </g>
    </g>
</svg>