<?xml version="1.0" encoding="UTF-8" standalone="no"?>
<svg width="24px" height="20px" viewBox="0 0 24 20" version="1.1" xmlns="http://www.w3.org/2000/svg" xmlns:xlink="http://www.w3.org/1999/xlink" xmlns:sketch="http://www.bohemiancoding.com/sketch/ns">
    <!-- Generator: Sketch 3.4 (15575) - http://www.bohemiancoding.com/sketch -->
    <title>shangwuzhongxin</title>
    <desc>Created with Sketch.</desc>
    <defs></defs>
    <g id="Page-1-Copy" stroke="none" stroke-width="1" fill="none" fill-rule="evenodd" sketch:type="MSPage">
        <g id="icon" sketch:type="MSArtboardGroup" transform="translate(-115.000000, -562.000000)" stroke-linecap="round" stroke="#555555">
            <g id="shangwuzhongxin" sketch:type="MSLayerGroup" transform="translate(116.000000, 563.000000)">
                <path d="M20.7777778,17.5909091 L1.22222222,17.5909091 C0.774074074,17.5909091 0.407407407,17.2227273 0.407407407,16.7727273 L0.407407407,5.31818182 C0.407407407,4.86818182 0.774074074,4.5 1.22222222,4.5 L20.7777778,4.5 C21.2259259,4.5 21.5925926,4.86818182 21.5925926,5.31818182 L21.5925926,16.7727273 C21.5925926,17.2227273 21.2259259,17.5909091 20.7777778,17.5909091 L20.7777778,17.5909091 Z" id="Stroke-1" sketch:type="MSShapeGroup"></path>
                <path d="M15.8586593,4.23564545 L6.3236963,4.23564545 C6.2576963,4.23564545 6.20391852,4.18164545 6.20391852,4.11619091 L6.20391852,0.799281818 C6.20391852,0.439281818 6.49725185,0.144736364 6.85577037,0.144736364 L15.3298444,0.144736364 C15.688363,0.144736364 15.9816963,0.439281818 15.9816963,0.799281818 L15.9816963,4.11128182 C15.9816963,4.18000909 15.9262889,4.23564545 15.8586593,4.23564545 L15.8586593,4.23564545 Z" id="Stroke-3" sketch:type="MSShapeGroup"></path>
                <path d="M14.0265481,4.5 L8.15988148,4.5 C7.98062222,4.5 7.83395556,4.35272727 7.83395556,4.17272727 L7.83395556,2.07081818 C7.83395556,1.89081818 7.98062222,1.74354545 8.15988148,1.74354545 L14.0265481,1.74354545 C14.2058074,1.74354545 14.3524741,1.89081818 14.3524741,2.07081818 L14.3524741,4.17272727 C14.3524741,4.35272727 14.2058074,4.5 14.0265481,4.5 L14.0265481,4.5 Z" id="Stroke-5" sketch:type="MSShapeGroup"></path>
                <path d="M15.9816148,9.42275455 L21.5924296,9.42275455" id="Stroke-7" sketch:type="MSShapeGroup"></path>
                <path d="M7.83338519,9.42275455 L14.3519037,9.42275455" id="Stroke-9" sketch:type="MSShapeGroup"></path>
                <path d="M0.407407407,9.42275455 L6.204,9.42275455" id="Stroke-11" sketch:type="MSShapeGroup"></path>
                <path d="M7.50802963,11.0182091 L6.53025185,11.0182091 C6.35099259,11.0182091 6.20432593,10.8709364 6.20432593,10.6909364 L6.20432593,8.07275455 C6.20432593,7.89275455 6.35099259,7.74548182 6.53025185,7.74548182 L7.50802963,7.74548182 C7.68728889,7.74548182 7.83395556,7.89275455 7.83395556,8.07275455 L7.83395556,10.6909364 C7.83395556,10.8709364 7.68728889,11.0182091 7.50802963,11.0182091 L7.50802963,11.0182091 Z" id="Stroke-13" sketch:type="MSShapeGroup"></path>
                <path d="M15.6561778,11.0182091 L14.6784,11.0182091 C14.4991407,11.0182091 14.3524741,10.8709364 14.3524741,10.6909364 L14.3524741,8.07275455 C14.3524741,7.89275455 14.4991407,7.74548182 14.6784,7.74548182 L15.6561778,7.74548182 C15.835437,7.74548182 15.9821037,7.89275455 15.9821037,8.07275455 L15.9821037,10.6909364 C15.9821037,10.8709364 15.835437,11.0182091 15.6561778,11.0182091 L15.6561778,11.0182091 Z" id="Stroke-15" sketch:type="MSShapeGroup"></path>
            </g>
        </g>
    </g>
</svg>