<?xml version="1.0" encoding="UTF-8" standalone="no"?>
<svg width="26px" height="18px" viewBox="0 0 26 18" version="1.1" xmlns="http://www.w3.org/2000/svg" xmlns:xlink="http://www.w3.org/1999/xlink" xmlns:sketch="http://www.bohemiancoding.com/sketch/ns">
    <!-- Generator: Sketch 3.4 (15575) - http://www.bohemiancoding.com/sketch -->
    <title>zaocan</title>
    <desc>Created with Sketch.</desc>
    <defs></defs>
    <g id="Page-1-Copy" stroke="none" stroke-width="1" fill="none" fill-rule="evenodd" sketch:type="MSPage">
        <g id="icon" sketch:type="MSArtboardGroup" transform="translate(-114.000000, -416.000000)" stroke="#555555">
            <g id="zaocan" sketch:type="MSLayerGroup" transform="translate(115.000000, 417.000000)">
                <path d="M19.3216552,12.2105263 L21.9310345,12.2105263 C22.8455172,12.2105263 23.5862069,12.9642105 23.5862069,13.8947368 L23.5862069,13.8947368 C23.5862069,14.8252632 22.8455172,15.5789474 21.9310345,15.5789474 L2.06896552,15.5789474 C1.15448276,15.5789474 0.413793103,14.8252632 0.413793103,13.8947368 L0.413793103,13.8947368 C0.413793103,12.9642105 1.15448276,12.2105263 2.06896552,12.2105263 L16.5633103,12.2105263" id="Stroke-1" stroke-linecap="round" sketch:type="MSShapeGroup"></path>
                <path d="M2.13566897,12.2111158 C2.37815172,6.87890526 6.70394483,2.63132632 12.0046345,2.63132632 C17.2523586,2.63132632 21.5442207,6.79553684 21.8644966,12.0536421" id="Stroke-3" sketch:type="MSShapeGroup"></path>
                <path d="M13.1017655,1.22972632 C13.1017655,1.84867368 12.6085241,2.35056842 12.0002483,2.35056842 C11.3911448,2.35056842 10.8979034,1.84867368 10.8979034,1.22972632 C10.8979034,0.610778947 11.3911448,0.108884211 12.0002483,0.108884211 C12.6085241,0.108884211 13.1017655,0.610778947 13.1017655,1.22972632 L13.1017655,1.22972632 Z" id="Stroke-5" stroke-linecap="round" sketch:type="MSShapeGroup"></path>
            </g>
        </g>
    </g>
</svg>