<?xml version="1.0" encoding="UTF-8" standalone="no"?>
<svg width="12px" height="10px" viewBox="0 0 12 10" version="1.1" xmlns="http://www.w3.org/2000/svg" xmlns:xlink="http://www.w3.org/1999/xlink" xmlns:sketch="http://www.bohemiancoding.com/sketch/ns">
    <!-- Generator: Sketch 3.4 (15575) - http://www.bohemiancoding.com/sketch -->
    <title>iconfont-like</title>
    <desc>Created with Sketch.</desc>
    <defs></defs>
    <g id="Page-1-Copy" stroke="none" stroke-width="1" fill="none" fill-rule="evenodd" sketch:type="MSPage">
        <g id="首页" sketch:type="MSArtboardGroup" transform="translate(-267.000000, -715.000000)" fill="#FFFFFF">
            <g id="评价" sketch:type="MSLayerGroup" transform="translate(-3.000000, 695.000000)">
                <g id="推荐小标" transform="translate(268.000000, 18.000000)" sketch:type="MSShapeGroup">
                    <g id="iconfont-like" transform="translate(2.000000, 2.000000)">
                        <path d="M11.4828278,3.34834758 L6.60159707,3.34834758 C6.20152381,3.34834758 5.96147985,3.03719373 6.12150916,2.68706553 L6.80168498,0.664387464 C6.92169963,0.314273504 6.72167033,0.00310541311 6.32153846,0.00310541311 L5.40133333,0.00310541311 C5.00120147,0.00310541311 4.48111355,0.275384615 4.28102564,0.586595442 L2.84071795,2.76491453 C2.60061538,3.07608262 2.44058608,3.65957265 2.44058608,4.04853276 L2.44058608,9.61103989 C2.44058608,10 2.84071795,10 2.84071795,10 L9.12225641,10 C9.52231502,10 9.96246154,9.68883191 10.0824762,9.33871795 L11.9629158,4.00962963 C12.0829304,3.65957265 11.8829011,3.34834758 11.4828278,3.34834758 L11.4828278,3.34834758 Z" id="Fill-1"></path>
                        <path d="M1.6003956,3.34834758 L0.720175824,3.34834758 C0.320058608,3.34834758 0,3.65957265 0,4.04853276 L0,9.29981481 C0,9.68883191 0.320058608,10 0.720175824,10 L1.6003956,10 C1.80042491,10 1.96045421,9.84441595 1.96045421,9.64992877 L1.96045421,3.69846154 C1.96045421,3.5039886 1.80042491,3.34834758 1.6003956,3.34834758 L1.6003956,3.34834758 Z" id="Fill-2"></path>
                    </g>
                </g>
            </g>
        </g>
    </g>
</svg>